<svg xmlns="http://www.w3.org/2000/svg" xlink="http://www.w3.org/1999/xlink" version="1.1" width="131px" height="121px" viewBox="-0.5 -0.5 131 121"><defs><pattern id="rough-2034775956436683" x="0" y="0" width="1" height="1" viewBox="0 0 100 100" patternUnits="objectBoundingBox"><path d="M7.596422220080559 0.45792720062947967 C5.131867969368 1.055651605114821, 3.217382978973963 3.272853593575702, -0.32230567211105643 7.347021418363771 M6.587297595984413 -0.3768534369067257 C4.305659094381699 2.0769830200490063, 2.4408251811284574 5.044547730397414, 0.402294416014926 7.8897621454728 M16.88399644832642 0.998482264680078 C10.147015930207886 6.2708168461, 4.228886170948285 14.386771487300614, -1.7624753289847153 18.59307739199935 M16.989450068187516 0.6250618467639519 C12.448822792846439 4.772815713744917, 8.687506712513201 11.270709358171576, -0.46809907334936174 20.30186137568069 M26.487875144756437 -1.0368992113931972 C19.45824317804412 11.47922652999356, 10.940697537369475 19.54129406269241, 0.9260259522779108 33.96500872116309 M28.74666214478557 -0.7016578332091972 C17.626912776117624 12.528557116504702, 6.599361639558813 23.560959997648204, -0.30548666000680935 31.73373990891067 M38.486525999585034 -1.2237322664784624 C21.79473045853371 15.881502526031335, 7.8277003487834955 34.58283490282908, 0.2884106163379627 45.249944695067285 M39.16910614456613 -0.07328547118101403 C27.630712596124418 13.784091018437959, 14.692592749294063 28.593258037424636, -0.9672627326205525 44.82599313872566 M48.427695363304785 1.7921606362567717 C36.06290545439916 15.725934729176466, 26.094883362063914 29.707679737589416, -1.885606179292262 55.1749287159471 M49.25061133947035 -0.4661139196394539 C34.768238162537 15.842314085574301, 20.69234114600808 32.16854692790143, -0.04979581858524629 56.927565236980826 M60.432892242933185 1.901742276852219 C39.098063605641194 23.836102864351012, 18.6143368701442 47.54819542584133, 1.167443771181631 67.7456895691115 M59.41091451330936 0.8771125856277089 C38.497022221541144 23.91450253829533, 18.58846845228663 46.42346652869237, -0.7389541738508907 69.59061703419414 M71.19473165383243 0.45574087440195754 C50.35358304946704 21.639309799296413, 33.589218281164115 45.684066285772424, 1.1102762231216587 80.92182355144591 M70.9028682330558 0.08359792528156706 C49.953159144711286 23.269657693188552, 29.816869909133057 46.92163751710487, 0.3445857939116421 80.6027326205243 M81.70127824830743 0.2579045769026642 C61.4207558740062 24.110110862529062, 40.89034272295003 49.71787136622679, 0.34520537673491436 94.31668373031668 M81.61401176582561 -0.027515606487050537 C52.68466725508302 31.672910035469922, 25.43196940606088 62.75543389832178, 0.9253123754415036 94.13472803696841 M92.01497750705485 -1.8016604663633933 C56.087472623398405 37.850635550644824, 23.022127787635057 76.69134780452328, 3.268048902254753 101.3749634169845 M91.88932533939797 -0.26498032557297657 C57.899713762696116 39.538020378365104, 23.938908872530753 78.13232333563585, 4.8535792228129235 99.79944628386235 M98.77757918624128 2.975253576697341 C74.9468859822234 30.844833917290327, 53.73720119006104 56.718105318106694, 16.193885278517055 98.63911706494373 M100.43191031617056 2.7413972647852045 C71.18710326906425 35.27294628475302, 42.66918353312935 67.36677801718335, 15.263605934163985 100.88594179896918 M100.5484527893113 13.274841786539273 C77.96990014486752 39.90958178725662, 52.94594757880989 68.29688263740964, 24.916189651336843 98.69658035485635 M100.03196744938668 14.876596745644083 C71.5192663864298 48.8269862341731, 43.44813105935146 80.02093107883424, 25.541183462485762 100.54646966601905 M100.1844887293702 27.64502712753506 C73.9173839820671 53.818339503237695, 51.71803118039107 81.65214605055284, 37.51046583308406 100.63109393382281 M100.71608638266903 26.75627692248746 C79.42459481018412 50.31847319732374, 59.20400767767711 72.6062780502348, 37.43214171307506 99.91914968653239 M100.02736500996872 40.19311501939249 C82.27833066742275 56.71450842007393, 69.00540543177972 77.17700671530267, 45.13111007615051 100.45587590173537 M100.79282420312232 38.75577390994907 C80.2453339020242 61.42770426726547, 62.0224412016602 84.5283940972376, 46.39312684218001 99.74895526806218 M98.09836077613609 51.39227026195195 C84.32336520771574 65.46793571669099, 71.24677096043686 85.31937288084518, 55.88965803213232 98.5947012950782 M99.72346288503675 50.787097033754826 C89.86289668577461 61.0697496199391, 81.16781931264812 71.01471781687916, 57.92440992194978 99.77487716501977 M98.40682722937682 62.48900179145608 C94.00917483549011 73.42202202743132, 87.66263677952408 80.94204563316248, 69.62814033585758 99.33295644699412 M100.34254718403996 63.781098550297585 C88.83316823160176 77.487617458975, 77.22422190744278 89.09975364768434, 68.04283257611948 100.63865786956181 M99.05624129835726 75.46441081699626 C94.02023545202124 83.22077307218639, 87.22508539942486 88.99611407195059, 79.9160529440692 101.56511141563638 M99.73939694463886 75.80063313882182 C95.85644444762072 81.2959390044868, 90.67876004239238 86.50159406197197, 78.00873927717163 100.34633569656519 M100.81833065235989 87.74633815787301 C95.86648452080385 92.0328440486143, 90.38424329028926 97.38657549134955, 88.4920518907525 100.58784985568356 M99.72155086080096 88.54450563027333 C96.23545780884044 91.39823003547804, 93.71508767633786 96.06027279041166, 88.89710750451107 100.64681561178543" style="stroke: none; stroke-width: 1; fill: none;"/></pattern><pattern id="rough-2822549505258863" x="0" y="0" width="1" height="1" viewBox="0 0 100 100" patternUnits="objectBoundingBox"><path d="M6.175519797808742 -0.22337133364958572 C5.22604326912605 2.8085266787574175, 2.6243467270562486 3.697010011955838, -0.7688138084713787 7.495326798996661 M7.305802548007631 0.06436272375172303 C5.009771182752131 1.62846190121124, 3.8523343512078694 3.3611273722683537, 0.08161239397983489 7.92250610015857 M16.106174649018133 1.366199233318679 C10.821959653921489 7.497536072320213, 7.591980875461432 14.322289124742273, 1.6748419604968685 18.207425251897046 M18.32006843013167 0.6804589005851498 C11.198026709853796 7.15487896978936, 6.4255163386091345 14.638731978282387, 0.32642921587794094 20.557489684063032 M28.021008400840802 0.255180614841799 C19.527476363638794 10.647131125874054, 6.751552083831386 21.761161849798643, 0.40980504609101853 30.39472676966153 M28.530360931733213 0.2584614925698441 C17.026960928445725 10.535946670893942, 7.406316357731738 21.43454634967371, 0.43487313828621765 31.35971871525853 M38.99595970030396 1.2785331790375647 C27.392354882662552 12.696167764143162, 13.82640153717448 29.309356157272536, 1.5400370214048085 44.85003695790763 M39.122401431646686 -0.32878667360238856 C23.1628116691424 16.3603965798914, 8.31619262360091 33.28490130733908, 0.7205874594895278 45.02685958931805 M50.505650675096966 0.8276974640775405 C30.896772277777863 23.22344267215504, 10.868185761906517 43.8752736865734, -0.986738850725728 57.5614193804335 M49.32708131625876 -0.8332432141235966 C34.07514548696804 17.277629511279173, 19.45215350717948 34.480619892412946, -0.9121777833827651 57.580783761204835 M60.951521245420366 -1.4929368262947484 C40.262257432657925 22.327857004392, 19.59152244818539 45.13771735467106, -1.7948429626628855 69.63194602565245 M60.69365029784891 -0.966531013495795 C46.33862817834121 16.081431321320075, 32.16357955758684 31.871361446309887, 0.7221690743309135 68.1875496864941 M68.79204318738361 1.3133509409797606 C45.489342044388 27.761653235637098, 19.96179553036411 54.760069598380696, 1.1806106438794055 82.47004385950856 M69.41531079591803 0.015489269658789162 C51.269311391754925 21.76624739595301, 33.56567069232496 41.21118638353493, -0.01160254877281286 81.32246796317254 M81.57729328265292 1.5408019876791172 C57.07409611375676 29.08090983685887, 34.79702120996187 55.10996833266557, -0.28980105039921344 91.81962684293927 M81.31365749154588 -0.34624237872192865 C52.64011397235247 33.63284861627929, 24.392520197655706 65.28141912315267, -0.8297476253592904 93.60721347421438 M92.05816417413034 -1.7233812886301214 C61.82586743715021 33.854105314420444, 35.45680359156635 64.03297145962273, 6.545931317596801 100.6341321336634 M92.02295811595516 -0.16322805323224587 C61.20408325552693 35.73164904412887, 32.064598354215555 69.70100075586764, 4.3162584988423465 99.57025094240487 M100.21753683431453 4.517387294069264 C78.17809882668062 25.768540133439345, 57.30397615983031 53.57461273252309, 15.515437265481381 99.19833882642334 M99.57676153482961 2.026091447350687 C81.79707311916725 23.045245759768374, 65.12207750501474 44.14849702974832, 15.8616134055594 100.40654548397178 M99.52113803828621 13.875820992874267 C81.50255847634651 35.385573863908185, 61.454685354535314 60.04664197961534, 27.3078740797137 98.18779340367155 M100.07681034941425 15.580991288503782 C78.25385603966522 38.08370710292589, 57.64035832673971 63.5244981438198, 25.6584446938239 99.80150514598704 M98.86713675563513 25.797017260634675 C88.44288923755106 43.84876557444555, 76.05346411096517 58.74462943547313, 36.08768923489984 100.05293182651808 M100.87612845517923 26.94642231216512 C86.21686662257305 41.435582158839885, 73.28945079704867 56.94449812560539, 36.60706666004835 100.92777132206967 M100.23770378315437 38.10100719782409 C79.73089710205618 65.17038178948309, 56.93498698957426 87.32602298311016, 48.669916230293815 98.93454802030604 M99.78022963726325 38.76008765494218 C88.18060953479942 53.24234630709322, 77.08080239547449 64.94206649277116, 46.40665362795574 100.39084424821947 M100.69002592591177 53.07969841600547 C88.20476845815156 64.06744533430759, 81.17202852386603 76.27371102164852, 55.91750391687539 98.15778719462669 M99.24525067994847 51.32671605836306 C90.38705637055278 62.35839365521679, 79.68648372845465 75.45409945514848, 57.786540524550354 100.08434158108737 M99.17317457864591 63.459449030252834 C90.89533881262705 73.16089186387461, 83.40818942248973 81.94213533070237, 67.19475678576109 100.95721123960232 M99.62937038334792 64.30118527957691 C91.40175451980205 72.37556403408537, 83.39446259820765 81.70817786598927, 68.46680719509895 100.50656063847751 M100.37596515835932 76.61282635068756 C92.2141672483277 82.74781527091838, 86.80550522993487 90.61128876603537, 77.89854513941621 101.88042503398984 M99.50687187490657 76.59002574963273 C95.45688434353661 80.61006440068383, 88.49914072289269 87.6680315643322, 78.2146051773306 100.56070046325218 M100.67090356800429 88.03023758060755 C97.20487483943984 91.14133135784792, 93.2173159190888 95.05301359953863, 88.73419846795291 100.09564969709503 M99.72183061172048 88.51565934479144 C97.82420974575267 90.54006366314995, 95.31997228516715 93.83904899517096, 90.0047420228603 100.64893737204405" style="stroke: none; stroke-width: 1; fill: none;"/></pattern><pattern id="rough-4255706028034127" x="0" y="0" width="1" height="1" viewBox="0 0 100 100" patternUnits="objectBoundingBox"><path d="M7.165566070171317 0.5627947351976093 C5.930631473639501 1.419818199119537, 3.1736377526746624 4.677115548111628, -0.570057822450486 8.643269282958666 M6.7507156998035125 0.24239558502398584 C5.3106233219102545 2.1809378089141553, 2.838309249386885 3.600373531533483, -0.008128160947002638 8.05825771920976 M17.002105760960074 -0.06874651813140087 C13.502729619760814 3.7001157692128563, 9.528737811955816 7.464436450116526, 1.7230250874395994 20.291447614035963 M16.86836269124911 -0.03768481674163837 C11.808778948866623 6.278108314029181, 6.980601672706893 11.498318339373034, 0.7062456382826596 19.039920184067576 M28.095990583008806 -0.34040793348760445 C22.944226298530648 8.049950617506209, 15.408939501858026 16.086798962556458, 1.6524507806238926 32.36807585605758 M28.21561205658404 0.3566246155210262 C19.34851669082161 11.262329690811828, 9.117098597195469 23.014200265094747, 0.5204689200735277 32.12175389407376 M39.18889232811343 -0.9125214994564956 C26.82987949849073 14.004479084197651, 18.539938939670442 25.755569533829814, -0.08160104310296035 42.72697856164648 M39.10668998264901 0.29048625067712575 C29.103338101995114 12.895981150754547, 18.25103295224196 23.607436933414785, 0.4447299683308592 43.95160996366275 M50.343968419576754 1.0825866478674575 C37.381736382481805 14.470533053153805, 25.730073435242097 24.129263764946536, -0.6301638624893267 56.7930247914358 M48.93843378103698 0.8911662893789916 C35.96297368708843 16.21013932623034, 20.96728994330306 31.67797886092632, -0.10312005541320612 56.48847634975224 M59.70808331418507 0.1115740856175007 C35.53163249560137 26.502910637573688, 13.105432446246818 54.942136404394674, 1.6788148473397486 67.47767319818675 M59.04776436410582 0.8366103807708947 C37.387869570749025 25.31290922912854, 15.126212397587489 51.33703964993057, 0.3113840389150955 67.85995319617561 M72.31686203979636 -0.33823418466904087 C50.81535417324494 23.030402674521557, 30.203829197503893 42.41214970135894, -0.4664659933584643 81.93946080221357 M71.04114385379395 0.23145602600273474 C52.78552283986112 19.00786454059882, 35.876069656234975 40.80549557711178, -0.4360584222793893 80.14299738480163 M82.42629857507463 1.7100857824622357 C55.79334238735375 30.84054835924195, 33.1538114415782 58.08660828152749, -0.0027150284086472354 94.21059557487408 M81.31279472880635 -0.28735282124353256 C52.95780090045165 34.27612456281751, 22.522369929732548 67.37118211187817, 0.7356053101888507 93.43501310383975 M91.5908630238083 -1.201995095357459 C58.94173185952079 34.1265465811431, 28.521690587932582 71.92657200736403, 6.605584816772872 101.9677748927196 M92.01982257629966 -0.14170192832676198 C65.38572709956622 29.509476567765805, 40.415634050199316 57.330463105287954, 5.293845616489571 99.94455216041094 M98.49054286642196 0.9307188759334633 C72.09566252019867 38.43719037306059, 41.915972100791095 70.62982549839268, 13.352814338484778 99.29645319577476 M100.92203390538104 2.8776355330890286 C73.37303722933596 33.89847524116841, 46.166781974166355 66.77256322362864, 14.501971103873112 99.51924590907997 M100.39727773272229 15.569479135803718 C74.45293638185018 43.24462557471536, 48.85099814643573 75.03753381298387, 26.459751784293303 99.73627162129846 M99.36823090310767 14.761395233273518 C83.39907252068988 33.906264231432715, 67.35888502414329 52.082315074667136, 25.103572320882467 100.20179843023016 M101.35926309272922 28.492317432660744 C86.69384142317885 45.859024135433145, 70.68524955691335 61.944236519505324, 34.49972296169123 101.13897026992971 M99.35994069078902 26.364505043085565 C83.65593870442869 45.34282910075458, 66.81788915000782 64.77061640481456, 36.69953530363486 100.1008326539901 M100.36275691742132 37.72028985642758 C81.12278049871392 60.007645390710834, 67.50248596843068 79.54238402064807, 48.77750370958231 100.15618454410532 M99.07367604237989 39.599394273614536 C86.01607582691426 54.37534705356889, 72.63107223486632 70.05444361273015, 46.648058261537265 99.02063018909278 M98.638610849575 52.34410746480492 C86.1625899745219 64.09872450386035, 76.95482488843788 76.7312684172281, 56.07056372918491 101.26281643803284 M100.25485555283772 52.29649100268405 C84.40218678082343 69.7350416069387, 67.92306773649754 86.93698125344822, 57.95295478016244 99.54971903418955 M101.26961846375247 64.99954548871386 C90.50608822798223 70.62249380609173, 85.81068765959748 78.87479681135756, 66.91669892223467 100.84444789744285 M100.33895658289892 63.21141751774583 C93.13972634722069 72.02354410294542, 84.26750796268837 80.5037468154493, 68.39940622604996 100.26537068020149 M100.95298161813265 77.36349483030807 C93.32802245914759 80.95913489865782, 88.66135985199419 88.01736927648591, 78.34823363133368 100.5386661411028 M100.22595499363636 76.51933528925268 C93.31156061013064 84.86353261386549, 84.20881128479536 93.17271035741558, 79.86855813103246 99.7738957258737 M100.24724166800299 87.08205252108175 C95.50177654028619 93.49378593700692, 93.66643530276022 97.80235063473543, 89.55897675924193 100.78316089010043 M100.72075013950015 87.71880945871169 C96.96427876530024 91.52907738953003, 93.25578193149171 94.90327596486362, 88.69750310191108 100.69023791078416" style="stroke: none; stroke-width: 1; fill: none;"/></pattern><pattern id="rough-8507048370416247" x="0" y="0" width="1" height="1" viewBox="0 0 100 100" patternUnits="objectBoundingBox"><path d="M6.368073791197837 -0.18369893841401952 C6.228345786299084 2.502473598370566, 3.0276317705507294 3.8995135917004387, -0.9732890165739041 7.528106023329692 M6.315925796151339 -0.2431703242422658 C4.560496098153459 1.634861022469586, 2.7625299910302377 3.873962740299051, -0.15856015836182724 7.843167078969792 M15.51093246547008 -1.0283696282017507 C10.336697312410934 4.852453027609167, 6.946791092119302 12.205694557443604, 0.15440427675811907 19.183131615009472 M17.997983369599382 0.9315977310934787 C13.462149923434698 5.800654568700287, 9.80801650322616 9.994365590366794, 0.6165058200612932 19.45193217623098 M28.59824471269427 0.9524861035589556 C19.91739535296351 10.857808881666582, 9.091036496091046 19.087080577654497, -0.1496215195583117 32.51013571023768 M27.148174102015666 -0.34262981657697944 C16.714515634255537 12.733759772949124, 6.043930305752703 24.073638433294807, -0.13566304323738443 32.14485379551674 M38.61956657157926 -0.6599618314924953 C24.744801431015986 14.9512976431162, 14.900642227217338 28.671326195787554, 0.5950272406045611 45.99503223270416 M39.445595628056886 -0.7143676896066644 C28.16747456061459 13.242612021977035, 15.735918183569115 25.922960568870597, 0.26791386451571064 43.53630173307877 M50.54427626495507 0.77430441901718 C33.84143242459354 20.129308529059333, 15.561409762641933 36.20879204228757, 0.4834526784426094 55.183968006625335 M49.44792714210573 -0.45925688321879443 C39.879464842580816 10.493237881642841, 29.3198835843686 22.774353417802892, 0.660535627392679 57.092008970665475 M59.23437706335935 1.1225204832308666 C41.420619939933204 19.86068687367959, 25.818511992652663 39.26475464525344, 0.528174531270122 69.69462002846454 M60.15341128177596 -0.0731101472247202 C48.405892738658174 13.467999471148856, 34.911952845962745 28.498861567349863, -0.3274707354107238 68.34777549562058 M69.61064028037396 0.7950066628859345 C54.23775010319605 16.922098463181865, 42.410675682939925 33.38801612101658, -1.3189460865288387 79.07856079957554 M70.20724417505623 0.8892888606036586 C44.30035709758594 30.686400603206124, 18.672896524492618 59.463476474103814, -0.8877155606801805 80.10500455856345 M79.09299682266085 0.7254706252512344 C52.07695289041878 29.90956387107277, 26.626469106767825 60.32062341398898, 1.6845409007765486 93.66555639789676 M80.49592316880982 -0.7125349212258141 C61.42112481476873 21.711232233664663, 41.623249542913 44.95224696961148, 0.06980847820843605 92.564782198215 M92.99741676286546 -0.3670555223996681 C66.530209659089 29.887984521834138, 42.419987713672995 58.59206908754837, 5.919119466557179 101.81171640604221 M92.57032244867892 -0.21379882833053498 C69.0774930077789 25.49194904864198, 47.52780542255186 51.85624570657851, 4.128047867745229 99.4111913805303 M100.53512600751665 3.892938112532206 C75.8122777465897 31.472539279515257, 49.63112551015304 58.405229911859145, 15.566738707854675 100.92416400499279 M100.02452692216762 2.8746465243547963 C74.82455093468869 29.513780547499078, 50.14767925119144 57.255415536741246, 15.252458797433052 99.20229345279833 M100.69522045078037 13.596491614960406 C83.69375162852582 33.15822351893277, 66.27593711814771 53.54176440244949, 26.000862919573276 98.10339463664525 M100.47692187614766 14.904897719273055 C78.68754429035762 37.23544835095277, 58.52433195770315 61.28505690518555, 26.427855920510787 99.0313117969167 M98.94132035759996 27.136934313866306 C78.52743004603974 51.32573453364229, 54.60855523730293 78.6274309196758, 37.90039948579624 101.22712555669487 M100.28554694468797 27.682254101565892 C84.15077932948796 43.027351208498814, 71.13832542519138 61.531513045737654, 36.99589172970243 99.14283067841151 M101.67398517745109 39.02964374353156 C80.69092319608627 62.73401740341861, 59.111601962733026 86.0967281385415, 48.45877046176523 98.71934732191902 M100.91806508418713 39.77877161551884 C84.3080854792834 56.251350696493304, 68.18972528305576 75.48062451432934, 46.11525929249179 100.93767506754963 M101.44040995063341 51.77420537945116 C87.49802071902437 63.968884898508406, 76.7607973516391 78.09880601835475, 57.98831779695788 98.8529394293265 M100.17110265447107 51.428411096368684 C89.18152864470271 63.61367301607861, 77.87025408812539 77.82124363852103, 58.65123656026021 99.75616111503903 M101.07205134671923 62.83642693761254 C91.29677585814736 74.40217367435781, 83.41421783224425 81.62113669091845, 68.81646510555059 100.14606572588634 M100.41632964963557 62.90868965759762 C93.25075778152909 72.05462643640166, 86.55034089380463 78.9951500304229, 68.78663112873392 99.94364549986926 M98.76227799405099 77.19281885503217 C93.66767847506597 82.97839649081938, 85.77515852682457 90.47265306699471, 77.53697653906748 101.8115751165987 M100.66563922322236 74.81396734206885 C93.26438914398574 82.84264302996729, 86.27308426423745 92.48686381785086, 79.12862758113913 99.95868034001244 M99.49024184375583 86.73538693643611 C97.87253910468914 91.23168550802785, 95.68478205698825 94.71881097272191, 90.44950498353148 101.24239120201942 M100.33024435186199 88.24167056892634 C96.82193876030914 90.85889245000858, 95.40493014101341 94.12089390574302, 89.93937386783725 99.38116969572465" style="stroke: none; stroke-width: 1; fill: none;"/></pattern></defs><defs/><g><g transform="translate(15.5,17.5)"><text xmlns="http://www.w3.org/2000/svg" x="4" y="-3" style="font-size: 14px;font-family: Helvetica;" fill="rgb(0, 0, 0)"><tspan xmlns="http://www.w3.org/2000/svg" x="4" dx="0" dy="14" text-anchor="middle">1</tspan></text></g><g transform="translate(15.5,57.5)"><text xmlns="http://www.w3.org/2000/svg" x="4" y="-3" style="font-size: 14px;font-family: Helvetica;" fill="rgb(0, 0, 0)"><tspan xmlns="http://www.w3.org/2000/svg" x="4" dx="0" dy="14" text-anchor="middle">4</tspan></text></g><g transform="translate(15.5,97.5)"><text xmlns="http://www.w3.org/2000/svg" x="4" y="-3" style="font-size: 14px;font-family: Helvetica;" fill="rgb(0, 0, 0)"><tspan xmlns="http://www.w3.org/2000/svg" x="4" dx="0" dy="14" text-anchor="middle">7</tspan></text></g><g transform="translate(60.5,17.5)"><text xmlns="http://www.w3.org/2000/svg" x="4" y="-3" style="font-size: 14px;font-family: Helvetica;" fill="rgb(0, 0, 0)"><tspan xmlns="http://www.w3.org/2000/svg" x="4" dx="0" dy="14" text-anchor="middle">2</tspan></text></g><g transform="translate(60.5,57.5)"><text xmlns="http://www.w3.org/2000/svg" x="4" y="-3" style="font-size: 14px;font-family: Helvetica;" fill="rgb(0, 0, 0)"><tspan xmlns="http://www.w3.org/2000/svg" x="4" dx="0" dy="14" text-anchor="middle">5</tspan></text></g><g transform="translate(60.5,97.5)"><text xmlns="http://www.w3.org/2000/svg" x="4" y="-3" style="font-size: 14px;font-family: Helvetica;" fill="rgb(0, 0, 0)"><tspan xmlns="http://www.w3.org/2000/svg" x="4" dx="0" dy="14" text-anchor="middle">8</tspan></text></g><g transform="translate(105.5,17.5)"><text xmlns="http://www.w3.org/2000/svg" x="4" y="-3" style="font-size: 14px;font-family: Helvetica;" fill="rgb(0, 0, 0)"><tspan xmlns="http://www.w3.org/2000/svg" x="4" dx="0" dy="14" text-anchor="middle">3</tspan></text></g><g transform="translate(105.5,57.5)"><text xmlns="http://www.w3.org/2000/svg" x="4" y="-3" style="font-size: 14px;font-family: Helvetica;" fill="rgb(0, 0, 0)"><tspan xmlns="http://www.w3.org/2000/svg" x="4" dx="0" dy="14" text-anchor="middle">6</tspan></text></g><g transform="translate(105.5,97.5)"><text xmlns="http://www.w3.org/2000/svg" x="4" y="-3" style="font-size: 14px;font-family: Helvetica;" fill="rgb(0, 0, 0)"><tspan xmlns="http://www.w3.org/2000/svg" x="4" dx="0" dy="14" text-anchor="middle">9</tspan></text></g><g stroke-miterlimit="10" pointer-events="none"><path d="M 45 115 L 45 5" style="stroke: none; stroke-width: 0; fill: url(#rough-2034775956436683);"/><path d="M45.329723212692045 114.26583402282365 M47.04537072589906 112.67992911476652 C44.90158664039352 79.76959490758959, 45.97783924983244 42.172864649924755, 43.49192134133456 3.1627135876151984 M46.19088174352155 113.36861888454335 C45.89468388521518 87.88694410011809, 45.16293520233609 61.087721663229615, 44.59184005140702 5.727725616868908" style="stroke: #000000; stroke-width: 2; fill: none;"/></g><g stroke-miterlimit="10" pointer-events="none"><path d="M 85 115 L 85 5" style="stroke: none; stroke-width: 0; fill: url(#rough-2822549505258863);"/><path d="M86.89401907585463 113.90323294109308 M85.95095692140946 114.39339917051997 C88.09869660445354 74.81674099586353, 86.21374653285541 39.51840746933029, 84.24620864000494 4.336210571445741 M87.08901890568782 114.06872963900105 C86.79394989417752 88.01956975228552, 85.00242422991485 61.9836940084464, 84.29930071357145 5.095891684394899" style="stroke: #000000; stroke-width: 2; fill: none;"/></g><g stroke-miterlimit="10" pointer-events="none"><path d="M 125 45 L 5 45" style="stroke: none; stroke-width: 0; fill: url(#rough-4255706028034127);"/><path d="M124.53782732863527 46.9029919914373 M125.06655172850306 47.97048220337923 C83.34030313121134 46.5471645479423, 42.18837534191316 46.955087656882064, 5.7475400701055595 43.03902340100421 M124.68797000875671 46.80616601394059 C95.57478922863638 47.79802162877934, 67.75903376145108 46.1868908455304, 5.377329996700647 45.143203783371334" style="stroke: #000000; stroke-width: 2; fill: none;"/></g><g stroke-miterlimit="10" pointer-events="none"><path d="M 125 85 L 5 85" style="stroke: none; stroke-width: 0; fill: url(#rough-8507048370416247);"/><path d="M126.78520363544855 83.30758721279511 M128.5074871428855 81.66740606041618 C100.86087665766243 84.9999217262617, 71.93676204504864 83.97540262166824, 6.405886805818881 84.88415013070973 M126.55400505859332 84.1276641156949 C95.22679815313502 83.58027592880983, 64.40558933247519 83.34720302185957, 4.210287324660376 85.4965307436394" style="stroke: #000000; stroke-width: 2; fill: none;"/></g></g></svg>