<svg xmlns="http://www.w3.org/2000/svg" xlink="http://www.w3.org/1999/xlink" version="1.1" width="524px" height="252px" viewBox="-0.5 -0.5 524 252"><defs><pattern id="rough-8335809813169723" x="0" y="0" width="1" height="1" viewBox="0 0 100 100" patternUnits="objectBoundingBox"><path d="M7.533236816817462 0.38113208538719 C5.922949498621553 2.470378526386874, 3.6152927849471053 2.453515693862749, -0.5601051576472259 8.086578251604914 M7.197223893499904 -0.44443794251101365 C4.575710254178591 3.413277321075898, 1.2844319344770745 5.957562801257581, -0.4360251960309841 7.349930951861225 M18.883489788352982 1.1610905980874477 C12.80750276060906 4.364203545751716, 9.421738276360177 7.538388535069984, 1.2810157415944197 21.51473262478148 M17.21638508940186 -0.12814943787912503 C13.333326554905302 5.457046747352491, 7.698807334910967 9.657426691646515, -0.8488469256973041 19.45425792948362 M26.868460126936696 0.4835542108967994 C19.61267614325185 6.950333035714881, 13.8101911712844 15.966189215364503, 0.6261341669700373 32.29339070383216 M28.215316408819312 0.3716748352181569 C17.024456225485377 12.861938600772211, 6.514161579565691 23.6056354697938, -0.8187147577428497 31.918057640233055 M39.26445960261091 0.9369196921392691 C27.0347782360044 13.23942327019256, 17.70335319717189 24.254386557988017, 1.5601576338236338 43.17986693768375 M39.3596547668548 -0.6849422860367844 C25.90333848984645 13.605346474948451, 13.432886769034601 29.541579703524715, 0.00830207554430773 44.22059438854636 M49.996699352647084 -0.5366136432097193 C39.84003688355624 13.251925100311986, 27.284263035832176 23.051177533726136, 0.2307885236408369 57.12763437497014 M49.98226057905935 -0.47853474649895666 C34.93348438571154 16.335061611949246, 22.342149794335583 30.7259973855358, -0.1817398101399803 56.487633871900556 M58.53662392676268 0.8783249170928276 C37.86445392452862 24.07564429654271, 21.427004445565867 46.2226199737434, 1.5876689774068797 68.00977073948734 M60.46315741289822 -0.10866582684320658 C46.56947985799706 14.98146776109988, 33.26785004489982 30.55868026583725, 0.5825344039025904 68.41485755426146 M71.91742338024278 1.5035785467082228 C43.894754093251564 29.500919679006042, 18.763889408439336 58.45314880542073, -1.8843113010893866 79.24489316129974 M69.79027021579078 0.6319473456751314 C44.381698664845445 29.728791921613567, 19.572572736475006 58.03772506859534, -0.4329228615199123 80.08767895919995 M79.00388150168074 -1.2178422148385648 C57.961682770192816 26.29197204758646, 33.72022091898253 53.66322606481118, 0.5695978420293093 95.04863624381356 M80.56309526252407 0.02239974810838552 C59.872771202411364 23.21407720794374, 39.28841259794208 45.360033244382514, 0.038339898651608806 93.31817357327704 M90.70105766593201 -1.3231235844647902 C63.89655736368673 33.49020639814708, 31.349289338613218 69.916512718642, 4.001551693805961 100.94015119127313 M91.99462519755349 -0.5144692421434613 C67.43447979286991 28.443464841506447, 40.82942607836643 58.046571472733305, 5.3358067133805065 99.45080162576697 M101.29267705056078 3.843882103855478 C71.8961586588543 35.268119978866615, 40.03923195617773 72.86925491570078, 13.788412386571885 100.73833667492927 M99.3338504384746 2.4593980507562336 C70.2768331815878 36.46664062637399, 40.09310413180078 71.78121257490524, 14.911218579297731 100.74763189929612 M98.73640305186399 14.258255893972708 C74.87083404531482 46.857635598118236, 46.789894990769845 74.62695591430472, 23.94879796418438 99.81527403469023 M99.71187933233806 14.506671980672092 C83.1892612588176 33.688936910474794, 67.1278609528283 53.05041875967145, 25.537160432657494 100.6659620953403 M98.91663580545526 28.5689929029994 C84.94384814986793 47.2190309748417, 67.49526460630814 64.35129706411064, 35.1662395279952 99.58261035352722 M99.51009928290856 27.719236230835538 C74.31296126120522 55.99275346049385, 49.04632537527417 84.92314494665648, 36.716194577942304 99.16871095528404 M100.09455952396146 38.15657865635683 C83.03261874006974 60.00664239105115, 68.43875292684346 75.1527405270392, 45.2866168426455 101.2066238955853 M99.31395270552113 39.887434768052294 C80.03238250179277 60.82738255851747, 60.91507972933086 84.93484172999867, 46.07620399970052 99.30081488031186 M101.40879959729587 52.32662442574783 C91.2615584994331 63.00552921384396, 82.02455762923007 74.0839806563399, 59.25041924306396 101.68575494537814 M99.49337159973433 51.05956599211669 C89.26953653642711 64.47028501772918, 78.95496632342399 75.37992738546804, 57.59561795175709 99.36053877978186 M100.71945091579056 62.203774300410274 C89.68610513831874 75.69913469154459, 77.07805031981586 88.1303575966588, 68.96267881100563 98.2540225534806 M99.76594226748233 64.29972582397929 C88.86354583816092 76.49230200162143, 78.37034596231751 88.88819680366274, 68.21223629802465 99.08052861985165 M98.31224813352875 77.65616839317985 C95.57372432420036 83.05121426281714, 86.53755128608 90.37846958957525, 78.47524342392516 99.50770437545678 M100.72169523214237 76.54610247810963 C93.24768602620325 82.88222214424579, 87.4033620346301 90.97270641427342, 79.30252663722173 100.27258824053688 M99.47895317003511 88.27274087372257 C96.80519815251814 90.52093675357438, 93.75237785301891 92.17624133376357, 90.91950995924392 101.00072840172855 M100.12732868351239 88.10597073930627 C97.01898629320316 92.59164535013782, 92.81536030351603 95.72614620496184, 89.19330417507369 99.52001209811513" style="stroke: none; stroke-width: 1; fill: none;"/></pattern><pattern id="rough-4290903200518149" x="0" y="0" width="1" height="1" viewBox="0 0 100 100" patternUnits="objectBoundingBox"><path d="M7.213575193301369 0.15313251151155427 C4.043435745729075 3.287105331470422, 1.9031073807486039 5.370897257699206, -0.9331797279173715 7.704001005942598 M6.787780896765178 0.4938596421919601 C5.845755372353599 1.1190776903532276, 4.10811370822254 3.4122691461667376, 0.2234075148535427 8.05374692188544 M19.152365835991112 -1.754190740935683 C13.89723920499198 5.273750172406074, 8.756561849599827 12.060318219223628, -0.6859735400168585 21.65513106147424 M16.47246192771929 0.7068302942123696 C12.984474663271694 6.1706371259268415, 7.965656717844201 11.387725013193897, -0.9072829237671236 19.51969132112767 M27.648020259550307 0.946890351990743 C18.97143548958321 11.349165988571137, 7.417912939185594 23.69574139995619, 0.23251498969937412 30.603945921473507 M28.218627597863257 0.6286024166500774 C22.773812620728762 7.273671978753524, 15.811314652051207 14.142613818823799, 0.8880033851677207 31.98935370036948 M38.608740200228155 0.8859538042444148 C31.10708189500039 10.210315809374638, 21.98826958702783 20.58920809396365, -1.5652176140804466 44.92814188311103 M39.330915821203696 -0.2819273780918663 C29.826085133377934 9.595495388951667, 20.521337087809627 21.572451342339754, 0.3879839269672818 45.308431391502 M47.371816216027085 -1.729691089742115 C37.52200322966389 16.331616964156435, 21.313590574151426 30.272002597724242, 0.549369680263414 57.67972281206469 M49.321176959228794 -0.350467906321017 C37.58329006543548 13.037985052379067, 24.04210055425038 26.849729229721717, -0.864406826734414 57.44011323752696 M59.220451171467616 -1.0418645507160118 C43.40025256574453 18.16357371839355, 30.39711038064128 35.286255819179445, -0.06246364931571691 68.45191933738033 M60.68240626315352 -0.4051195360664872 C41.21985945649498 20.72867367960139, 23.95529995458434 41.69308275245042, 0.13383490956180033 68.64961662187895 M72.13801306458149 -1.4359233849711543 C54.28722070049827 18.64750820386837, 41.733038713684586 35.81595104281291, -0.3895018776324193 80.07240584647458 M70.59973304115687 0.9285710004460777 C46.115973864635215 29.262947916375353, 20.73877420656384 58.164931960765905, 0.7414557427923345 81.45353125089531 M81.06686982394523 0.6064994482084325 C48.278757015626134 34.98776420836984, 19.339170455615776 72.85346159920891, 0.12658789720598485 94.0345243695982 M80.05893329838835 -0.6882018232835203 C64.11849266079504 19.809012465635327, 47.70648847263532 37.6367828106081, -0.37944991456329413 93.99530751568214 M91.98600452221791 0.3299155557978102 C70.16281230651242 27.307807041490967, 49.29654213615189 50.07512004179243, 3.0478450867588878 98.30248046704953 M91.40907851806236 -0.6970651624468647 C60.72902007720087 34.827375430665946, 31.317396760028515 71.1977644914909, 5.51669595635472 99.79321091970931 M101.50198634702299 3.7516064698264806 C67.41936272258424 39.710292503226555, 35.46781735720106 73.01747564785546, 14.89695768788637 98.96883633313654 M99.56945051445776 2.038758218554592 C67.45373333420362 38.88184011492569, 33.07863814080408 78.1161160357453, 16.184356457655092 99.06596906476447 M98.10901678643386 13.797591221852349 C72.49540657819367 45.62704017004992, 41.679041802716334 80.95220829237837, 25.652574791654605 99.97544868718377 M100.36485043924037 14.693319606924932 C73.00554665513855 43.20072948612596, 49.12153321011541 71.83262477009582, 26.50382408899348 99.82596513648649 M99.51294814177717 25.816237245095262 C75.85384718070665 56.321508636261356, 51.72610381666243 80.59011476937737, 37.29664883266707 101.4707132104208 M99.15613237913746 26.415279482043942 C79.78643358176589 49.7977250867413, 60.757158358175566 71.71540014622235, 35.70543532134268 99.4980688975404 M99.38444391641721 37.18035028050762 C78.40934654144449 61.939758631377, 61.81656932573613 81.94062715468235, 48.151925406376975 99.01361912286018 M100.02537912265254 39.810799055115865 C81.94967564901523 59.50610450573088, 64.3109185502626 78.71912737805617, 46.76514272138207 99.59327931620733 M99.2305575944081 49.380151399829984 C90.37344049110534 64.031608965694, 77.26919951412889 76.42947304993739, 56.531634962054696 101.47825414948775 M99.41971436997171 51.80702430357786 C84.15428764085486 67.32426878325289, 70.09339285833404 84.73797507868876, 57.956260693546234 100.03429298040405 M100.16233660976692 62.32001916946884 C92.34900663525192 73.5305417584026, 81.85617283618174 83.05568655041876, 68.07945650632554 101.66922660730255 M100.93045997629608 63.55066144733742 C88.68935177121604 76.00708182958039, 77.97517583422926 88.35028553650534, 67.28519252539913 99.45793869649843 M100.51011411006036 74.23129537048109 C94.60132712214258 84.47390141713848, 88.74344519540966 90.9592105985529, 78.47867583281042 98.97083271290936 M100.62947680206813 74.79699253913428 C92.23121499502841 84.96487581043918, 84.53125164987026 92.86324673398815, 78.89962454191104 100.98512737261369 M98.55740492268721 86.62808997262107 C98.26551195831036 91.02451139567104, 94.33327593591301 93.17175682735662, 90.47868766956965 100.81100401060549 M100.50283144978775 88.29940590649001 C98.20640677767697 90.26587864268662, 95.65823874376619 93.43503513339303, 90.20277972421016 99.37133010451745" style="stroke: #000000; stroke-width: 1; fill: none;"/></pattern><pattern id="rough-7855947721553703" x="0" y="0" width="1" height="1" viewBox="0 0 100 100" patternUnits="objectBoundingBox"><path d="M7.711450733192685 -0.23957763316603897 C5.723849761598919 1.9894710421018404, 3.0745625230839924 3.627706656136774, 0.26636673136932987 7.803475728941856 M7.308214436852634 0.026021853780900273 C5.451557917079656 1.9959712205196518, 4.151393255039916 3.417122006742623, 0.2910658055164157 8.012904131403047 M17.119856465404496 -1.5352561815960293 C9.946588305104024 7.668741867628823, 4.277107131693081 16.428060540586554, -0.2895539884403071 21.26578279028136 M17.891926360587554 0.2531798396751932 C13.847619787025138 3.5683730608272963, 9.370999436300984 9.413723790518933, -0.18891965607891237 19.678279768682177 M27.04740920058677 1.7019292361793719 C20.12977156774742 9.008122299666981, 11.911962255890682 21.988049021864775, 0.22305879535410078 31.936619379816477 M27.651935735145234 0.4565803414630367 C19.43369357429829 9.638370523460482, 10.481356692634044 19.942244026474484, -0.7898637547964711 32.08921644634726 M37.444634198489396 1.5051148291656578 C28.92729674349868 10.658257825688489, 20.639132349882697 20.87538660136073, -0.7954774729643788 45.99188472107984 M37.93625424494783 -0.1376158728577619 C26.418470353530548 14.131471592050257, 13.160994024388708 28.064632796558165, 0.508095128515814 43.80222686270863 M48.46193513795721 0.3747883966138579 C31.323021506476408 17.32345758990125, 15.943916562880041 35.48876479972017, 0.8429092644387062 57.080063386925275 M48.23014434491126 0.4671918937771955 C38.89221132078008 12.330652760236902, 28.11716227172884 23.4960583436368, -0.006242525597118576 57.13933311792002 M61.35349069869922 1.9500182210061157 C41.30908090911277 19.57963118041832, 21.952807380584858 43.31890586570555, 1.830817811727922 69.52272549324621 M60.07713350242774 0.292552658857562 C39.97573815036587 22.145583168180497, 20.33041243170519 45.018918340891894, 0.0851177071809075 69.56191596593878 M69.69602592197616 -0.9359248044294235 C45.20062685035024 31.14366909892036, 20.49105470097264 59.47037877964523, 0.35705208168762237 82.36318095273737 M70.09154044000306 -0.5061751513862109 C47.23786130473302 27.045734638665962, 23.82484239923029 52.360709951328154, -0.30073836246585284 81.4495966590788 M80.92300644157426 -0.060561898163880024 C58.82537320338257 23.56342549065971, 36.60312752339636 51.15620773530396, -0.6017261994501313 92.51624328765817 M80.25735656039231 -0.8768258227229833 C64.98066971047504 18.610597726667805, 46.86569969922417 38.695358595662825, -0.5848518223893229 92.41490273891043 M93.20096779113082 0.09543148282022074 C58.78012572979578 35.597446115516284, 30.809299746354007 72.62937197454978, 4.609569411055086 100.53043039471524 M90.95959353340207 -0.424935892472853 C73.94870717140607 21.636764287893772, 55.56218876558369 43.33641554519193, 4.672460365604037 100.32789184267398 M99.91505418537243 0.6368109607029613 C66.5750447307334 39.180623058592396, 33.64064796107823 78.58892263816443, 16.720303578512162 100.96376399629291 M100.36282491048836 2.538289618218837 C68.00265096011957 38.21647181789304, 37.79361302139415 72.27832093956148, 14.995607859660524 99.89571435002807 M100.31676915207979 16.107170908344052 C75.14258515948016 44.30774018415857, 47.92348471983127 74.09691751958024, 24.71784481983495 99.31952432103637 M100.61256567955039 13.904263366117107 C82.71394588247036 35.1339758368931, 64.26428165264632 55.450912111993226, 26.05652397971407 99.4133034991679 M100.3306521048961 26.302928824769072 C82.92353594161479 43.91169577193838, 68.78336162321793 60.57433750864241, 34.601030402911434 98.77266010091624 M100.90325712821145 26.707780671070676 C85.83519919404763 42.33147699058742, 72.65863605590245 57.979356564989914, 36.49715752143122 99.9116371389188 M101.80596402809348 39.22540114337485 C89.60573877282991 54.574898930013696, 74.02802268331708 66.57184491514235, 46.74508759022123 98.37151049640359 M99.38210925490367 39.65774723957466 C79.40252127213029 63.91553441426837, 58.726214274479425 86.6965860784409, 48.06639083685739 100.47585337880514 M98.70542439371255 50.65767625088784 C91.97188568460157 64.00650020053534, 78.81757943437216 74.45151391821433, 57.298814273149944 99.15629704737384 M100.87836067647524 51.571617142689455 C90.679747758637 60.78305058596413, 81.66406642921375 71.22688388117385, 57.44228726747904 100.33359182042972 M100.39110388172458 62.21412933965479 C90.25880358429819 74.94437958970921, 80.49702428537861 85.69132914215552, 66.6775642723967 100.58919823833278 M99.48528436439571 63.50231357400809 C91.66665202624034 71.62556013261855, 85.88511640954633 80.25399677085208, 69.13483231724722 100.47204654594783 M98.19733710673005 74.65797681244763 C95.97724984846832 80.87284799711813, 89.76694244987327 84.98950667062134, 78.52190744107118 98.56589496937394 M100.65604083778933 76.16103929560128 C94.61502055639501 81.8853702139937, 89.21387991226544 88.75634589558774, 78.28269035398247 99.9939744646707 M99.63319993147775 88.3794871995748 C97.225402796841 93.33372188701182, 92.24265406851256 97.31406374020148, 88.62836766943637 101.08129170836145 M99.76706767013877 87.9222751047619 C97.36598501118748 91.1421749301554, 95.34934287481076 93.42330162006138, 89.27046736256086 100.23075963222252" style="stroke: #000000; stroke-width: 1; fill: none;"/></pattern><pattern id="rough-389538200958053" x="0" y="0" width="1" height="1" viewBox="0 0 100 100" patternUnits="objectBoundingBox"><path d="M7.242886971884931 -0.025167751990368803 C5.336019248250407 1.390217214163688, 3.5347416799171096 2.6682284969901087, -0.3154480952504335 7.519726644290362 M6.6571892194891396 0.44229761859677663 C4.3760702054741385 3.1120855849488516, 1.5406411528698332 5.854760879220499, -0.4522611430166741 7.48000062361364 M15.832526633612687 -0.33718532030735293 C11.530216748141488 6.662762428369225, 8.39131040101998 11.744373499452754, -1.258574653614649 20.507905475350295 M17.138263008030876 -0.3305231422493118 C11.581776256187297 8.224936384347734, 4.9800290194087165 14.070452757613145, -0.7822392250280785 20.87269124453181 M27.63142920901078 -1.470137241565853 C16.878384243231135 11.830623730678335, 5.256971428770811 24.527134842691293, -1.280186431557854 32.30765174717734 M27.685368309207814 -0.34947395774101153 C18.792861413571803 9.742590608086283, 9.271420453643893 20.877278472264415, -0.11964990391102814 31.75131956829778 M39.85495950939245 -1.5681153274943043 C25.42382725404527 11.211208583158113, 14.412846954412835 25.51239850197761, 1.104385683190496 45.79534278338781 M37.920924360523586 0.1696844638249928 C24.66836325054718 15.036812186005807, 12.921909737494937 30.785196797686638, 0.8394358071265651 45.169062125430045 M49.735576007345436 0.5368183005001717 C31.177951929274993 22.117442730834792, 10.036133953551438 44.40935410808607, -0.5827149156215414 57.673991935858005 M48.80804606549383 -0.5784183681316746 C35.12841735760379 15.674532095427859, 20.85620918245074 31.650861226883194, -0.5629914835739811 55.946041688826064 M58.20415704801738 -1.5990854089836501 C46.17214559700075 15.809358734177508, 33.10787481819073 33.783553458005194, -1.097763764034065 70.78853501552194 M59.955734538267876 -0.1293330790122713 C46.2291016628876 15.745824255274247, 32.96642682973457 31.315863337345768, 0.19287663423990775 68.368798399381 M69.36986740576535 0.43372802224769025 C54.15417232093376 21.20130258311792, 33.21073209633875 40.33199101191643, -1.6720714931149088 82.30855824179653 M70.54412022927734 0.7955030809041563 C49.050965514045394 24.43715729745618, 26.884603282095323 49.89171715982756, 0.45083639571857503 81.19109045297333 M80.06745693245611 -0.045931728009700024 C59.01049448104243 30.428753089094382, 32.061543318892845 57.85873451826822, 1.0992346580455665 93.70726664504588 M81.10760094116449 -0.39587197558353093 C55.314895214411145 29.872205588390955, 28.735562461439223 61.69283345162192, -0.5966551298944034 92.63144387943808 M93.02733633266503 1.8747434054767638 C62.653162622193264 37.28528050976669, 29.313565813975334 71.13785554708831, 6.596205472184144 98.77160095418886 M92.52805917747762 0.7629482084624879 C58.46911902092561 37.68492922808226, 26.425370984086925 74.64964175070615, 3.754972893415702 100.65795169172173 M98.30835611831517 1.8086307926013863 C79.53465535484405 25.06595141452157, 57.920103504371134 50.09221738860723, 15.844898985127962 101.87322025701053 M99.04063337147352 2.0339880595810875 C71.53027025701364 34.129235565699084, 44.071008881325625 67.06542594346034, 15.629275269419352 99.00509544635754 M98.35843281259115 16.635891230512343 C82.75596836853616 33.85291089419263, 64.98262738652475 54.266178336013866, 27.84902769822956 100.668827768324 M100.3582091011776 15.41174309499775 C79.9840292151268 38.50018278432256, 58.88575562822933 63.63598798393963, 25.411602330311915 99.4420129595434 M101.55107788632083 28.829352503216757 C85.82742168465153 40.78377525488526, 70.96078182903774 56.36084930874929, 37.90629019021016 101.78857376381593 M100.74371581429635 27.14778569287702 C81.20472587438468 51.255608715672516, 61.910568561839945 73.78548926008223, 36.59150705122402 99.24678741971752 M99.6212156959016 40.65942622366174 C85.31979637152511 55.53069989915963, 71.99953364716862 70.2938685835842, 47.13486625462417 101.10805524673808 M100.71624874344934 39.72340983577422 C83.44091690799952 59.555427748121524, 64.89979461465522 78.62216582935795, 46.679388270037514 100.56758680548033 M100.47947610595482 52.283382583805974 C81.3838906072009 70.05221783417785, 64.94725235807584 89.92458294928853, 58.48700305833462 101.00248750782116 M99.04551877925368 50.709104862647585 C84.7711459181098 67.28412453893391, 71.14704355515653 85.5528352232816, 57.160910488564106 99.00519120994687 M99.89572735274716 63.13455122929583 C92.6384487807005 73.1550455851335, 86.28623391795048 81.27533572465624, 69.46874069971929 101.79972891137567 M100.3460700624177 64.46927224213977 C87.8007409213399 76.77654292795732, 76.0232459966757 90.58139786887311, 68.02679821143369 100.62917266036322 M100.63091442262919 76.6800904237882 C92.65343954727454 86.01315368170408, 84.90517586380369 92.95390938172036, 78.72245774236585 101.26662030811598 M99.08322455490354 76.1066986094549 C92.68758125938953 83.56469934640549, 86.35443747112292 91.16553441610557, 78.72315313435315 99.85916574530076 M100.68621706156408 88.23123391043475 C96.27497932836616 91.53876102400774, 93.2074973027032 92.76144837028099, 88.21511311545675 101.13318556349375 M99.81187167952314 88.15241119577207 C96.27028783996762 93.22015873534004, 92.36507515871074 96.48983143088878, 89.08806655955433 99.39200097566211" style="stroke: none; stroke-width: 1; fill: none;"/></pattern><pattern id="rough-8577624783047089" x="0" y="0" width="1" height="1" viewBox="0 0 100 100" patternUnits="objectBoundingBox"><path d="M6.433530390510841 0.9160501828480603 C5.1994753866420345 2.0733986438194822, 1.987159740706876 5.930373648304223, -0.7789243866479906 8.353162668080603 M6.731781032038335 0.4719651022376874 C5.132964713291135 2.140618128854555, 2.7786267147499797 4.379650725316365, 0.22984923472174368 7.342672989174561 M18.983075376541397 -1.9502021397318652 C14.093505077518062 6.992941689010282, 5.834632085867551 11.856845206546938, -1.0481596159340256 21.608154359242974 M18.117706398242365 -0.19968119225427206 C13.16708311393699 4.070869186554194, 10.789059502525705 8.53050065289931, -0.6586505459005223 20.757196838214888 M27.877329139574385 -0.15317412480290837 C17.99725288418389 8.872472607687959, 13.818105885808546 18.24148312019423, -1.442513698967514 33.921589320154254 M27.58302906979391 -0.6835874935184645 C20.00991130512254 8.432489515798924, 11.923932129159164 19.305347012381485, 0.8176137212437187 31.271847494153903 M38.62910662154148 -1.5647851462227784 C28.497113696271967 9.088296133529415, 19.219644263296054 20.739274592565344, -0.7151086969288682 46.33878238533774 M38.93575108271301 -0.7903904402113553 C27.36094464126298 14.667008305071453, 15.657200257551617 27.50492914359368, -0.6131068731272209 45.28920527579438 M48.536428421473154 1.7280371137338495 C31.895940477619856 19.055002641747308, 15.551860496509022 40.260849743076434, -0.2434004416978226 56.49518694183932 M48.648483992454736 -0.8415765467153284 C30.171253044840263 20.07972607868399, 12.932321043049134 41.55139502596587, -0.46982407575506135 57.202190492512095 M60.57338860591552 0.8362321965460966 C47.050614287036446 18.047473572988434, 31.788791870102465 31.247739820172736, -1.680232800287948 68.55819266462683 M59.17155344573691 0.07915793809782112 C38.172012344398276 23.449380758038615, 15.466532427693789 48.596751898320036, -0.876820115553703 68.65730839187387 M70.6910616005032 -0.8172541578374544 C48.40190560555083 25.83092701410982, 21.457974188334838 55.297619483227805, 0.8898865601052952 81.1875001115449 M69.74974530089933 0.10271945843375718 C52.338095467536164 21.632013609573306, 32.59138444986515 43.13552898112985, -0.1645502701675734 81.27297133716333 M82.98095708584054 -0.7157539875817855 C61.04504555613278 21.124207760758917, 40.8832102464689 43.6976624934805, 1.1373845130347382 92.55624799007006 M81.26196050031064 -0.5317955372948511 C60.691290119182725 24.032757990693327, 40.2576394137497 47.860638753670415, 0.41535707692826085 93.58290776192237 M90.48699117823618 0.6413643819638191 C67.89742253203553 25.519113436836392, 46.1673828333574 51.50102272932212, 3.0804725876888526 100.92392826749204 M90.84823613249087 0.4933170718426685 C74.24738737126863 20.987724627348484, 54.98655556173074 42.308819079832595, 5.4319317842549335 99.53417186131603 M98.66196854169957 1.2960212463526606 C66.83147783729211 40.299533918969466, 30.829047975154726 79.54603220230373, 16.267408479946994 100.21819194234304 M99.86907485036154 2.286370451717361 C71.01859004996827 36.44029126826554, 42.12715370245823 69.36013060673059, 15.812291959453596 100.00143445522602 M98.71788002120971 15.060007106231529 C82.82750977210063 35.25594477373435, 64.23972699431825 56.30301543900781, 27.81698852296704 99.22175666526513 M99.26337736398926 14.630277138509483 C73.1257045475582 46.15710980504, 48.42321955286718 74.34678264483229, 26.25286082635614 99.13168414839652 M98.35241130172473 25.11629674788339 C81.20649062190425 50.71386549434578, 62.71977498583772 71.81055371798556, 37.73408495375928 100.1252644523634 M100.94537205784611 27.489659836993393 C76.64609477202582 52.80355753791509, 54.00032939214963 79.19957835074567, 35.550237261954926 99.91591713704781 M100.4080590774833 37.265189322900824 C84.1582031508133 59.3633462410251, 66.179551762895 74.21311010138852, 46.56045657517649 98.25967704655096 M99.14920155847491 38.61829675543739 C80.56170242700217 62.41253051585774, 61.474644617981575 84.76691475277914, 46.184009343834184 100.7701702746071 M99.7163349158652 52.00255949875355 C90.4275513907931 61.61333510154174, 79.1099778983463 74.21756301468048, 59.63151044417357 101.60653053151485 M99.16606619607883 51.913559849945784 C84.77232045359439 67.8012727395512, 68.67129672526922 86.72208410505522, 57.66282779541071 99.44013961142855 M98.26303091730927 64.23231748482196 C92.13282059421032 70.56271946242649, 87.88124719521059 78.63330346817101, 69.51676519294062 99.04759435746763 M99.29258554600158 64.25654129427757 C92.16994958814117 73.04046833312246, 83.42642264932034 83.4155748755998, 67.91606393655395 99.2802576303613 M101.12655088125932 77.32193925838793 C91.67122271664637 82.75166367994008, 85.45190703027099 92.74383273805616, 76.97625481280149 98.07035133901806 M100.83966048003873 75.1109662279956 C94.36849136583817 82.90943355259684, 87.15367702519227 90.85415468117077, 79.77932917187704 100.98295043528731 M98.60979994503084 88.65022274032972 C95.44494381319171 92.01512309102459, 94.59965056546167 94.35863225061274, 89.78719349317291 100.5196453443068 M99.50574698391445 87.91087926367192 C96.1696429801365 92.06903427288765, 91.5836350854805 96.98463917842436, 90.20211298587188 99.60086803641474" style="stroke: #000000; stroke-width: 1; fill: none;"/></pattern><pattern id="rough-2410827431277183" x="0" y="0" width="1" height="1" viewBox="0 0 100 100" patternUnits="objectBoundingBox"><path d="M7.418746441489996 -0.204806300523952 C4.365217243582488 2.791000600540533, 3.6989606099153365 4.899145913260714, -0.0964350961275866 8.178786532985793 M7.036489920309077 -0.03597477616670969 C5.489278874598152 1.6328317610766419, 3.3403610761696285 3.7481370669921716, 0.5175616920741228 7.846876142107212 M15.603488188875097 1.6208443459857902 C10.447685993269035 5.88993881218814, 6.720841105360196 12.542830175828692, 0.5922474906582664 18.17076825102443 M18.191806174186922 0.9140211731408203 C10.748742958734054 6.0618876187983455, 6.169538897266294 12.600848373520028, -0.8035455378080205 20.474396379166254 M27.244486074212485 1.8445132979288283 C20.54366822042949 10.916062149642958, 8.251329487373447 20.462073698409775, -0.9199268959346458 31.128462517522827 M27.366327610267213 0.95557876426476 C21.13202232168023 8.654230834191145, 12.297480678764666 18.047743856824134, 0.19558145506425095 31.6986829360818 M39.92232562082707 -1.38369275068212 C29.55176839941502 12.870767273595774, 17.54726990732683 25.82434018656747, 0.5778850302275451 45.05446801253208 M37.714802346602816 -0.641552910532778 C28.97603526047523 12.654948049350953, 18.005527397410123 23.060643058793946, -0.7768702896242989 43.726966126986326 M49.48170430057722 -0.2926626660378169 C31.82322192114832 19.81836164273006, 15.842790913688077 39.47450795726863, -1.6635761340038675 58.5673320789073 M49.53212911284431 0.017361865016221056 C33.68517781848583 17.91789671147655, 17.806478254233088 37.22833483343166, -0.2778826604243929 57.359142351067916 M61.15623302658904 0.9686513276640696 C46.28329190775477 16.15321349792031, 30.888826868635874 34.161790023395525, 0.9757528456749691 67.12473156408792 M60.136251801446214 0.5577114103181411 C35.02042341562189 26.563351963023955, 11.8800254009205 55.01593620702442, 0.6069005932067797 69.78216378730913 M69.19971060143376 0.9243081738919416 C45.712136162169465 26.268097165176037, 20.264756820920823 55.07299238570566, -0.769148575674806 81.62319148236888 M69.72264869029804 0.4533746287970266 C47.05914061425384 25.626431966056796, 26.16391199739198 50.62261310505052, 0.6413770936635896 79.98480845403998 M82.9801244930808 -0.25131043632328964 C54.025861509592794 32.864210643750305, 25.41933498746863 60.366362842405394, 0.6452756800592443 91.78617129985909 M81.28226029328694 -0.7886798322291031 C49.19317822666867 35.9831224869751, 19.470743027455452 71.68810736366265, 0.4043852709444047 93.01875141866809 M92.32156719411577 0.3766385344305432 C60.31769489877602 39.39116673593794, 28.07873820088598 75.95111476009706, 3.8623250312764448 101.29081731836692 M92.22016000955004 -0.4523219119598272 C73.73775729469365 20.76778161673122, 54.74512651057266 43.457056639679934, 5.552045285206493 99.02816378214331 M99.65886546948255 1.7968751895377144 C72.24354645871685 31.426957923006924, 48.388121561958165 61.386625204954136, 15.23005974631759 98.16702458629152 M100.83932182490926 3.4507257261418034 C71.62900754524415 36.0851924744547, 43.139933669745986 67.9297619598988, 14.43862563462066 99.77902635646008 M101.16912527987455 13.168522074395991 C72.96112218329996 45.00943710736816, 41.61229647980041 79.82521113326429, 25.410504682955313 100.62654792356682 M99.93634721201302 14.390299889422542 C71.23969987135149 48.86483691948914, 42.38135241759141 82.395383378482, 25.793199194370832 100.10895101720766 M101.64988644208394 27.013501581893465 C85.40826994055541 42.10870807186295, 72.21360604104628 56.43148881318649, 35.4877770719433 100.35517723172183 M99.3589421810667 26.517661500018477 C79.68157877843977 50.52029833406405, 58.379086397553785 73.34004086782036, 36.02079886920463 99.94667859445696 M98.75911614324082 39.975710175270585 C84.38056998895317 55.97867079347844, 66.73182522863944 76.4580535385014, 48.947865190361036 98.2924322990928 M100.50161738740039 39.82841238764594 C86.16503538871765 53.79973372159028, 74.45916700229799 69.6090634824746, 47.70971953771995 100.01684357614123 M99.48448907940295 52.43069805234232 C90.82407366732295 64.62048519047228, 79.53479893279268 75.71522841030468, 56.37581996827136 100.9435984445222 M99.50222865931111 51.05522615427992 C86.42301663766582 67.15454262014073, 72.60208886329995 82.27518666841223, 58.311416756020904 100.37844243042163 M101.1470403217255 64.4696012452676 C91.72430498935 71.05693428510062, 88.5659276999999 77.55215370042112, 67.56801119530678 99.81223229593239 M100.25197272102471 64.1427314279141 C92.24186236132658 72.74403583133189, 84.72116397398462 81.61607569054986, 67.65153096476583 100.36358203213965 M101.67441077112564 75.90132540493046 C92.45245873698218 86.19833841204016, 83.50950503394898 92.56978880803509, 77.28561036175105 99.5769336673356 M100.49558120344918 75.29909700262989 C94.42324269193524 82.60228391131554, 86.59469162218198 89.46176891635048, 78.91120439929409 100.47621719430661 M98.62736539934347 87.3900798819382 C97.5175773122413 92.85062011571097, 92.90474467981122 94.9143669419016, 88.4726948720947 100.95133441489769 M100.62145498157473 87.8928403961788 C96.91445011082936 90.21596018544497, 94.9424559674087 93.66309515482504, 89.66638732882807 99.24389672479461" style="stroke: #000000; stroke-width: 1; fill: none;"/></pattern><pattern id="rough-2431643436287779" x="0" y="0" width="1" height="1" viewBox="0 0 100 100" patternUnits="objectBoundingBox"><path d="M7.756829310976334 0.45692528693193935 C4.490759285101306 3.6872278687051585, 0.5963158828332206 5.237431928580684, 0.07481714473181711 7.09943002468575 M6.347034659590072 -0.46672634385406764 C4.279504158198004 2.8497348310507946, 1.721318819411659 6.467751172657704, 0.2903490438513966 8.077154217641834 M17.578512148969725 -1.1880175728271318 C12.62353818733225 5.859908361306158, 8.7720735209241 10.803475414451075, -1.4447758796654888 18.640328772614254 M16.68230009846777 0.6170845961425226 C13.266209491438993 4.343067393542302, 9.267200917559595 8.255506681115323, 0.6853792627440329 20.20056961707685 M29.52964679719313 1.3366235298008808 C17.312212035821453 8.697202683636696, 10.773739000066733 21.670176188938413, -1.0734299127640696 30.425516148387292 M27.726825212009405 -0.8353534804926888 C16.07459206422356 13.763195507352854, 5.274746299020974 26.335474717785328, 0.32635972100231037 31.901442874929593 M39.6912751951252 -1.881094658102973 C25.81372224628477 12.626033372529786, 15.180273017599504 23.993418941160005, -0.3500473612248367 46.366741258344106 M39.30982568264766 0.25818660301798824 C28.26501059890688 11.534655043960239, 17.34837478600223 24.08085075618427, -0.5220018395133033 43.99150725289185 M47.87715135024174 1.524757452744372 C35.30182033190227 17.225132988142615, 19.462996809365983 36.42271242557032, 0.17087925405466198 58.45101733721292 M48.61712713321981 0.9194752768054668 C34.72017960721581 15.373767635676103, 22.215601186667808 30.4252908872939, -0.814400562980381 56.32922066922035 M60.798210320660004 -1.6526271033057727 C39.50211723837211 24.395644764899906, 18.012404496889317 47.67975094355512, 1.0197235744665178 70.50570255482826 M59.89894535513574 -0.5070455800072566 C42.280073399233196 20.92201440016856, 24.542923535131816 41.53106126548455, 0.1226795479260705 68.94299504777256 M70.26656383975984 0.1491427579705098 C57.05682554567716 16.76599882081659, 40.78280992982441 31.135449708260435, -1.926068290105822 81.9718384044323 M70.56802583848214 0.2800169432413897 C56.048088256666624 16.997304905828905, 39.61774254006629 33.082994322841664, 0.46040570111039214 81.75703805734499 M82.6568182051759 0.011300575712992256 C56.898424984321075 28.501605383240097, 28.48326778367412 56.25612615951239, -1.603735056930999 92.41103392361728 M80.68852216889645 -0.9751111293745645 C51.29283166933207 35.371330367107916, 20.15253501842525 69.3322734148142, 0.17431593964288572 93.78325196514751 M90.32272403480289 1.7469644485864766 C57.779393290475866 39.630944446046, 23.57036046164754 77.75598371490118, 3.5131840603980518 99.03289523212459 M92.14006735542333 0.9607044849580779 C58.51630787436018 39.766946646381605, 23.040162955741053 79.19917017479536, 5.535710116148335 100.08043334681764 M101.31523106955116 1.7646594343753188 C76.22383867401729 26.96847906580192, 53.90242066900343 54.565151222200875, 15.924199538405116 100.80912099172109 M100.47768610658488 1.7102289381257045 C76.35969843646602 29.63990560909299, 52.26833325777702 55.28539995694384, 14.55373798451727 100.43997185215929 M98.77006379586015 16.58587164501698 C72.53593536736142 42.717126689563486, 48.746304941176156 71.22309200888675, 24.51198644304123 101.96865179758102 M99.51367180266591 14.242561771179798 C75.23506633574851 44.59815923033201, 49.32520464710872 73.83814302592721, 26.203383967545204 100.33141043007049 M101.97942666538415 28.503760866774932 C79.52636963556142 49.44143930871294, 59.14128840882546 74.11858575657492, 34.7027757587497 100.23657819125444 M99.28354586945937 26.483055032348666 C76.25746542439158 56.109762261128445, 50.662204117346036 84.13517238760409, 37.40392706133018 100.72934692986982 M98.87993476858202 37.710565317224464 C87.43169444837986 55.42563970488074, 73.3055325109742 68.80065205482654, 49.06871345108565 100.2490570128956 M99.23024579489513 38.9589978373621 C79.08757610027294 63.171135258549064, 57.98127775793781 85.66160736777032, 46.22775728089155 99.14865136761784 M101.1177107201885 50.71295625731348 C83.78357270890402 70.47731682199753, 67.84361006246752 87.25702206889609, 57.05662795046931 101.27590319314606 M100.94207806505716 50.76044295205169 C83.87066749683338 69.47011195783207, 69.83686324812908 87.65067182853463, 57.770202365393324 100.83715482508678 M98.81053467339672 64.94442215530279 C88.20469579108239 75.28799132398836, 80.90709069835856 87.68525870777351, 66.52961020399927 99.03889745721963 M100.51424688615023 63.89479049070593 C89.45460249168448 75.55264538038652, 78.52302682822925 88.84585337257506, 68.5967987638827 100.4213473018713 M99.61901648861644 74.94872978529011 C95.80958468141107 82.05674481161037, 92.55700242738276 85.72445585824542, 78.94925735239622 98.78046929553759 M100.14602433093138 75.60495718062674 C94.88682905216518 82.52857772728076, 88.84990664565235 90.76500644797261, 78.93435222279837 99.6284338824201 M99.49463518505128 87.22873175669302 C95.98644262780626 89.7916379720205, 94.56663210144251 93.57334483162865, 89.12175073466469 100.06631421109488 M100.79036704200443 87.27316140626668 C96.17918886583898 91.45311155946732, 92.83278233780703 96.91666011906678, 90.21785519857522 100.30333758936044" style="stroke: none; stroke-width: 1; fill: none;"/></pattern><pattern id="rough-5642937862065507" x="0" y="0" width="1" height="1" viewBox="0 0 100 100" patternUnits="objectBoundingBox"><path d="M7.595392167295185 -0.727671433941588 C4.145008711936611 2.024798824730092, 3.3587842149625367 5.124618444928815, 0.4727061911626884 8.170884943244019 M6.464990926239205 -0.4836804130112888 C4.434305449236946 3.025837338459612, 1.3209044537486014 6.198291692015159, 0.4639327090423432 8.28321549671884 M16.205763803512227 -1.2133902198430668 C10.149698575985822 5.080344971630104, 7.706124941902867 12.224849262857518, 0.35417704229312186 20.860901723801188 M17.050378153185598 0.6041657233427111 C10.98110866610013 6.378468725260465, 4.479018702771136 13.85212968837046, 0.7071746687837734 20.91738755454727 M29.156058308206244 -1.3227566001905968 C20.236855872529265 7.9434500039669365, 14.458250671520766 15.723145584490233, 1.016962242628077 31.151092743142485 M27.151247825495748 0.21795161019599796 C20.124798724117227 9.861750239716557, 12.350709954160834 18.3829434779231, -0.18395303775310845 31.91662276634534 M37.19180972201519 -1.6107107332636303 C26.66523649052011 11.29037132229682, 15.73003378352422 28.04030772504748, 0.4972785296424398 44.9185947381964 M39.14477694608132 0.1368073515853636 C28.23857519978633 9.633163191318408, 19.141462560100216 22.300148228561252, 0.38545732919957176 45.19316520743463 M48.10678995593498 0.09935632810535644 C39.337884423015325 12.476372040068165, 25.901153165929205 25.519800820441148, 1.358474033093489 55.303662676388356 M49.390680012183076 -0.11963965363522222 C35.436322167284985 14.331688329042802, 23.365899163110107 28.985184133696873, -0.4036353898162188 55.89285243110407 M59.47201850973184 -0.7194685060040182 C48.056359606396434 18.224061642192126, 33.201258017096976 31.964156107601653, 1.6498559757991886 68.4794322042777 M59.12591179624574 0.21171150724958476 C44.44479749249597 18.12733914402416, 27.759193441822465 36.18785558923184, -0.1199830298259541 68.9560373217101 M68.62080435258127 -1.804734875384094 C55.69209038727472 18.444350573860728, 38.08849536710631 37.528639292867545, -0.28257181620810456 80.26773000968197 M69.72343512802045 0.08455006789220532 C53.33008773476794 19.085034335347633, 34.81800249813567 40.11694309612685, -0.8550475324570153 81.97960987530713 M79.6733555609045 1.5161257996848434 C62.58360494905266 21.586261217985403, 46.254122442098705 40.813784041398435, 1.0187796870810937 94.58330734762352 M80.53824225041963 0.8770673174002352 C62.107228005482405 22.451184924816456, 43.948670679999935 44.15784674188947, -0.7312234456187028 93.88457332253148 M89.81766587472273 -1.4684495609199457 C66.91293388466032 30.210389228075936, 40.525442198525624 60.62789219429888, 5.9029304599771235 100.96586041310901 M90.80649833998767 -0.04545964969513605 C68.28521988762157 25.41532026983657, 47.71857298411137 49.8291124598061, 3.8919080585278487 99.04819447284994 M100.66565872720729 2.712776308246638 C80.99835038940414 27.268727408407255, 60.295828463275775 52.38496861516541, 16.390163513855356 98.25467884070677 M100.75100158712559 3.181185554100743 C71.21347143899997 36.966226225585615, 39.402377682519266 73.11247713718642, 15.09264394666857 99.50919587437647 M100.56049698472052 14.500949051026113 C73.25966494594661 44.9461838122836, 44.99918416759942 77.61483601632652, 27.445350409397037 101.44020136540101 M100.54852040597525 14.297627056253699 C77.14015037461618 41.14739010008338, 55.17301571450174 66.8427345281596, 26.72910991674137 99.88067886623608 M100.36253994340326 27.941951098989307 C85.37751814331973 44.22077990650736, 73.2029054989288 57.475241613819044, 36.7501583103377 101.63536473688107 M99.4864361200972 26.9309272263382 C81.84395315120274 47.373904474369894, 64.55175756450313 68.25312302404842, 36.679836100144335 99.8895338872457 M100.8833205213455 40.58510589781003 C87.91488722770941 56.35422793268035, 72.94522542464813 70.05777276781951, 45.1662948715818 98.97370591525562 M100.9520093587907 38.89880195074047 C81.55932688671722 59.82216739709166, 64.03020584941672 81.50787081011056, 47.21473450569459 100.85285567022808 M101.45203928666473 50.773447114246274 C86.95059008888178 65.48916775720076, 74.68937468803631 78.16849012539623, 57.46807369250011 99.68725760742058 M100.95565562811983 51.13391428467352 C89.26087607120346 63.644033067217016, 78.95705335612139 75.63867879840299, 57.64383975373119 100.7594477854879 M101.79263739187225 63.47698269479645 C87.67807142054639 77.44980618117799, 77.3556759321383 87.66351508522409, 69.2538215677496 100.08729396816895 M99.36539193516971 63.374021806127885 C92.68127983514698 72.27381611352068, 84.27411076132364 81.74768380711225, 69.11032081225846 99.19594425978072 M100.29145932659281 76.05892659945438 C94.18498693396175 84.37679433162806, 85.59234263900682 90.12174047026505, 80.49530929768645 100.92002248295216 M99.47699355479482 76.11680158929444 C93.06531657641158 83.64030602895697, 86.83012977169085 90.43644440162383, 78.52688853909302 99.57688675977768 M99.49953277366673 87.02118939862386 C97.84942237027042 90.6189546306105, 95.3582673133516 93.37529081402538, 90.15840543974382 98.40126870115795 M99.86794197195553 87.46530376570774 C95.31512389207239 92.43904864737976, 92.01413698261932 97.03676359964656, 89.21433262994246 99.75694274703942" style="stroke: #000000; stroke-width: 1; fill: none;"/></pattern></defs><defs/><g><g transform="translate(229.5,3.5)"><text xmlns="http://www.w3.org/2000/svg" x="31.5" y="-3" style="font-size: 14px;font-family: Helvetica;" fill="rgb(0, 0, 0)"><tspan xmlns="http://www.w3.org/2000/svg" x="31.5" dx="0" dy="14" text-anchor="middle">went well</tspan></text></g><g transform="translate(205.5,233.5)"><text xmlns="http://www.w3.org/2000/svg" x="55.5" y="-3" style="font-size: 14px;font-family: Helvetica;" fill="rgb(0, 0, 0)"><tspan xmlns="http://www.w3.org/2000/svg" x="55.5" dx="0" dy="14" text-anchor="middle">can be improved</tspan></text></g><g stroke-miterlimit="10" pointer-events="none"><path d="M 269 223.63 L 269 36.37" style="stroke: none; stroke-width: 0; fill: url(#rough-8335809813169723);"/><path d="M267.1486445386655 225.21165767969723 M265.3279330606032 223.69197034273338 C269.9499352458627 175.30539148940423, 269.34404161506967 127.49603426748557, 268.69814623247106 36.84149339311327 M266.5951436473347 225.40320094796783 C269.95277967030967 175.1053428605924, 270.0422799698069 125.8722037086249, 269.7882087582779 37.19446366492401" style="stroke: #000000; stroke-width: 2; fill: none;"/></g><g stroke-miterlimit="10" pointer-events="none"><path d="M 269 228.88 L 265.5 221.88 L 269 223.63 L 272.5 221.88 Z" style="stroke: none; stroke-width: 0; fill: url(#rough-4290903200518149);"/><path d="M269.29414870848547 228.34145195938248 M269.9808131555441 229.03023444737303 C268.5725704046185 226.58485247888868, 266.5686554812178 223.86150313538636, 264.76368058810806 221.42810372470004 M269.3765670722188 228.38661944816042 C268.03556378941016 226.76402877121802, 267.0141961705197 224.73323239798083, 265.75650642546117 222.00383464651748 M265.58165688908014 221.80157775520453 C266.52762629159304 222.20588319206865, 267.1427752352016 222.61597212012603, 269.2785673359339 223.58831551709378 M265.31831335317685 221.94651268007382 C266.6939509122216 222.50956052416106, 268.1789414846198 223.12532637808778, 268.8565611028531 223.44348928623876 M268.78885330896867 223.859540884719 C270.05001674132353 222.81194736861428, 271.34175669497887 222.41188506696184, 272.3104982229745 221.98787507707573 M268.9328175896275 223.61224394322446 C270.21630710842726 223.12857427798355, 271.2173940585381 222.4784918793926, 272.312614522637 221.87894726249831 M272.7023659923524 221.70061018380673 C271.89836599805085 224.0083822180927, 271.35844892946255 224.43603239117215, 269.0739721357435 228.197847922237 M272.3436721431941 222.10296958620788 C271.50086092433213 224.0113181525276, 270.3277995731986 226.7121958433796, 269.4764870232561 228.14604540580953" style="stroke: #000000; stroke-width: 2; fill: none;"/></g><g stroke-miterlimit="10" pointer-events="none"><path d="M 269 31.12 L 272.5 38.12 L 269 36.37 L 265.5 38.12 Z" style="stroke: none; stroke-width: 0; fill: url(#rough-7855947721553703);"/><path d="M268.6798295430827 30.91302511212367 M268.42168972238136 31.48218125881303 C270.04381040704277 32.64575866397255, 271.54623263435195 35.7881846088107, 272.03809424217735 38.54973914766019 M268.3616351007365 30.52973932579596 C269.2800679060988 33.07389155642689, 270.81954694288305 35.011703067621255, 272.4608820605166 37.99561778171918 M272.47899133466603 38.45131728366777 C270.9742452966683 37.247787208011324, 270.1718559386079 36.514695766726, 268.88630797183185 36.21342459603503 M272.46751074783083 38.30275305994386 C271.2670034448645 37.53292353867263, 269.97851290697315 36.712954433564136, 268.8335728357263 36.320228032324295 M269.15305266461274 36.321537349381984 C267.92612430841217 37.078235208018924, 266.23941032477063 37.78468754495728, 265.30666003679966 38.50759662482587 M269.0816916964392 36.287763762135874 C267.8062254615485 36.85805232864314, 266.32697945885474 37.697851855617365, 265.4608769155372 38.04793243562737 M265.17999814133395 38.45536558205314 C267.10765476878436 35.37245124264918, 267.3545399554708 32.0764511770673, 269.3398747522998 30.314266481094016 M265.41650558978694 37.774250888327124 C266.0308647785145 35.60154850997459, 267.0821001205626 33.739183233497386, 268.8042291064594 31.28058882057014" style="stroke: #000000; stroke-width: 2; fill: none;"/></g><g stroke-miterlimit="10" pointer-events="none"><path d="M 94.37 114 L 422.63 114" style="stroke: none; stroke-width: 0; fill: url(#rough-389538200958053);"/><path d="M96.30233782929648 112.03652280608631 M97.67870230890644 113.71555926861897 C212.2021303208952 114.24938672231193, 325.6020570304704 117.42899810955872, 422.7988174510529 114.01250990433465 M95.89105920327579 111.96829090999672 C198.2977651557261 112.2572707449039, 299.45424167320016 113.55415489754007, 422.96659548620994 113.44632251068772" style="stroke: #000000; stroke-width: 2; fill: none;"/></g><g stroke-miterlimit="10" pointer-events="none"><path d="M 89.12 114 L 96.12 110.5 L 94.37 114 L 96.12 117.5 Z" style="stroke: none; stroke-width: 0; fill: url(#rough-8577624783047089);"/><path d="M87.35296678756305 112.59667376655042 M87.58811196049082 112.07920950851351 C91.12258700727494 111.82501225927498, 93.19465495055633 111.23176688687862, 96.28373679359636 109.81047960454552 M86.91962306684053 112.65190632058425 C89.95292216212717 111.91118666168873, 92.69382057353256 111.89341241025636, 96.48647863599349 110.85849455921507 M95.97066224023915 110.76159827857185 C95.69095591272253 111.67568012832126, 95.26702464344551 112.6641874125535, 94.76020009591713 114.07806743911051 M96.20108846970298 110.58280590646865 C95.37121934679823 111.6671282676769, 94.93978231632566 113.09719929089749, 94.43139355526206 113.95211633004199 M94.30194241917701 114.25215064735526 C94.93165164815214 115.47187192513044, 95.80620650017573 116.06674765198147, 95.97747866727298 117.46637688656877 M94.23231721779943 113.99000956860667 C95.08285172202045 115.03669065047447, 95.76129529845976 116.47638295017616, 95.96599453503252 117.58974511611453 M96.87914360226073 117.72717078632877 C94.51185884747588 116.65048534222731, 92.2768429388837 115.55041923970974, 86.86624985821354 112.45546525381246 M96.24490504390337 117.23826915069841 C92.85072137607534 115.83540631957415, 88.9590326922233 113.6533655536325, 87.49043787832113 112.36249830647326" style="stroke: #000000; stroke-width: 2; fill: none;"/></g><g stroke-miterlimit="10" pointer-events="none"><path d="M 427.88 114 L 420.88 117.5 L 422.63 114 L 420.88 110.5 Z" style="stroke: none; stroke-width: 0; fill: url(#rough-2410827431277183);"/><path d="M429.1389013038875 113.43714192452096 M428.7535065645674 113.36389496406882 C426.4092070837538 114.34502559029139, 424.6533854013595 116.29470303737443, 420.84417341705665 118.00581614687302 M428.90373973185376 113.46573552992034 C426.83794286534413 114.70842750370181, 425.2778102799511 114.91087363754293, 421.2272061515005 117.92559155734854 M420.5571804394432 117.70579329894626 C420.9059793855651 116.89590683210892, 421.29100409956516 116.0877682631232, 422.2482912696656 114.3408589327513 M420.9795955006968 117.49422001163887 C421.50497392293914 116.60519462469405, 421.65383405630513 115.35289241691545, 422.6881062723667 114.11675206308057 M422.5815412740664 113.69204025728388 C422.1284767849785 112.81599803664535, 421.23127796585646 111.49055451311168, 420.6005490260157 110.58015925879799 M422.79904426707674 113.89630948209623 C421.9525220011876 112.61804446805708, 421.2641016113702 111.49084514987645, 420.9209086147853 110.61578785945845 M421.5049890578164 111.28333038052051 C423.81725864540283 111.71858228305156, 426.03811037487435 113.0521524805046, 429.14537706390485 113.14042000022813 M420.44565073817944 110.48277652334251 C423.432213006108 111.67326168794673, 427.01933847663577 113.05668020397923, 429.0777334667698 113.65887889109041" style="stroke: #000000; stroke-width: 2; fill: none;"/></g><g transform="translate(280.5,61.5)"><text xmlns="http://www.w3.org/2000/svg" x="0" y="-3" style="font-size: 14px;font-family: Helvetica;" fill="rgb(0, 0, 0)"><tspan xmlns="http://www.w3.org/2000/svg" x="0" dx="0" dy="14" text-anchor="start">real-world example</tspan></text></g><g transform="translate(145.5,126.5)"><text xmlns="http://www.w3.org/2000/svg" x="0" y="-3" style="font-size: 14px;font-family: Helvetica;" fill="rgb(0, 0, 0)"><tspan xmlns="http://www.w3.org/2000/svg" x="0" dx="0" dy="14" text-anchor="start">spoke too quickly</tspan></text></g><g transform="translate(141.5,63.5)"><text xmlns="http://www.w3.org/2000/svg" x="0" y="-3" style="font-size: 14px;font-family: Helvetica;" fill="rgb(0, 0, 0)"><tspan xmlns="http://www.w3.org/2000/svg" x="0" dx="0" dy="14" text-anchor="start">good eye contact</tspan></text></g><g transform="translate(300.5,141.5)"><text xmlns="http://www.w3.org/2000/svg" x="0" y="-3" style="font-size: 14px;font-family: Helvetica;" fill="rgb(0, 0, 0)"><tspan xmlns="http://www.w3.org/2000/svg" x="0" dx="0" dy="14" text-anchor="start">didn't motivate lesson</tspan></text></g><g transform="translate(120.5,28.5)"><text xmlns="http://www.w3.org/2000/svg" x="0" y="-3" style="font-size: 14px;font-family: Helvetica;" fill="rgb(0, 0, 0)"><tspan xmlns="http://www.w3.org/2000/svg" x="0" dx="0" dy="14" text-anchor="start">clear voice</tspan></text></g><g transform="translate(330.5,31.5)"><text xmlns="http://www.w3.org/2000/svg" x="0" y="-3" style="font-size: 14px;font-family: Helvetica;" fill="rgb(0, 0, 0)"><tspan xmlns="http://www.w3.org/2000/svg" x="0" dx="0" dy="14" text-anchor="start">logical order</tspan></text></g><g transform="translate(103.5,177.5)"><text xmlns="http://www.w3.org/2000/svg" x="0" y="-3" style="font-size: 14px;font-family: Helvetica;" fill="rgb(0, 0, 0)"><tspan xmlns="http://www.w3.org/2000/svg" x="0" dx="0" dy="14" text-anchor="start">hand gestures</tspan></text></g><g transform="translate(190.5,155.5)"><text xmlns="http://www.w3.org/2000/svg" x="0" y="-3" style="font-size: 14px;font-family: Helvetica;" fill="rgb(0, 0, 0)"><tspan xmlns="http://www.w3.org/2000/svg" x="0" dx="0" dy="14" text-anchor="start">jargon</tspan></text></g><g transform="translate(454.5,96.5)"><text xmlns="http://www.w3.org/2000/svg" x="0" y="-3" style="font-size: 14px;font-family: Helvetica;" fill="rgb(0, 0, 0)"><tspan xmlns="http://www.w3.org/2000/svg" x="0" dx="0" dy="14" text-anchor="start">content</tspan></text></g><g transform="translate(5.5,128.5)"><text xmlns="http://www.w3.org/2000/svg" x="0" y="-3" style="font-size: 14px;font-family: Helvetica;" fill="rgb(0, 0, 0)"><tspan xmlns="http://www.w3.org/2000/svg" x="0" dx="0" dy="14" text-anchor="start">presentation</tspan></text></g><g stroke-miterlimit="10" pointer-events="none"><path d="M 54 170 L 54 170" style="stroke: none; stroke-width: 0; fill: url(#rough-2431643436287779);"/><path d="M52.60889276803735 170.3014779540723 M52.6728268274138 170.1749106489675 C53.09836429276073 170.23487433307594, 53.761091793619805 170.2029531413505, 54.02245275236232 169.98528944918993 M52.54992303156148 170.23700615367818 C53.105352858073616 170.24700695569808, 53.74426221061509 170.10099760569096, 53.986387611799344 170.06623658619867" style="stroke: #000000; stroke-width: 2; fill: none;"/></g><g stroke-miterlimit="10" pointer-events="none"><path d="M 54 170 L 54 170 L 54 170 L 54 170 Z" style="stroke: none; stroke-width: 0; fill: url(#rough-5642937862065507);"/><path d="M52.96474014605566 169.1796891929562 M52.96403743772549 169.08154014676637 C53.185135673040286 169.44088210676694, 53.35396075389432 169.5808050948458, 53.88676410557644 169.9446479591124 M52.952359309390815 169.13559306856567 C53.37232433036544 169.47648817333547, 53.722350752916654 169.68936422793522, 53.97286689430777 169.96004557032276 M54 170 C54 170, 54 170, 54 170 M54 170 C54 170, 54 170, 54 170 M54 170 C54 170, 54 170, 54 170 M54 170 C54 170, 54 170, 54 170 M53.9254735598612 169.97412760646375 C53.703302985629065 169.84241402135686, 53.241148090155406 169.36125742045576, 52.83345421792545 169.15006899315156 M54.036296249842884 170.06452333982253 C53.79498782724924 169.84589781702374, 53.530572484262066 169.6169684071797, 52.942772187018754 169.19726169683807" style="stroke: #000000; stroke-width: 2; fill: none;"/></g></g></svg>