<svg xmlns="http://www.w3.org/2000/svg" xlink="http://www.w3.org/1999/xlink" version="1.1" width="182px" height="71px" viewBox="-0.5 -0.5 182 71"><defs><pattern id="rough-7327370388667577" x="0" y="0" width="1" height="1" viewBox="0 0 100 100" patternUnits="objectBoundingBox"><path d="M1.4771896263497526 0.055222076314478896 C0.8471987571991138 0.6262016589468611, 0.6399841524973539 1.1075284602520061, -0.01131963587311735 1.9001973584836995 M1.5747052030856519 0.019013505233900246 C0.8868656553143306 0.5842112347511268, 0.31500847955468064 1.2829586401315545, 0.04645955768237184 1.6826177663996806 M17.99915183271864 1.146753422774089 C12.153767560235416 5.629683655580984, 7.885741894747556 11.012129662498722, 1.5673354118014684 20.22059256684782 M17.58681772051239 -0.9976781361862548 C12.80574256319781 6.183352662933136, 7.060670373470812 12.209435680569884, -0.29209565642026014 19.609258619545866 M34.454091095118066 0.9510545667265982 C25.07433522435957 11.349319496522178, 14.317942287162593 20.619996799505145, 1.3343603994537245 36.59092948516293 M32.31191753021413 0.13979690250018306 C22.84048746588893 11.472137671714783, 14.120888609236461 23.326444077063655, 0.7639899289998358 38.38373814225697 M48.39594591877028 1.3464307520228704 C38.789884089620095 9.811232471515412, 29.86974330549457 23.36638571818562, -1.6948555441891946 57.87579678242839 M48.4793361077303 -0.9554008998369743 C38.49356848760144 11.078115653787428, 28.683374159744677 23.619762717941196, -0.5083246902452161 56.87035835463377 M64.21058924918862 -1.7211805671002747 C40.73162229138701 29.741267415291148, 13.12892657957864 59.10318035618132, 1.7794092860965112 75.78786776696016 M66.0186019924046 -0.9014666052035802 C44.40388274314685 25.60101959983592, 21.812649012458063 50.96623297141574, 0.8366520860956319 75.61941187347333 M80.80999636534749 1.992426785270652 C61.97165544069516 23.59644059053514, 42.53090017796481 45.022212959400235, -0.3794189002979742 93.7117392271523 M81.52112629839756 0.40821226299464675 C52.70365363202219 30.165778519557907, 25.67771480403963 62.16689726550643, -0.6982901183265455 93.12205205896878 M96.58264138284741 0.5027482935359364 C75.56701639467443 25.332157214755465, 54.88110424637234 51.565476132196295, 8.650035635687185 100.9983671460398 M96.95861410256599 -0.020201695801778996 C79.77497133999667 21.171125737065054, 61.76576323604267 43.4815663309086, 10.499124018480357 99.5441501732009 M99.39457858353259 14.522448085677217 C75.76480485522701 43.89057115093202, 49.59120398794018 69.30925533739574, 25.067436176361394 101.72735554438344 M100.83881774948541 14.716305615336886 C84.56000595332117 32.51939193676061, 69.22678966142706 49.201799893120445, 25.926643083904224 99.16372068391813 M98.33255169067836 32.43885682847124 C83.28438819170348 51.330106878126905, 68.99739904920509 68.50807955186556, 42.94292394309532 98.2869337031339 M99.90756914013261 32.918886610681824 C80.28742355030049 55.363273740383434, 62.15635993925882 76.74445291480497, 40.94922986619096 100.59653073973399 M98.14833102307816 50.20894901960547 C86.58644381217927 68.31196561430298, 69.76347817879845 84.43178496010792, 57.15272596866415 100.43773012711146 M99.90075979013135 50.94898617253638 C87.37066147813393 67.21571115745766, 73.51839310299086 82.11640140910758, 57.70203466440996 100.91665930581209 M101.10021145873614 70.09559646768786 C93.50104085542532 80.71521048826962, 83.7246489117759 87.82830622934534, 73.13248093649548 100.1881105724985 M100.67006603316165 69.38705742748196 C94.23724573386238 76.89600622415185, 89.18001332056058 81.4263121121319, 72.62299627813957 100.24634107876076 M98.47293610820937 87.04298965928811 C97.22268667373788 91.92208763318719, 91.63521736623562 95.53020888973218, 90.22445727108388 98.68833877420272 M100.69281420748987 88.08234510814289 C96.32400369527191 92.49198043393893, 92.94201195514574 96.82674708712526, 89.02840719926219 100.554866514075" style="stroke: none; stroke-width: 1.5; fill: none;"/></pattern><pattern id="rough-6779615905895621" x="0" y="0" width="1" height="1" viewBox="0 0 100 100" patternUnits="objectBoundingBox"><path d="M1.289801616816337 0.15060381563034447 C0.9244358896588463 0.37810105339144356, 0.7935718165075618 1.076488420735247, -0.1859517673629203 1.9444280343889238 M1.5922357813031414 -0.0732084820820805 C0.9521320020190026 0.5788660427541441, 0.4370524164245151 1.0807487915838454, -0.019345447573570485 1.6739348446578874 M16.85093324532381 1.7262199453035478 C9.598573130651484 4.9398030582935, 4.1792205057318865 14.648633063369477, -0.5964431113905295 18.485549372377022 M17.41929679586727 -0.19712001311611926 C13.178394620257068 4.346763086026584, 8.174115866698907 10.02325368092574, -0.2518337866880662 19.02249301745377 M33.96651250656981 0.7604290876753854 C26.58947764693841 8.595151664925751, 19.03305121095861 18.51866929061211, 1.876558961902699 38.15623555326089 M34.27598502063891 -0.37057196311890506 C21.83358090581578 12.534391855768549, 10.816708149917147 25.56260918030692, 0.1293126613844442 37.48547611043977 M51.068903401576435 1.8921807687376857 C34.37559595976744 20.119901293090535, 17.525293859331985 39.51021154044816, 1.333533286394501 58.51011664752294 M49.89235452388914 -0.7280533352554928 C34.20912351343498 15.747626804637703, 20.236814911056015 32.390240127579084, -0.7687219890645185 57.31419953755819 M67.0098816598394 0.0473622698032834 C41.64367348958268 26.394661860885282, 15.236628591170307 57.6773863753067, 1.71335284201753 74.01117881081969 M64.37559702435824 0.1036792843147456 C42.999554033829725 27.183909326130067, 19.525018708917585 52.08780094397652, 0.24939583447456393 75.66649470381122 M81.55215928761314 0.9757514986580125 C65.48845482129069 21.360792742628455, 47.66893044909056 41.00428419925126, 1.4782873766176463 92.06708389198967 M81.61502746813157 0.11414419550530219 C62.14066204790567 20.450768421946556, 45.82511386109834 40.88489388765807, -0.7869919321211349 94.0066912527064 M97.85988364202854 0.3232400773797446 C73.71272796061874 22.518115535914806, 53.266041524192076 49.743625867506324, 11.478000309266212 98.93509399635218 M97.16719486450474 0.011832588158761759 C75.07195130591542 26.321479554131976, 51.7502913612719 53.864241298257255, 9.620868987087405 100.29380589825608 M98.63275322245481 14.521103705323782 C70.72104447934625 47.223582751283764, 46.879201431009605 75.78507060308418, 25.363388417244668 98.12382257263509 M99.62358096769744 13.819775633907206 C76.71273620556629 43.68004334519228, 49.989932114559096 70.65794984441972, 25.40557803205293 99.87970622221049 M98.7746548447027 31.130958674793472 C88.74027795876519 49.44664400561153, 73.8761405943179 63.41181486937698, 40.086171056072295 100.77020275757707 M100.9372772850715 32.06972516452227 C84.43457638010406 49.22752541652847, 69.4357063246856 67.6755268195691, 40.89494488566479 100.24066976529075 M99.40634744210357 49.35530786141313 C90.49260070525176 62.853125845415214, 77.39870580995193 74.90356702089693, 55.71644241978576 101.47003220318103 M99.0887503539215 51.910546988576066 C90.9791840664537 62.07075220359845, 80.25559899878743 73.18450343531059, 58.60094052015275 100.29674910947517 M99.38387509565113 68.59613506590603 C91.53107770356341 77.79168117922015, 83.82599071580313 91.66494241622392, 72.42215301821733 98.71514602078784 M99.16265925822348 69.22151126017359 C92.61700921060296 76.77860750411897, 86.85059514660952 83.16021677161594, 72.96766972697603 99.9345673450666 M98.61587964067367 86.53248519217581 C98.08434672876074 91.68299847368613, 93.7528740036935 92.4459633504594, 89.34489743058838 100.05074237466494 M100.21938238483811 87.96005733114443 C96.73288279416474 91.80966169905257, 93.53467191620021 94.81718718568118, 90.07708725034091 100.55968838848335" style="stroke: none; stroke-width: 1.5; fill: none;"/></pattern><pattern id="rough-7827780651431955" x="0" y="0" width="1" height="1" viewBox="0 0 100 100" patternUnits="objectBoundingBox"><path d="M1.543245474008287 -0.05209353186469598 C1.0440926163598458 0.6106282407410821, 0.38262835268889983 1.1637040885105814, -0.22702136404793535 1.8490070787807444 M1.514071001411596 -0.08924545953208485 C0.9018115833997704 0.6570134622551185, 0.4847220394146673 1.1417020783054703, 0.06486911057163547 1.8157134404648578 M17.944832361458577 0.8099309150644851 C12.249396741845135 8.78353894167714, 5.985937332825485 14.282995702325284, -0.3337318791885755 20.599896859640975 M17.233795607387066 -0.05131172637449133 C12.820519305762954 5.331227057295537, 10.015537704283156 9.391423625731171, -0.8208821036823668 19.445778792933368 M32.03764537227012 0.20894928023384995 C26.880611381629386 11.894469642289001, 15.621276596446222 21.04957171562756, 1.0245705262571443 38.66246884402582 M33.82539768059927 0.5869377657444712 C24.533089825838434 9.361489191675401, 17.67456326576685 20.31144926171372, 0.8440399401652567 38.75730002216668 M50.11121606807221 -1.6703400902618473 C33.88141581315706 15.072277797636506, 19.977059432835944 32.036040416804916, 0.07356629951820359 56.67687239177493 M48.64497172751403 0.9998603620666278 C29.022645401646432 22.935569093454593, 10.024503086098887 44.46499248498627, 0.16963377349722464 55.98134614435376 M66.01156486368625 1.7306210822949781 C45.49350952509034 23.903851141491124, 25.025942396131907 48.70475188653422, -0.16324099685781945 73.8361101818527 M65.894716728107 -0.7254068466668153 C39.47765783685973 29.993917321926098, 14.228959452501204 58.89807560018595, -0.7955661459496133 74.71392502817179 M82.09676871382186 -0.5361451920086546 C57.47208697221477 22.78763839764241, 37.03208858752497 47.62862673042173, -0.6773779245461933 93.54297983954754 M81.70757295354478 -0.8016399992942702 C52.70926384748498 32.3476936245974, 24.89316045749314 64.79706551060679, -0.685474682049855 92.43143726086402 M97.4966427593277 1.5774073705543517 C68.05375008463889 34.91413970904185, 41.47838921483327 66.32640424826184, 11.713763705210589 99.39500998828146 M96.13283111688054 -0.12588901821367093 C77.44633233530546 25.2656223112946, 56.983441561520664 47.748082510165524, 9.838793342965424 99.88996138198488 M99.89833957558709 12.983929844383916 C77.42485294315226 38.26953779491164, 55.45936937868073 64.46111286316827, 25.72485292140354 100.76876413825434 M99.32154179323997 15.114901777689262 C81.30299265893008 37.03571715581547, 62.00680382944504 56.92412893098965, 25.19708985526497 100.34640373627329 M98.3174441114865 32.538224404771 C89.1831759872858 45.71602919317766, 75.44232533557798 60.96319947939379, 43.4582409135028 101.88071373529978 M100.18034675823189 33.48602517128468 C79.38786464602924 56.87990790983123, 57.64043282472892 81.39066986358851, 41.30003263417679 99.18811603138889 M101.33827514319898 50.05382450611853 C84.0089754132572 69.57477874684699, 69.96786820585906 86.41948175770538, 57.81054830433058 100.64457388210039 M100.22940584737435 50.32010297676621 C84.02584344040311 70.06050908322433, 67.93633150554237 87.831281330352, 56.88153633444935 100.74735273858391 M99.87353747055145 69.3189687705081 C91.01037103895399 81.26886598844128, 82.2264348791681 90.07545792851539, 75.4568416977403 101.178822309959 M100.42652269085089 68.70592179550455 C94.15431510243938 76.12689701901762, 88.61430631967579 81.99763081591297, 74.4183350664349 99.21336088209628 M99.01669902376082 87.28720528949566 C96.6204027190067 92.19229546117676, 93.86219044848269 97.41174031314056, 90.72293804539875 100.68151619216857 M100.66205117769461 87.66883872880346 C98.14951074306101 90.00249908737828, 95.54425700595317 93.14965418762901, 89.08160385658645 99.85701250237787" style="stroke: none; stroke-width: 1.5; fill: none;"/></pattern><pattern id="rough-8317576296200737" x="0" y="0" width="1" height="1" viewBox="0 0 100 100" patternUnits="objectBoundingBox"><path d="M5.897677213765851 0.023565087153316622 C4.543020271000047 3.5557679980611314, 2.8501386907523427 4.611414057543147, -0.9284779176717247 7.204415577692505 M6.7592053351895665 -0.19887705850130233 C5.230086958485538 1.7519666506639062, 3.122683955475079 4.37613580075095, 0.11998958702017615 7.718011865573912 M17.08800920966572 -0.9343399515484956 C12.228073277189392 6.438294390786816, 7.47223202948799 12.756479096864915, 0.9353165405946502 19.451326619486817 M17.02893323486823 0.3664235524830177 C10.128162499026349 7.127487461840089, 4.576105180990428 14.749927455604741, 0.1223433646799057 19.36057394032153 M29.625802171047813 -1.5472761128512573 C19.134262832366993 8.989886106812387, 10.066943162831674 22.29762011434961, 0.8839262425559857 33.3093167533769 M27.601668065165686 0.6872253754804483 C20.121125392463863 8.436941669733894, 13.941986311425705 15.632422536256325, -0.3548580669597037 32.45281949401868 M38.41557908380983 -1.4785214377976965 C26.646712794729904 14.338175177316304, 10.227312335775714 32.02075890905734, 1.9346280077172278 45.114076518124925 M37.846841188730394 -0.6401853094398664 C22.695065805486973 17.725015612897785, 7.913708685346645 34.919712518508824, -0.40983318137181834 43.79683695701239 M49.148579998104005 1.5894737648679715 C34.90948749121014 15.960864298931952, 18.34913924794701 35.44267112761289, 1.9174851601081881 55.55397791973337 M49.118921443008496 0.45625074285791944 C34.359126963144966 17.08703669869169, 18.298545343816052 34.29072292950251, -0.02286134927578365 56.208502580862564 M59.02255153194333 0.5943966059039969 C40.557293472076715 23.230758420868025, 19.6937433750262 46.67261698648204, -1.5852110275270093 70.59494736992067 M59.68997898076039 0.09260286987476496 C39.47438930921815 25.306127227968393, 16.864719293863363 48.36300065856453, 0.8153151238653571 67.81976800179132 M69.50149049921899 0.8722465821820258 C49.67930920095742 21.859538046408563, 30.02085978979737 44.41908687632548, -0.3536908645593506 81.20958329430508 M71.39129455961518 -0.47807960429137486 C48.29300160965206 24.299895728039115, 28.00041174612281 49.13660164248339, 0.7240238640149421 81.07471942465898 M80.02727447024051 0.6485183947093498 C56.937989981437475 25.93720358291811, 37.87190164549934 51.02555700867298, -0.9156484366892723 92.28753783756139 M80.24389227960442 0.8171585926408347 C58.07619750262855 23.60661253248693, 38.36671796384692 48.09660897243544, 0.6999772036133218 94.17709306157052 M90.72100186959402 0.3299171663926286 C69.20093395366173 24.206622174753612, 46.8531985590871 54.38718313967073, 5.199967443837052 101.52773701150173 M91.82547156110896 0.8522421542023393 C61.95252183726824 34.7560488023747, 31.975839799934917 69.82778503727758, 4.574030775801107 99.66219844604461 M98.89215128639619 0.7537310018773598 C76.86348337283852 29.4730794363374, 55.54229618272994 54.01717811720806, 14.196267235744894 98.16535614937813 M99.42234089435105 1.6584996896203061 C75.00556570626074 30.259461762493228, 51.33837313732991 56.300119470533815, 15.655006337108421 99.30839147258584 M98.29380965155403 16.368757755416816 C74.95835604497084 44.79913383296405, 50.039958389386285 73.32672826015276, 27.368265442408948 98.58938462584342 M100.93620480052489 15.653476556215017 C78.95495342597745 38.70949460243426, 58.495155416024986 63.17319024556555, 25.679044329548965 99.42039738154128 M99.51269423858224 27.846000594010846 C80.24766208519263 47.2537537469323, 58.734944250711465 73.02069750099011, 37.81195788359969 99.28398722844517 M99.34001879760284 27.1427970297275 C87.57741275287256 42.18691626712339, 72.82441325440487 59.779468153547256, 36.95982492657382 99.71751605216447 M100.60368171344435 40.68015035006088 C87.6546228738169 52.40151841071769, 77.88658856126195 64.73881710945093, 45.52925442244522 99.30027516095583 M100.91490274199711 39.13145495838884 C88.59518690116155 54.04602801932363, 75.8349707531557 68.88902439747794, 47.1373817435781 100.72542756670363 M101.25347110942484 50.75585312510815 C83.40997322979936 71.87597819058665, 68.39609858145792 87.13636491398209, 57.87611989373068 101.81912970243867 M99.47132125975578 51.00893369278957 C87.53264293580908 64.32078486479864, 75.27609770546451 79.11484247287072, 57.778339764766294 99.77550808903726 M101.15329762196238 64.95367302084045 C88.5570296763889 76.63068689211487, 78.69818557219605 84.78785801310025, 69.85634025367173 98.482541247875 M99.86621845575235 63.03314383369019 C89.97913196981699 75.32539191598627, 79.88350742199717 86.34141190333608, 67.42225009386296 100.94755109440206 M98.81349419418632 73.82626409230802 C91.32983515587371 83.71247883893929, 85.89488209043293 94.45924866731497, 79.1948374402307 98.52702407477123 M99.2864617513799 75.32701071607228 C92.75473419411824 85.4276107532821, 84.58047390864179 94.80547986023002, 79.45684750964429 99.22580341227678 M98.69163552369933 89.3512744038071 C95.82580130178556 90.05674247442496, 96.27137165487564 93.6496616387436, 89.70413427951635 100.45318793174567 M100.17561551706899 88.45758244013136 C96.83583626283611 90.61595478547619, 95.31692826993222 93.45024518169575, 89.88792558564664 100.51284340892511" style="stroke: none; stroke-width: 1; fill: none;"/></pattern><pattern id="rough-445869199445981" x="0" y="0" width="1" height="1" viewBox="0 0 100 100" patternUnits="objectBoundingBox"><path d="M6.0661268669981885 -1.0338992062439099 C3.665401600665076 1.6590963921198552, 1.7924206813772892 5.754676164420409, 0.1396689709839951 7.256975546488449 M6.810680926281088 -0.5106904556881834 C5.183384788251059 2.042924603010532, 2.594849473529291 4.309163149601489, 0.04794802842314383 7.374534602921167 M16.319049577267158 -1.1783192884784208 C12.11226083951092 5.63620174879424, 9.554896136383302 12.099083901764821, 1.943436511157663 21.71259930200386 M17.883296953238574 0.6943079120166731 C10.162651828381895 8.556190363587215, 3.2778406762922083 15.237025714414859, -0.07047951160468457 20.126686110443323 M27.052857669488777 1.671914840552562 C23.115489162575336 8.330736506426526, 16.794576397286086 11.622732844430205, 1.3369278085600955 32.376934736349654 M28.322215140375082 0.409192084445841 C16.671082365179632 12.937405363265885, 5.845273184742594 25.84928383990167, 0.9590647311556704 32.53712696345623 M40.12415256305968 1.1195712580401187 C28.37191604983077 12.986637134157295, 15.0712661478005 28.02746605858961, 0.5305524113695581 45.71567484087297 M37.78257096255102 -0.7147346297089614 C26.747410146187228 13.763850672034705, 14.104138346261543 26.667202646517573, 0.8378640458873368 43.40938260181804 M49.60850370588445 -1.0819356194524028 C39.03810520722714 13.493343372124974, 24.288572104071495 26.220896993450026, -0.0838150484769935 56.286499353080686 M50.03190976578977 0.3388789444499962 C34.161265320964674 18.252144895526087, 19.568958731486333 35.66234658863248, 0.8034982264637498 57.0027183669961 M61.275982621486634 -1.3597282957346195 C40.462242965725764 23.6535811369356, 17.079215391760492 46.83284442537559, 1.2870686106270561 69.45310032071627 M59.230824911512975 0.530718644612354 C46.71496365513966 16.390061793786884, 31.64212153041312 31.301891071530378, -0.4948534594920546 68.77797837887556 M71.93105161084578 1.8910359989644645 C54.43522020088022 20.55983430200031, 33.30848460704875 41.24124500886501, -1.4094750713015838 81.98769396367871 M70.26097799320307 -0.3398228182502674 C54.785181606312364 17.559377093259176, 38.074210617017386 36.60262150566867, 0.8439690143587719 81.87107258775897 M82.850236186075 0.5965917049434504 C66.66752288997495 18.757480698278552, 49.316172032528726 39.78152189149556, -1.4587756565240202 92.94392424196344 M80.71355319838771 0.456412968786406 C54.99629511382317 29.5394526569969, 29.274684356310875 56.859486985075314, 0.3783022383802397 93.83071937468539 M90.63477605414604 -1.8439600242969316 C70.5765225987863 23.823308423145676, 48.009985029937 50.80175378310608, 5.034710950849001 98.74179980522035 M91.3337267222924 -0.8610231993338062 C69.31306107451401 23.79283114822527, 48.14919367688492 50.93229509301138, 3.671909413776358 100.44926604164846 M98.07156223410828 4.077489819651281 C73.16732210550694 31.373745055791858, 44.62487327639496 65.05510280477398, 16.591804911729312 100.85956839946914 M99.02343095074384 1.8379558166322196 C78.70331623251656 24.9670849258214, 58.470756040667155 49.50365084523923, 14.313022778278667 100.89461052375191 M99.97094701312322 14.432360157619863 C68.95165511646204 46.459877422076104, 41.51079506944592 81.56603721546736, 27.315003991299402 101.52614614721313 M99.94266155970425 14.358861004277683 C80.17864823888766 37.82479092372977, 59.95047263107172 60.20864868946822, 25.919820411081286 100.7130223540308 M100.23818618733615 27.173583128582624 C79.08428748067125 47.78161286836289, 61.79141504083107 73.648807100313, 35.97661663946964 100.73501535802717 M99.33120864985108 25.983467816386774 C86.02199206946356 43.1725076794866, 73.61784213436817 57.16495586076579, 36.04750535380413 100.18216814958352 M98.09806780867703 37.474568444679754 C80.78417798640932 62.89947038823482, 59.4734711447141 86.11767860910629, 48.54724796691285 99.01982089604249 M99.25512393452154 39.04066062984923 C83.93911704384426 57.79698949752413, 67.14849396822406 78.18018374481025, 46.96029736732088 100.53257730939559 M98.3920460245352 49.642861882274254 C88.48606595680552 60.805845469285266, 80.04153251459192 70.84366091224919, 58.06073393164665 99.9448413582131 M100.31149552423902 51.86888677064793 C88.03201130876315 65.07054905287335, 74.7505923309502 80.54800299080107, 57.24887910298047 100.41828450962652 M98.77744701312162 62.35246714249246 C89.01821175799711 74.51968180465231, 77.32748113155795 87.61094623177715, 66.90451402709851 98.58502580584187 M100.1970098869378 64.41599298446401 C90.42888169531797 75.15949461083257, 81.17481395985165 85.5663646109673, 68.31207726906547 99.8101178357866 M101.66772625955758 75.7799954249701 C94.62340805364465 82.25536341077931, 89.27723161558063 87.05101987838248, 80.21207273718244 101.40278944795408 M99.4381500250459 75.23451971328859 C93.77690438448174 82.99972834229749, 86.3228363577426 90.77083617915812, 77.93993464314669 99.53072254937072 M101.08565862085086 86.42689226154747 C96.49184753930643 89.35733487360935, 95.23670018083078 94.98680982435783, 90.80258931610912 100.74593120230978 M100.46202854739731 88.06973146073052 C97.86038026003914 90.58915494867526, 95.7415810158867 92.90021690798562, 88.9226793431588 99.33364973233223" style="stroke: none; stroke-width: 1; fill: none;"/></pattern></defs><defs/><g><g stroke-miterlimit="10" pointer-events="none"><path d="M 125 64 L 145.51 57.16 Q 155 54 158.16 44.51 L 161.84 33.49 Q 165 24 170 19 L 175 14" style="stroke: none; stroke-width: 0; fill: url(#rough-7327370388667577);"/><path d="M126.13374747592404 65.13713496324738 M124.97403231504954 66.2177428712589 C133.58141106068246 61.14719166945683, 138.268325599228 58.48829218328855, 143.9468516483082 56.96174623896568 M125.57991523991508 64.37311460886038 C131.8496021268528 63.6020371755427, 135.33670490487575 60.80982215291506, 144.92830731858936 56.656986084795406 M144.32320648939378 56.71232470164817 Q154.5614299609069 53.9021717876468, 158.33516190611184 44.52457426460828 M147.04251924907103 56.54669288566077 Q153.26836417622116 54.06115325538851, 157.41345626642274 43.178553307117596 M157.47818601148552 43.05654112579805 C158.33653460619158 39.16873355312544, 161.0513995209349 37.09102910020374, 161.26126935029075 34.186801623339484 M157.63720325887274 43.471900441881296 C159.22618072154742 39.66622090583552, 159.81634662146934 37.148036807796494, 162.13302668976036 33.29298951541083 M161.1029053937319 34.53227780604425 Q165.19240094368385 23.431567785602166, 169.14509073245398 19.393845146887053 M161.25348381582617 32.51266197620815 Q164.38617231699175 23.49183410825155, 171.22916498930653 18.76213145491676 M170.71026939025762 18.832301180668583 C172.341925706198 16.945117470758532, 172.99031053808173 16.022867752566054, 175.58009694445377 13.538458588254642 M171.2410140784446 18.927835731453587 C172.6881486819922 17.490252471116683, 173.34384804488394 16.02551553103216, 174.83798611109654 14.047431210834704" style="stroke: #000000; stroke-width: 3; fill: none;"/></g><g stroke-miterlimit="10" pointer-events="none"><path d="M 55 64 L 34.49 57.16 Q 25 54 21.84 44.51 L 18.16 33.49 Q 15 24 10 19 L 5 14" style="stroke: none; stroke-width: 0; fill: url(#rough-6779615905895621);"/><path d="M55.749033042292496 62.13473709710444 M55.23659827618251 62.07275539349339 C50.275948735288296 62.09365495517894, 46.35342614694412 60.55447192921019, 33.39548721485247 58.666407169234894 M55.89635861143249 62.12473419215712 C51.177884592087985 61.742601263433755, 46.98842324757254 59.12788168104436, 34.43966819490254 56.509245125152646 M34.39843117771271 56.439244234440174 Q25.358295337758356 53.11308563725481, 21.733796739329907 43.63841855272137 M35.34579251733111 55.997052789482225 Q25.283137410686674 55.54361107782522, 20.388967176191805 43.86760905865108 M20.990652939415604 43.76150768729355 C19.290418966895235 41.08275277025951, 19.339883768982826 37.41580546376632, 17.75431174858355 33.10385743035226 M19.921873059756894 43.65013416933512 C19.455873340830813 41.80040787585451, 18.839269791758966 39.286639140353365, 17.862196516829155 33.96102254555387 M17.901145284476065 33.02107293212505 Q14.010184225185888 24.102399764742174, 11.174887985359277 19.47051134934948 M17.89943194316185 34.82167090782883 Q14.35825797116075 23.462800667118287, 9.057226461772752 18.652391049185386 M9.396122532339477 18.5034759241552 C8.42056285998572 17.020310865507728, 6.379903554098431 15.915614121176503, 4.7644373051963 13.502189100791014 M9.184584580367007 18.42923698918684 C7.815078893120176 17.475209976252835, 6.62818296291551 16.227370620323534, 5.219463534860168 13.88509251902619" style="stroke: #000000; stroke-width: 3; fill: none;"/></g><g stroke-miterlimit="10" pointer-events="none"><path d="M 55 64 L 125 64" style="stroke: none; stroke-width: 0; fill: url(#rough-7827780651431955);"/><path d="M55.66422058576252 63.64688788259075 M54.78715456489593 65.5083218554393 C75.95911092681236 62.41088068886087, 92.79342197706127 62.89111058788143, 123.27017968817538 64.9817934418482 M56.25615489509116 63.3618886080249 C72.61753275652725 64.13439706989101, 88.11778387415593 62.33107070831478, 125.04592344802813 64.55660074145628" style="stroke: #000000; stroke-width: 3; fill: none;"/></g><g pointer-events="none"><path d="M60.5136514219187 3.237103910132896 C58.19280504411871 6.1206971418739755, 57.59106943562553 8.257682650523103, 54.39608157179305 9.687318356362232 M60.68894576260588 3.732493342558033 C58.280954856077386 5.859752481105796, 56.33264633552052 8.058500402369326, 55.19965206795047 10.149132065724578 M69.68478973970332 2.4366082627442545 C68.22358095973614 8.917075807861988, 62.651774317896695 14.053385561904886, 55.59798626244317 21.850460362421522 M71.58219991586515 4.654446079624641 C66.24272259356384 9.988293390610853, 61.14383850644926 15.628737096278472, 54.34639833879896 22.713508407233224 M83.12410585737535 5.201801709528994 C74.9854233003307 12.037785156284809, 68.55253331242137 19.879666335197044, 57.53640598400422 34.52054966451814 M81.84726451808925 4.997199311379438 C73.51677566496477 12.654042435470723, 64.90325323410234 22.673111157695352, 54.952057412706246 33.028240651051384 M93.04523424429632 4.9466569309505 C86.49876443696724 10.471503196261981, 77.1034274771942 20.005497331748696, 65.17157942337565 35.8199838573711 M92.92830315643691 3.847759846300181 C82.40071636286625 16.227559134482483, 70.97256074278862 27.9748610367676, 65.1674721289788 34.28058830406432 M104.37096116213662 4.070408789953232 C96.69755543401725 10.235421290567578, 90.22663081062846 18.560467544525114, 76.07191586973252 33.2914887803573 M102.77824453209375 4.235085095166626 C96.39761809316421 11.243996695262634, 90.36140936597474 18.39363306045736, 76.19321118880623 34.16370522455657 M114.37600724209821 4.673117239733389 C105.4536201277131 13.34059722942397, 93.87610823084337 26.29257193559306, 86.9383823190267 35.50712912064192 M112.80412296202665 4.561949748709839 C105.7076911313817 12.789776979961072, 97.85683393901301 21.84687345898987, 87.03782003828458 33.59623033256995 M122.03063239430033 4.591030553375608 C115.5994730114746 11.873163540242487, 107.6388600032444 21.018558086323075, 97.54486841780707 34.32722035010868 M123.64725757458727 3.3941405262658315 C116.411431677335 12.954886392915883, 109.70442367579658 20.942364778485025, 97.21083024113558 33.60849262939749 M124.06605337655608 14.41318000957784 C117.2993796003704 23.915310503350334, 110.89222116075577 30.872380054878946, 106.66858348538948 35.56227311981272 M125.36526870975145 14.96913937688786 C120.78094202944243 20.675196870647007, 116.25059898142314 25.617932200576963, 107.9496227528023 33.68628230967792 M124.18946957541532 26.891609496365895 C123.15198970656265 29.5127292956789, 121.2038656595706 30.170376519282346, 118.54843578219132 33.739413389753786 M124.82915919581119 27.10209935412979 C122.96682338588708 29.792427224726488, 120.69113060794879 32.25232021453946, 119.17350912772518 33.65569798664094" style="stroke: #ffffff; stroke-width: 1; fill: none;"/><path d="M53.2128667114191 5.72863776334217 C81.71071028205495 4.465826202590676, 109.34226836338041 3.965422082658849, 126.77435363275575 3.152535553705735 M54.352012993308385 4.2211696235874605 C70.0021930694574 3.4747249951457837, 85.02942864780562 3.925588910040602, 124.2280295705945 3.4326470808115883 M123.16064050708026 2.3768550403198816 C124.96809010281699 11.916550926447389, 126.50046471356136 20.15484586197671, 126.51571574960334 33.06874054803481 M124.90758632817406 4.236174844657711 C124.8759353050376 13.983439131446763, 125.70469174394873 24.077265069773674, 124.97449755797294 34.100607990181366 M124.523274361748 34.197650767833025 C107.22125109728132 34.930746356617306, 90.27033469421482 34.62764885353645, 56.47389034352919 34.05762667706941 M125.42643242916886 33.835817318621025 C102.2965265076339 33.434457917957204, 79.50623433427783 33.15252347399324, 55.6338135962787 34.92697007471379 M53.91711456500351 34.894122128324305 C55.8310679125601 28.643153118094403, 54.17925964427756 22.3444227482852, 54.689189627381595 4.11453151124556 M55.91913227781539 34.88721844879133 C54.51618938782692 23.265269717368806, 54.836513119777884 12.436537797707194, 54.72864100985426 3.062909514153738" style="stroke: #000000; stroke-width: 2; fill: none;"/></g><g transform="translate(80.5,11.5)"><text xmlns="http://www.w3.org/2000/svg" x="9" y="-3" style="font-size: 14px;font-family: Helvetica;" fill="rgb(0, 0, 0)"><tspan xmlns="http://www.w3.org/2000/svg" x="9" dx="0" dy="14" text-anchor="middle">ice</tspan></text></g><g transform="translate(92.5,36.5)"><text xmlns="http://www.w3.org/2000/svg" x="17" y="-3" style="font-size: 14px;font-family: Helvetica;" fill="rgb(0, 0, 0)"><tspan xmlns="http://www.w3.org/2000/svg" x="17" dx="0" dy="14" text-anchor="middle">water</tspan></text></g><g stroke-miterlimit="10" stroke-dasharray="6 6" pointer-events="none"><path d="M 10 19 L 55 19" style="stroke: none; stroke-width: 0; fill: url(#rough-8317576296200737);"/><path d="M9.115602609293362 17.780083548544063 M8.647373206865945 18.36866732859137 C21.837045809482557 18.848993542302996, 37.57450006009961 20.645733940078035, 53.221623781445984 19.87767011559911 M10.025068946157191 18.07398232569883 C18.258865345705168 17.330348535794936, 28.043155001384456 17.45002321962418, 55.959433473759724 18.671848910000673" style="stroke: #000000; stroke-width: 2; fill: none;"/></g><g stroke-miterlimit="10" stroke-dasharray="6 6" pointer-events="none"><path d="M 125 19 L 170 19" style="stroke: none; stroke-width: 0; fill: url(#rough-445869199445981);"/><path d="M126.92371656871734 18.855275322753226 M126.26423703950641 19.90592978733025 C140.57596066356905 19.329178021015636, 157.37614996868024 18.49989769320398, 168.29448348028095 20.23892743708388 M126.81596428113967 18.974521584479394 C142.5621072582192 18.216105994562714, 159.87490262282768 18.214620485545183, 170.69158128795976 19.67085869292607" style="stroke: #000000; stroke-width: 2; fill: none;"/></g></g></svg>