<?xml version="1.0" encoding="UTF-8" standalone="no"?>
<!-- Generator: Adobe Illustrator 12.0.0, SVG Export Plug-In  -->
<svg
   xmlns:dc="http://purl.org/dc/elements/1.1/"
   xmlns:cc="http://web.resource.org/cc/"
   xmlns:rdf="http://www.w3.org/1999/02/22-rdf-syntax-ns#"
   xmlns:svg="http://www.w3.org/2000/svg"
   xmlns="http://www.w3.org/2000/svg"
   xmlns:sodipodi="http://sodipodi.sourceforge.net/DTD/sodipodi-0.dtd"
   xmlns:inkscape="http://www.inkscape.org/namespaces/inkscape"
   version="1.1"
   width="794"
   height="741"
   viewBox="-0.476 -0.5 794 741"
   enable-background="new -0.476 -0.5 794 741"
   xml:space="preserve"
   id="svg2"
   sodipodi:version="0.32"
   inkscape:version="0.45pre1"
   sodipodi:docname="British_Isles_Euler_diagram.svg"
   inkscape:output_extension="org.inkscape.output.svg.inkscape"
   sodipodi:docbase="C:\Documents and Settings\bjn48\Desktop"
   sodipodi:modified="true"><metadata
   id="metadata288"><rdf:RDF><cc:Work
       rdf:about=""><dc:format>image/svg+xml</dc:format><dc:type
         rdf:resource="http://purl.org/dc/dcmitype/StillImage" /></cc:Work></rdf:RDF></metadata><sodipodi:namedview
   inkscape:window-height="1134"
   inkscape:window-width="1920"
   inkscape:pageshadow="2"
   inkscape:pageopacity="0.0"
   guidetolerance="10.0"
   gridtolerance="10.0"
   objecttolerance="10.0"
   borderopacity="1.0"
   bordercolor="#666666"
   pagecolor="#ffffff"
   id="base"
   showguides="true"
   inkscape:guide-bbox="true"
   inkscape:zoom="1"
   inkscape:cx="397"
   inkscape:cy="370.5"
   inkscape:window-x="-4"
   inkscape:window-y="-4"
   inkscape:current-layer="svg2" />
<defs
   id="defs4">
</defs>
<path
   id="path2170_2_"
   fill="none"
   stroke="#000000"
   stroke-width="5"
   d="M594.594,115.928c188,146.6,251.84,379.379,142.5,519.6  c-109.34,140.217-350.661,135.039-538.661-11.559C10.431,477.369-53.41,244.588,55.932,104.37  C165.271-35.85,406.592-30.672,594.594,115.928z" />
<path
   id="path3143_2_"
   fill="none"
   stroke="#000000"
   stroke-width="5"
   d="M589.594,272.585  c0,112.653-91.426,204.079-204.076,204.079c-112.652,0-204.077-91.426-204.077-204.079c0-112.649,91.425-204.075,204.077-204.075  C498.168,68.508,589.594,159.937,589.594,272.585z" />
<path
   id="path3145_2_"
   fill="none"
   stroke="#000000"
   stroke-width="5"
   d="M564.371,273.607c0,73.348-59.529,132.875-132.877,132.875  c-73.347,0-132.876-59.526-132.876-132.875c0-73.348,59.529-132.875,132.876-132.875  C504.842,140.732,564.371,200.262,564.371,273.607z" />
<path
   id="path3147_2_"
   fill="none"
   stroke="#000000"
   stroke-width="5"
   d="M291.574,268.5c0,73.347-59.529,132.875-132.875,132.875  c-73.348,0-132.877-59.529-132.877-132.875c0-73.348,59.529-132.876,132.877-132.876C232.045,135.625,291.574,195.152,291.574,268.5  z" />
<path
   id="path3149_2_"
   fill="none"
   stroke="#000000"
   stroke-width="5"
   d="M742.117,546.857c0,73.35-59.527,132.879-132.875,132.879  c-73.35,0-132.877-59.529-132.877-132.879c0-73.348,59.527-132.875,132.877-132.875C682.59,413.982,742.117,473.51,742.117,546.857z  " />
<path
   id="path3151_2_"
   fill="none"
   stroke="#000000"
   stroke-width="5"
   d="M246.756,470.797c0,31.277-25.383,56.66-56.659,56.66  c-31.277,0-56.661-25.383-56.661-56.66c0-31.275,25.384-56.66,56.661-56.66C221.374,414.137,246.756,439.521,246.756,470.797z" />
<path
   id="path3153_2_"
   fill="none"
   stroke="#000000"
   stroke-width="5"
   d="M615.441,586.771c0,31.275-25.383,56.66-56.658,56.66  c-31.277,0-56.662-25.385-56.662-56.66c0-31.277,25.385-56.662,56.662-56.662S615.441,555.494,615.441,586.771z" />
<path
   id="path3155_2_"
   fill="none"
   stroke="#000000"
   stroke-width="5"
   d="M731.205,545.51c0,31.277-25.385,56.66-56.66,56.66  s-56.66-25.383-56.66-56.66c0-31.275,25.383-56.66,56.66-56.66C705.82,488.85,731.205,514.234,731.205,545.51z" />
<path
   id="path3321_2_"
   fill="none"
   stroke="#000000"
   stroke-width="5"
   d="M498.982,317.683c0,43.489-35.299,78.788-78.787,78.788  c-43.492,0-78.789-35.296-78.789-78.788c0-43.492,35.297-78.789,78.789-78.789C463.686,238.896,498.982,274.191,498.982,317.683z" />
<g
   id="g15"
   transform="translate(1,15)">
	<path
   d="M 73.676,283.662 L 73.676,266.474 L 75.957,266.474 L 75.957,283.662 L 73.676,283.662 z "
   id="path17"
   style="fill:#200e7d" />
	<path
   d="M 79.672,283.662 L 79.672,271.209 L 81.563,271.209 L 81.563,273.104 C 82.048,272.218 82.497,271.633 82.908,271.352 C 83.319,271.069 83.771,270.928 84.265,270.928 C 84.977,270.928 85.702,271.156 86.438,271.61 L 85.7,273.563 C 85.185,273.264 84.671,273.116 84.157,273.116 C 83.697,273.116 83.284,273.255 82.918,273.532 C 82.552,273.809 82.29,274.194 82.134,274.686 C 81.9,275.436 81.782,276.256 81.782,277.147 L 81.782,283.663 L 79.672,283.663 L 79.672,283.662 z "
   id="path19"
   style="fill:#200e7d" />
	<path
   d="M 96.188,279.646 L 98.376,279.927 C 98.032,281.199 97.396,282.187 96.466,282.889 C 95.536,283.591 94.349,283.943 92.905,283.943 C 91.085,283.943 89.642,283.382 88.576,282.26 C 87.511,281.138 86.977,279.566 86.977,277.54 C 86.977,275.445 87.516,273.819 88.593,272.662 C 89.671,271.505 91.069,270.927 92.787,270.927 C 94.45,270.927 95.809,271.493 96.864,272.627 C 97.919,273.761 98.446,275.356 98.446,277.411 C 98.446,277.536 98.442,277.723 98.434,277.973 L 89.149,277.973 C 89.227,279.342 89.614,280.389 90.308,281.117 C 91.003,281.845 91.87,282.208 92.909,282.208 C 93.681,282.208 94.342,282.005 94.888,281.597 C 95.434,281.19 95.868,280.54 96.188,279.646 z M 89.274,276.24 L 96.212,276.24 C 96.118,275.192 95.853,274.406 95.417,273.882 C 94.746,273.069 93.876,272.662 92.808,272.662 C 91.841,272.662 91.028,272.986 90.369,273.636 C 89.71,274.286 89.344,275.153 89.274,276.24 z "
   id="path21"
   style="fill:#200e7d" />
	<path
   d="M 100.981,283.662 L 100.981,266.474 L 103.09,266.474 L 103.09,283.662 L 100.981,283.662 z "
   id="path23"
   style="fill:#200e7d" />
	<path
   d="M 114.485,282.131 C 113.7,282.793 112.947,283.262 112.225,283.534 C 111.504,283.806 110.73,283.943 109.903,283.943 C 108.538,283.943 107.489,283.609 106.756,282.94 C 106.023,282.271 105.656,281.418 105.656,280.377 C 105.656,279.768 105.795,279.211 106.071,278.706 C 106.348,278.201 106.711,277.797 107.159,277.492 C 107.607,277.187 108.113,276.956 108.674,276.8 C 109.087,276.691 109.711,276.585 110.546,276.484 C 112.246,276.281 113.498,276.038 114.301,275.756 C 114.309,275.467 114.313,275.284 114.313,275.206 C 114.313,274.348 114.114,273.743 113.716,273.392 C 113.178,272.916 112.379,272.678 111.319,272.678 C 110.328,272.678 109.597,272.852 109.126,273.198 C 108.654,273.545 108.305,274.158 108.079,275.038 L 106.017,274.757 C 106.205,273.875 106.513,273.163 106.942,272.62 C 107.372,272.078 107.992,271.66 108.804,271.368 C 109.616,271.075 110.556,270.929 111.626,270.929 C 112.688,270.929 113.55,271.054 114.214,271.304 C 114.877,271.554 115.365,271.868 115.677,272.246 C 115.989,272.625 116.208,273.103 116.333,273.681 C 116.403,274.04 116.438,274.689 116.438,275.627 L 116.438,278.441 C 116.438,280.403 116.483,281.645 116.574,282.166 C 116.664,282.687 116.843,283.186 117.11,283.663 L 114.907,283.663 C 114.688,283.226 114.547,282.715 114.485,282.131 z M 114.313,277.412 C 113.548,277.724 112.4,277.99 110.87,278.209 C 110.004,278.334 109.391,278.475 109.031,278.631 C 108.672,278.787 108.395,279.016 108.2,279.317 C 108.005,279.618 107.907,279.952 107.907,280.319 C 107.907,280.881 108.119,281.35 108.544,281.725 C 108.969,282.1 109.591,282.287 110.409,282.287 C 111.22,282.287 111.94,282.109 112.571,281.754 C 113.203,281.398 113.666,280.911 113.963,280.294 C 114.189,279.817 114.302,279.115 114.302,278.186 L 114.313,277.412 z "
   id="path25"
   style="fill:#200e7d" />
	<path
   d="M 119.708,283.662 L 119.708,271.209 L 121.599,271.209 L 121.599,272.979 C 122.514,271.612 123.834,270.928 125.562,270.928 C 126.312,270.928 127.002,271.063 127.631,271.332 C 128.26,271.602 128.731,271.956 129.044,272.394 C 129.357,272.832 129.576,273.352 129.701,273.954 C 129.779,274.345 129.818,275.029 129.818,276.006 L 129.818,283.663 L 127.709,283.663 L 127.709,276.087 C 127.709,275.228 127.627,274.585 127.463,274.158 C 127.299,273.732 127.008,273.391 126.591,273.137 C 126.173,272.883 125.683,272.756 125.121,272.756 C 124.223,272.756 123.448,273.041 122.796,273.612 C 122.145,274.182 121.818,275.265 121.818,276.86 L 121.818,283.662 L 119.708,283.662 L 119.708,283.662 z "
   id="path27"
   style="fill:#200e7d" />
	<path
   d="M 141.133,283.662 L 141.133,282.092 C 140.343,283.326 139.182,283.944 137.65,283.944 C 136.657,283.944 135.744,283.671 134.911,283.124 C 134.078,282.576 133.433,281.812 132.976,280.831 C 132.518,279.851 132.29,278.723 132.29,277.448 C 132.29,276.205 132.497,275.077 132.91,274.065 C 133.324,273.053 133.944,272.277 134.772,271.737 C 135.6,271.198 136.524,270.928 137.547,270.928 C 138.296,270.928 138.964,271.086 139.549,271.404 C 140.135,271.721 140.611,272.134 140.978,272.643 L 140.978,266.475 L 143.087,266.475 L 143.087,283.663 L 141.133,283.663 L 141.133,283.662 z M 134.461,277.449 C 134.461,279.044 134.797,280.235 135.469,281.025 C 136.141,281.814 136.934,282.209 137.848,282.209 C 138.77,282.209 139.553,281.832 140.198,281.078 C 140.843,280.323 141.165,279.173 141.165,277.625 C 141.165,275.922 140.837,274.671 140.181,273.873 C 139.525,273.076 138.716,272.678 137.755,272.678 C 136.817,272.678 136.034,273.061 135.405,273.826 C 134.776,274.593 134.461,275.801 134.461,277.449 z "
   id="path29"
   style="fill:#200e7d" />
</g>
<g
   id="g31">
	<path
   fill="#200E7D"
   d="M192.583,270.662v-17.188h2.34l9.004,13.488v-13.488h2.188v17.188h-2.34l-9.004-13.489v13.489H192.583z"
   id="path33" />
	<path
   fill="#200E7D"
   d="M208.883,264.436c0-2.307,0.641-4.014,1.921-5.124c1.07-0.923,2.375-1.384,3.913-1.384   c1.71,0,3.108,0.561,4.194,1.683s1.628,2.672,1.628,4.649c0,1.603-0.24,2.863-0.721,3.781c-0.48,0.919-1.179,1.632-2.097,2.141   c-0.918,0.508-1.919,0.762-3.005,0.762c-1.742,0-3.149-0.559-4.223-1.677S208.883,266.539,208.883,264.436z M211.055,264.438   c0,1.595,0.347,2.788,1.041,3.582c0.694,0.793,1.568,1.189,2.621,1.189c1.045,0,1.915-0.398,2.609-1.195   c0.694-0.798,1.041-2.013,1.041-3.646c0-1.539-0.349-2.706-1.047-3.5c-0.698-0.793-1.566-1.189-2.604-1.189   c-1.053,0-1.927,0.395-2.621,1.184C211.402,261.651,211.055,262.844,211.055,264.438z"
   id="path35" />
	<path
   fill="#200E7D"
   d="M222.997,270.662v-12.453h1.891v1.895c0.485-0.886,0.934-1.471,1.345-1.752   c0.411-0.283,0.863-0.424,1.357-0.424c0.712,0,1.437,0.228,2.173,0.682l-0.738,1.953c-0.515-0.299-1.029-0.447-1.543-0.447   c-0.46,0-0.873,0.139-1.239,0.416s-0.628,0.662-0.784,1.154c-0.234,0.75-0.352,1.57-0.352,2.461v6.516H222.997z"
   id="path37" />
	<path
   fill="#200E7D"
   d="M235.614,268.783l0.312,1.863c-0.595,0.125-1.127,0.188-1.597,0.188c-0.767,0-1.361-0.121-1.784-0.363   c-0.423-0.243-0.72-0.562-0.892-0.957c-0.172-0.395-0.258-1.227-0.258-2.494v-7.17h-1.562v-1.641h1.562v-3.082l2.109-1.266v4.348   h2.109v1.641h-2.109v7.29c0,0.603,0.037,0.99,0.11,1.162c0.074,0.173,0.194,0.31,0.361,0.411s0.406,0.152,0.717,0.152   C234.926,268.865,235.233,268.838,235.614,268.783z"
   id="path39" />
	<path
   fill="#200E7D"
   d="M237.672,270.662v-17.188h2.109v6.16c0.985-1.138,2.228-1.707,3.729-1.707c0.922,0,1.723,0.182,2.403,0.545   c0.68,0.364,1.167,0.866,1.46,1.508c0.293,0.641,0.439,1.57,0.439,2.79v7.892h-2.109v-7.896c0-1.056-0.229-1.824-0.686-2.305   c-0.458-0.481-1.104-0.722-1.941-0.722c-0.625,0-1.214,0.162-1.765,0.486c-0.551,0.325-0.944,0.766-1.179,1.32   s-0.352,1.322-0.352,2.299v6.816H237.672z"
   id="path41" />
	<path
   fill="#200E7D"
   d="M259.528,266.646l2.188,0.281c-0.344,1.272-0.98,2.26-1.91,2.962s-2.117,1.054-3.561,1.054   c-1.82,0-3.263-0.561-4.329-1.683c-1.065-1.122-1.599-2.694-1.599-4.72c0-2.095,0.539-3.721,1.616-4.878   c1.078-1.157,2.476-1.735,4.194-1.735c1.663,0,3.022,0.566,4.077,1.7s1.582,2.729,1.582,4.784c0,0.125-0.004,0.312-0.012,0.562   h-9.285c0.078,1.369,0.465,2.416,1.159,3.144c0.695,0.728,1.562,1.091,2.601,1.091c0.772,0,1.433-0.203,1.979-0.611   C258.774,268.19,259.208,267.54,259.528,266.646z M252.614,263.24h6.938c-0.094-1.048-0.359-1.834-0.795-2.358   c-0.671-0.813-1.541-1.22-2.609-1.22c-0.967,0-1.78,0.324-2.439,0.974S252.684,262.153,252.614,263.24z"
   id="path43" />
	<path
   fill="#200E7D"
   d="M264.352,270.662v-12.453h1.891v1.895c0.485-0.886,0.934-1.471,1.345-1.752   c0.411-0.283,0.863-0.424,1.357-0.424c0.712,0,1.437,0.228,2.173,0.682l-0.738,1.953c-0.515-0.299-1.029-0.447-1.543-0.447   c-0.46,0-0.873,0.139-1.239,0.416s-0.628,0.662-0.784,1.154c-0.234,0.75-0.352,1.57-0.352,2.461v6.516H264.352z"
   id="path45" />
	<path
   fill="#200E7D"
   d="M272.36,270.662v-12.453h1.891v1.77c0.915-1.367,2.235-2.051,3.963-2.051c0.75,0,1.44,0.135,2.069,0.404   c0.629,0.27,1.1,0.624,1.413,1.062s0.532,0.958,0.657,1.56c0.078,0.391,0.117,1.075,0.117,2.052v7.657h-2.109v-7.576   c0-0.859-0.082-1.502-0.246-1.929c-0.164-0.426-0.455-0.767-0.872-1.021c-0.418-0.254-0.908-0.381-1.47-0.381   c-0.898,0-1.673,0.285-2.325,0.856c-0.651,0.57-0.978,1.653-0.978,3.248v6.802H272.36z"
   id="path47" />
	<path
   fill="#200E7D"
   d="M202.985,299.462v-17.188h2.281v17.188H202.985z"
   id="path49" />
	<path
   fill="#200E7D"
   d="M208.981,299.462v-12.453h1.891v1.895c0.485-0.886,0.934-1.47,1.345-1.753   c0.411-0.281,0.863-0.423,1.357-0.423c0.712,0,1.437,0.228,2.173,0.682l-0.738,1.952c-0.515-0.297-1.029-0.446-1.543-0.446   c-0.46,0-0.873,0.139-1.239,0.416s-0.628,0.662-0.784,1.154c-0.234,0.75-0.352,1.57-0.352,2.461v6.516H208.981z"
   id="path51" />
	<path
   fill="#200E7D"
   d="M225.497,295.446l2.188,0.281c-0.344,1.272-0.98,2.26-1.91,2.962c-0.929,0.703-2.117,1.054-3.561,1.054   c-1.82,0-3.263-0.561-4.329-1.683c-1.065-1.121-1.599-2.695-1.599-4.72c0-2.095,0.539-3.721,1.616-4.878   c1.078-1.156,2.476-1.735,4.194-1.735c1.663,0,3.022,0.567,4.077,1.7c1.054,1.134,1.582,2.729,1.582,4.784   c0,0.125-0.004,0.312-0.012,0.562h-9.285c0.078,1.368,0.465,2.417,1.159,3.144c0.695,0.728,1.562,1.091,2.601,1.091   c0.772,0,1.433-0.204,1.979-0.611C224.743,296.99,225.176,296.34,225.497,295.446z M218.583,292.04h6.938   c-0.094-1.048-0.359-1.834-0.795-2.358c-0.671-0.812-1.541-1.22-2.609-1.22c-0.967,0-1.78,0.325-2.439,0.974   C219.017,290.085,218.653,290.953,218.583,292.04z"
   id="path53" />
	<path
   fill="#200E7D"
   d="M230.29,299.462v-17.188h2.109v17.188H230.29z"
   id="path55" />
	<path
   fill="#200E7D"
   d="M243.793,297.931c-0.785,0.663-1.538,1.13-2.26,1.403c-0.721,0.272-1.495,0.409-2.322,0.409   c-1.365,0-2.414-0.334-3.147-1.003c-0.733-0.668-1.1-1.523-1.1-2.562c0-0.61,0.139-1.168,0.415-1.672   c0.277-0.504,0.64-0.909,1.088-1.214c0.448-0.306,0.954-0.536,1.515-0.692c0.413-0.109,1.037-0.215,1.872-0.316   c1.7-0.203,2.952-0.445,3.755-0.728c0.008-0.288,0.012-0.472,0.012-0.55c0-0.858-0.199-1.463-0.597-1.814   c-0.538-0.476-1.337-0.714-2.397-0.714c-0.991,0-1.722,0.173-2.193,0.52s-0.821,0.96-1.047,1.84l-2.062-0.281   c0.188-0.882,0.496-1.594,0.925-2.137c0.43-0.542,1.05-0.96,1.862-1.253c0.812-0.292,1.752-0.438,2.822-0.438   c1.062,0,1.924,0.125,2.588,0.375c0.663,0.25,1.151,0.563,1.463,0.942s0.531,0.857,0.656,1.435c0.07,0.359,0.105,1.009,0.105,1.946   v2.814c0,1.963,0.045,3.204,0.136,3.725c0.09,0.521,0.269,1.02,0.536,1.497h-2.203   C243.997,299.025,243.856,298.516,243.793,297.931z M243.622,293.212c-0.765,0.312-1.913,0.578-3.443,0.797   c-0.866,0.125-1.479,0.266-1.839,0.422c-0.359,0.156-0.636,0.385-0.831,0.686s-0.293,0.635-0.293,1.002   c0,0.562,0.212,1.031,0.637,1.406s1.047,0.562,1.865,0.562c0.811,0,1.531-0.178,2.162-0.534c0.632-0.355,1.095-0.842,1.392-1.459   c0.226-0.477,0.339-1.18,0.339-2.108L243.622,293.212z"
   id="path57" />
	<path
   fill="#200E7D"
   d="M249.016,299.462v-12.453h1.891v1.77c0.915-1.367,2.235-2.051,3.963-2.051c0.75,0,1.44,0.135,2.069,0.404   c0.629,0.271,1.1,0.624,1.413,1.062s0.532,0.957,0.657,1.56c0.078,0.391,0.117,1.075,0.117,2.052v7.657h-2.109v-7.575   c0-0.86-0.082-1.504-0.246-1.93s-0.455-0.766-0.872-1.021c-0.418-0.254-0.908-0.381-1.47-0.381c-0.898,0-1.673,0.285-2.325,0.856   c-0.651,0.57-0.978,1.653-0.978,3.248v6.802H249.016z"
   id="path59" />
	<path
   fill="#200E7D"
   d="M270.442,299.462v-1.57c-0.79,1.234-1.951,1.852-3.483,1.852c-0.993,0-1.906-0.273-2.739-0.821   c-0.833-0.547-1.478-1.311-1.935-2.292c-0.458-0.98-0.686-2.108-0.686-3.383c0-1.243,0.207-2.37,0.62-3.383   c0.414-1.013,1.034-1.788,1.862-2.327c0.828-0.54,1.752-0.81,2.775-0.81c0.749,0,1.417,0.159,2.002,0.476   c0.586,0.317,1.062,0.73,1.429,1.239v-6.168h2.109v17.188H270.442z M263.77,293.249c0,1.595,0.336,2.786,1.008,3.575   c0.672,0.79,1.465,1.185,2.379,1.185c0.922,0,1.705-0.377,2.35-1.132c0.645-0.754,0.967-1.904,0.967-3.452   c0-1.704-0.328-2.954-0.984-3.751c-0.656-0.798-1.465-1.196-2.426-1.196c-0.938,0-1.721,0.383-2.35,1.149   C264.084,290.393,263.77,291.6,263.77,293.249z"
   id="path61" />
</g>
<g
   id="g63">
	<path
   fill="#200E7D"
   d="M390.348,302.662v-17.188h12.407v2.031h-10.125v5.25h9.485v2.031h-9.485v5.844h10.532v2.031H390.348z"
   id="path65" />
	<path
   fill="#200E7D"
   d="M406.028,302.662v-12.453h1.891v1.77c0.914-1.367,2.234-2.051,3.963-2.051c0.75,0,1.439,0.135,2.068,0.404   s1.101,0.624,1.413,1.062s0.532,0.958,0.657,1.56c0.078,0.391,0.117,1.075,0.117,2.052v7.657h-2.109v-7.576   c0-0.859-0.082-1.502-0.246-1.929c-0.164-0.426-0.455-0.767-0.873-1.021s-0.908-0.381-1.469-0.381   c-0.898,0-1.674,0.285-2.326,0.856c-0.65,0.57-0.977,1.653-0.977,3.248v6.802H406.028z"
   id="path67" />
	<path
   fill="#200E7D"
   d="M418.993,303.693l2.047,0.312c0.086,0.628,0.324,1.085,0.715,1.372c0.524,0.388,1.24,0.581,2.147,0.581   c0.978,0,1.733-0.195,2.265-0.584c0.531-0.391,0.892-0.936,1.08-1.637c0.109-0.43,0.16-1.329,0.152-2.701   c-0.923,1.084-2.072,1.625-3.447,1.625c-1.712,0-3.037-0.617-3.975-1.853s-1.406-2.717-1.406-4.444   c0-1.188,0.215-2.284,0.645-3.289c0.43-1.004,1.054-1.78,1.871-2.328c0.816-0.547,1.777-0.82,2.879-0.82   c1.471,0,2.682,0.594,3.637,1.781v-1.5h1.938v10.76c0,1.938-0.197,3.312-0.592,4.121c-0.395,0.809-1.02,1.447-1.875,1.916   s-1.908,0.703-3.158,0.703c-1.484,0-2.684-0.334-3.598-1.001S418.962,305.035,418.993,303.693z M420.743,296.213   c0,1.633,0.324,2.824,0.971,3.574c0.648,0.75,1.461,1.125,2.438,1.125c0.968,0,1.779-0.373,2.436-1.119s0.984-1.916,0.984-3.51   c0-1.523-0.338-2.672-1.014-3.445s-1.489-1.16-2.441-1.16c-0.938,0-1.734,0.381-2.391,1.143   C421.071,293.582,420.743,294.713,420.743,296.213z"
   id="path69" />
	<path
   fill="#200E7D"
   d="M432.677,302.662v-17.188h2.109v17.188H432.677z"
   id="path71" />
	<path
   fill="#200E7D"
   d="M446.181,301.131c-0.785,0.662-1.539,1.131-2.26,1.403c-0.722,0.272-1.496,0.409-2.322,0.409   c-1.365,0-2.414-0.334-3.146-1.003c-0.734-0.669-1.1-1.522-1.1-2.563c0-0.609,0.139-1.166,0.414-1.671   c0.277-0.505,0.641-0.909,1.088-1.214c0.449-0.305,0.954-0.536,1.516-0.692c0.413-0.109,1.037-0.215,1.871-0.316   c1.701-0.203,2.952-0.446,3.756-0.728c0.008-0.289,0.012-0.472,0.012-0.55c0-0.858-0.199-1.463-0.598-1.814   c-0.537-0.476-1.336-0.714-2.396-0.714c-0.991,0-1.723,0.174-2.193,0.52c-0.473,0.347-0.821,0.96-1.047,1.84l-2.062-0.281   c0.188-0.882,0.495-1.594,0.924-2.137c0.43-0.542,1.051-0.96,1.863-1.252c0.811-0.293,1.752-0.439,2.822-0.439   c1.061,0,1.924,0.125,2.588,0.375c0.662,0.25,1.15,0.564,1.463,0.942c0.312,0.379,0.531,0.857,0.656,1.435   c0.07,0.359,0.105,1.008,0.105,1.946v2.814c0,1.962,0.045,3.204,0.135,3.725s0.27,1.02,0.537,1.497h-2.203   C446.384,302.226,446.243,301.715,446.181,301.131z M446.009,296.412c-0.766,0.312-1.914,0.578-3.443,0.797   c-0.867,0.125-1.48,0.266-1.84,0.422c-0.358,0.156-0.635,0.385-0.83,0.686s-0.293,0.635-0.293,1.002   c0,0.562,0.211,1.031,0.637,1.406c0.424,0.375,1.047,0.562,1.865,0.562c0.811,0,1.531-0.178,2.162-0.533   c0.631-0.356,1.095-0.843,1.391-1.46c0.227-0.477,0.34-1.179,0.34-2.108L446.009,296.412z"
   id="path73" />
	<path
   fill="#200E7D"
   d="M451.403,302.662v-12.453h1.891v1.77c0.914-1.367,2.234-2.051,3.963-2.051c0.75,0,1.439,0.135,2.068,0.404   s1.101,0.624,1.413,1.062s0.532,0.958,0.657,1.56c0.078,0.391,0.117,1.075,0.117,2.052v7.657h-2.109v-7.576   c0-0.859-0.082-1.502-0.246-1.929c-0.164-0.426-0.455-0.767-0.873-1.021s-0.908-0.381-1.469-0.381   c-0.898,0-1.674,0.285-2.326,0.856c-0.65,0.57-0.977,1.653-0.977,3.248v6.802H451.403z"
   id="path75" />
	<path
   fill="#200E7D"
   d="M472.829,302.662v-1.57c-0.791,1.234-1.951,1.852-3.484,1.852c-0.992,0-1.906-0.273-2.738-0.82   c-0.833-0.548-1.479-1.312-1.936-2.293c-0.457-0.98-0.686-2.108-0.686-3.383c0-1.243,0.207-2.371,0.619-3.383   c0.414-1.012,1.035-1.788,1.862-2.328c0.827-0.539,1.753-0.809,2.774-0.809c0.75,0,1.418,0.158,2.002,0.476   c0.586,0.317,1.062,0.73,1.43,1.239v-6.168h2.109v17.188H472.829z M466.157,296.449c0,1.595,0.336,2.786,1.008,3.576   c0.672,0.789,1.465,1.184,2.379,1.184c0.922,0,1.705-0.377,2.35-1.131c0.645-0.755,0.967-1.905,0.967-3.453   c0-1.703-0.328-2.954-0.984-3.752c-0.656-0.797-1.465-1.195-2.426-1.195c-0.938,0-1.721,0.383-2.35,1.148   C466.472,293.593,466.157,294.801,466.157,296.449z"
   id="path77" />
</g>
<g
   id="g79">
	<path
   fill="#200E7D"
   d="M158.327,465.662v-17.188h2.281v17.188H158.327z"
   id="path81" />
	<path
   fill="#200E7D"
   d="M163.495,461.943l2.094-0.328c0.117,0.838,0.443,1.479,0.978,1.925c0.535,0.446,1.283,0.669,2.243,0.669   c0.968,0,1.687-0.197,2.155-0.592c0.468-0.396,0.703-0.859,0.703-1.391c0-0.477-0.206-0.853-0.618-1.126   c-0.288-0.188-1.005-0.427-2.152-0.716c-1.544-0.391-2.617-0.729-3.215-1.014c-0.6-0.285-1.054-0.681-1.363-1.185   s-0.464-1.062-0.464-1.671c0-0.555,0.127-1.068,0.381-1.542c0.254-0.473,0.6-0.865,1.037-1.179   c0.328-0.242,0.775-0.447,1.342-0.615s1.174-0.252,1.822-0.252c0.977,0,1.834,0.141,2.572,0.423s1.283,0.664,1.635,1.146   s0.594,1.125,0.727,1.932l-2.062,0.281c-0.094-0.643-0.365-1.145-0.813-1.506c-0.448-0.36-1.082-0.541-1.901-0.541   c-0.967,0-1.658,0.16-2.071,0.48c-0.414,0.321-0.62,0.696-0.62,1.127c0,0.273,0.086,0.52,0.258,0.738   c0.171,0.228,0.44,0.415,0.807,0.563c0.21,0.078,0.831,0.259,1.861,0.54c1.489,0.398,2.529,0.725,3.119,0.979   s1.053,0.624,1.389,1.108s0.504,1.087,0.504,1.806c0,0.703-0.205,1.366-0.616,1.987c-0.411,0.622-1.003,1.103-1.777,1.442   s-1.649,0.51-2.627,0.51c-1.618,0-2.852-0.336-3.7-1.009C164.271,464.262,163.729,463.266,163.495,461.943z"
   id="path83" />
	<path
   fill="#200E7D"
   d="M176.292,465.662v-17.188h2.109v17.188H176.292z"
   id="path85" />
	<path
   fill="#200E7D"
   d="M190.178,461.646l2.188,0.281c-0.344,1.272-0.98,2.26-1.91,2.962s-2.117,1.054-3.561,1.054   c-1.82,0-3.263-0.561-4.329-1.683c-1.065-1.122-1.599-2.694-1.599-4.72c0-2.095,0.539-3.721,1.616-4.878   c1.078-1.157,2.476-1.735,4.194-1.735c1.663,0,3.022,0.566,4.077,1.7s1.582,2.729,1.582,4.784c0,0.125-0.004,0.312-0.012,0.562   h-9.285c0.078,1.369,0.465,2.416,1.159,3.144c0.695,0.728,1.562,1.091,2.601,1.091c0.772,0,1.433-0.203,1.979-0.611   C189.424,463.19,189.858,462.54,190.178,461.646z M183.264,458.24h6.938c-0.094-1.048-0.359-1.834-0.795-2.358   c-0.671-0.813-1.541-1.22-2.609-1.22c-0.967,0-1.78,0.324-2.439,0.974S183.334,457.153,183.264,458.24z"
   id="path87" />
	<path
   fill="#200E7D"
   d="M200.905,459.436c0-2.307,0.641-4.014,1.921-5.124c1.07-0.923,2.375-1.384,3.913-1.384   c1.71,0,3.108,0.561,4.194,1.683s1.628,2.672,1.628,4.649c0,1.603-0.24,2.863-0.721,3.781c-0.48,0.919-1.179,1.632-2.097,2.141   c-0.918,0.508-1.919,0.762-3.005,0.762c-1.742,0-3.149-0.559-4.223-1.677S200.905,461.539,200.905,459.436z M203.077,459.438   c0,1.595,0.347,2.788,1.041,3.582c0.694,0.793,1.568,1.189,2.621,1.189c1.045,0,1.915-0.398,2.609-1.195   c0.694-0.798,1.041-2.013,1.041-3.646c0-1.539-0.349-2.706-1.047-3.5c-0.698-0.793-1.566-1.189-2.604-1.189   c-1.053,0-1.927,0.395-2.621,1.184C203.423,456.651,203.077,457.844,203.077,459.438z"
   id="path89" />
	<path
   fill="#200E7D"
   d="M215.542,465.662V454.85h-1.859v-1.641h1.859v-1.325c0-0.837,0.074-1.458,0.222-1.864   c0.203-0.548,0.56-0.991,1.07-1.332c0.511-0.34,1.227-0.51,2.149-0.51c0.594,0,1.25,0.07,1.969,0.211l-0.316,1.844   c-0.438-0.078-0.852-0.117-1.242-0.117c-0.641,0-1.094,0.137-1.359,0.41s-0.398,0.785-0.398,1.535v1.148h2.438v1.641h-2.422v10.812   H215.542z"
   id="path91" />
	<path
   fill="#200E7D"
   d="M169.879,494.462v-17.188h3.405l4.078,12.164c0.376,1.133,0.65,1.98,0.822,2.543   c0.196-0.625,0.501-1.543,0.917-2.754l4.126-11.953h3.059v17.188h-2.188v-14.391l-5.013,14.391h-2.05l-4.968-14.625v14.625H169.879   z"
   id="path93" />
	<path
   fill="#200E7D"
   d="M197.793,492.931c-0.785,0.663-1.538,1.13-2.26,1.403c-0.721,0.272-1.495,0.409-2.322,0.409   c-1.365,0-2.414-0.334-3.147-1.003c-0.733-0.668-1.1-1.523-1.1-2.562c0-0.61,0.139-1.168,0.415-1.672   c0.277-0.504,0.64-0.909,1.088-1.214c0.448-0.306,0.954-0.536,1.515-0.692c0.413-0.109,1.037-0.215,1.872-0.316   c1.7-0.203,2.952-0.445,3.755-0.728c0.008-0.288,0.012-0.472,0.012-0.55c0-0.858-0.199-1.463-0.597-1.814   c-0.538-0.476-1.337-0.714-2.397-0.714c-0.991,0-1.722,0.173-2.193,0.52s-0.821,0.96-1.047,1.84l-2.062-0.281   c0.188-0.882,0.496-1.594,0.925-2.137c0.43-0.542,1.05-0.96,1.862-1.253c0.812-0.292,1.752-0.438,2.822-0.438   c1.062,0,1.924,0.125,2.588,0.375c0.663,0.25,1.151,0.563,1.463,0.942s0.531,0.857,0.656,1.435c0.07,0.359,0.105,1.009,0.105,1.946   v2.814c0,1.963,0.045,3.204,0.136,3.725c0.09,0.521,0.269,1.02,0.536,1.497h-2.203   C197.997,494.025,197.856,493.516,197.793,492.931z M197.622,488.212c-0.765,0.312-1.913,0.578-3.443,0.797   c-0.866,0.125-1.479,0.266-1.839,0.422c-0.359,0.156-0.636,0.385-0.831,0.686s-0.293,0.635-0.293,1.002   c0,0.562,0.212,1.031,0.637,1.406s1.047,0.562,1.865,0.562c0.811,0,1.531-0.178,2.162-0.534c0.632-0.355,1.095-0.842,1.392-1.459   c0.226-0.477,0.339-1.18,0.339-2.108L197.622,488.212z"
   id="path95" />
	<path
   fill="#200E7D"
   d="M203.016,494.462v-12.453h1.891v1.77c0.915-1.367,2.235-2.051,3.963-2.051c0.75,0,1.44,0.135,2.069,0.404   c0.629,0.271,1.1,0.624,1.413,1.062s0.532,0.957,0.657,1.56c0.078,0.391,0.117,1.075,0.117,2.052v7.657h-2.109v-7.575   c0-0.86-0.082-1.504-0.246-1.93s-0.455-0.766-0.872-1.021c-0.418-0.254-0.908-0.381-1.47-0.381c-0.898,0-1.673,0.285-2.325,0.856   c-0.651,0.57-0.978,1.653-0.978,3.248v6.802H203.016z"
   id="path97" />
</g>
<g
   id="g99">
	<path
   fill="#200E7D"
   d="M517.333,588.928v-2.031h7.281v6.378c-1.117,0.891-2.27,1.562-3.457,2.011s-2.406,0.674-3.656,0.674   c-1.688,0-3.221-0.361-4.6-1.085s-2.42-1.769-3.123-3.138c-0.703-1.368-1.055-2.896-1.055-4.586c0-1.674,0.35-3.235,1.049-4.686   s1.704-2.527,3.017-3.231s2.824-1.056,4.535-1.056c1.241,0,2.364,0.201,3.368,0.604s1.791,0.965,2.361,1.685   c0.57,0.721,1.004,1.66,1.301,2.818l-2.057,0.562c-0.258-0.875-0.578-1.563-0.961-2.063s-0.93-0.901-1.639-1.202   c-0.711-0.301-1.5-0.451-2.366-0.451c-1.038,0-1.937,0.158-2.693,0.475c-0.757,0.317-1.368,0.733-1.833,1.25   c-0.465,0.516-0.826,1.082-1.083,1.7c-0.437,1.063-0.655,2.217-0.655,3.46c0,1.533,0.264,2.814,0.79,3.848   c0.526,1.031,1.294,1.798,2.302,2.299c1.006,0.5,2.076,0.75,3.208,0.75c0.983,0,1.944-0.189,2.881-0.568   c0.937-0.38,1.647-0.784,2.132-1.215v-3.201H517.333z"
   id="path101" />
	<path
   fill="#200E7D"
   d="M535.845,595.662v-1.824c-0.969,1.403-2.285,2.105-3.949,2.105c-0.734,0-1.42-0.141-2.057-0.422   s-1.109-0.635-1.418-1.062c-0.309-0.426-0.525-0.948-0.65-1.565c-0.086-0.414-0.129-1.07-0.129-1.97v-7.716h2.109v6.91   c0,1.103,0.043,1.846,0.129,2.229c0.133,0.556,0.414,0.991,0.844,1.309c0.43,0.316,0.961,0.475,1.596,0.475   c0.633,0,1.227-0.162,1.781-0.486c0.555-0.325,0.948-0.767,1.18-1.326c0.23-0.559,0.346-1.37,0.346-2.434v-6.676h2.109v12.453   H535.845z"
   id="path103" />
	<path
   fill="#200E7D"
   d="M549.544,591.646l2.188,0.281c-0.344,1.272-0.98,2.26-1.91,2.962s-2.117,1.054-3.561,1.054   c-1.82,0-3.264-0.561-4.33-1.683c-1.064-1.122-1.598-2.694-1.598-4.72c0-2.095,0.539-3.721,1.615-4.878   c1.078-1.157,2.477-1.735,4.195-1.735c1.662,0,3.021,0.566,4.076,1.7s1.582,2.729,1.582,4.784c0,0.125-0.004,0.312-0.012,0.562   h-9.285c0.078,1.369,0.465,2.416,1.158,3.144c0.695,0.728,1.562,1.091,2.602,1.091c0.771,0,1.432-0.203,1.979-0.611   C548.79,593.19,549.224,592.54,549.544,591.646z M542.63,588.24h6.938c-0.094-1.048-0.359-1.834-0.796-2.358   c-0.671-0.813-1.54-1.22-2.608-1.22c-0.968,0-1.781,0.324-2.439,0.974C543.063,586.285,542.7,587.153,542.63,588.24z"
   id="path105" />
	<path
   fill="#200E7D"
   d="M554.368,595.662v-12.453h1.891v1.895c0.484-0.886,0.934-1.471,1.344-1.752   c0.412-0.283,0.863-0.424,1.357-0.424c0.713,0,1.438,0.228,2.174,0.682l-0.738,1.953c-0.515-0.299-1.029-0.447-1.543-0.447   c-0.461,0-0.873,0.139-1.24,0.416c-0.365,0.277-0.627,0.662-0.783,1.154c-0.234,0.75-0.352,1.57-0.352,2.461v6.516H554.368z"
   id="path107" />
	<path
   fill="#200E7D"
   d="M562.376,595.662v-12.453h1.891v1.77c0.914-1.367,2.234-2.051,3.963-2.051c0.75,0,1.439,0.135,2.068,0.404   s1.101,0.624,1.413,1.062s0.532,0.958,0.657,1.56c0.078,0.391,0.117,1.075,0.117,2.052v7.657h-2.109v-7.576   c0-0.859-0.082-1.502-0.246-1.929c-0.164-0.426-0.455-0.767-0.873-1.021s-0.908-0.381-1.469-0.381   c-0.898,0-1.674,0.285-2.326,0.856c-0.65,0.57-0.977,1.653-0.977,3.248v6.802H562.376z"
   id="path109" />
	<path
   fill="#200E7D"
   d="M574.88,591.943l2.094-0.328c0.117,0.838,0.443,1.479,0.977,1.925c0.535,0.446,1.283,0.669,2.244,0.669   c0.967,0,1.686-0.197,2.154-0.592c0.469-0.396,0.703-0.859,0.703-1.391c0-0.477-0.207-0.853-0.619-1.126   c-0.287-0.188-1.004-0.427-2.151-0.716c-1.544-0.391-2.616-0.729-3.216-1.014s-1.053-0.681-1.363-1.185   c-0.309-0.504-0.463-1.062-0.463-1.671c0-0.555,0.127-1.068,0.381-1.542c0.254-0.473,0.6-0.865,1.037-1.179   c0.328-0.242,0.775-0.447,1.342-0.615s1.174-0.252,1.822-0.252c0.977,0,1.834,0.141,2.572,0.423s1.283,0.664,1.635,1.146   s0.594,1.125,0.727,1.932l-2.062,0.281c-0.094-0.643-0.365-1.145-0.814-1.506c-0.447-0.36-1.082-0.541-1.9-0.541   c-0.968,0-1.658,0.16-2.072,0.48c-0.413,0.321-0.619,0.696-0.619,1.127c0,0.273,0.086,0.52,0.258,0.738   c0.17,0.228,0.439,0.415,0.807,0.563c0.211,0.078,0.83,0.259,1.861,0.54c1.488,0.398,2.529,0.725,3.119,0.979   s1.053,0.624,1.389,1.108s0.504,1.087,0.504,1.806c0,0.703-0.205,1.366-0.616,1.987c-0.411,0.622-1.003,1.103-1.776,1.442   c-0.774,0.34-1.65,0.51-2.627,0.51c-1.619,0-2.852-0.336-3.701-1.009C575.655,594.262,575.114,593.266,574.88,591.943z"
   id="path111" />
	<path
   fill="#200E7D"
   d="M596.231,591.646l2.188,0.281c-0.344,1.272-0.98,2.26-1.91,2.962s-2.117,1.054-3.561,1.054   c-1.82,0-3.264-0.561-4.33-1.683c-1.064-1.122-1.598-2.694-1.598-4.72c0-2.095,0.539-3.721,1.615-4.878   c1.078-1.157,2.477-1.735,4.195-1.735c1.662,0,3.021,0.566,4.076,1.7s1.582,2.729,1.582,4.784c0,0.125-0.004,0.312-0.012,0.562   h-9.285c0.078,1.369,0.465,2.416,1.158,3.144c0.695,0.728,1.562,1.091,2.602,1.091c0.771,0,1.432-0.203,1.979-0.611   C595.478,593.19,595.911,592.54,596.231,591.646z M589.317,588.24h6.938c-0.094-1.048-0.359-1.834-0.796-2.358   c-0.671-0.813-1.54-1.22-2.608-1.22c-0.968,0-1.781,0.324-2.439,0.974C589.751,586.285,589.388,587.153,589.317,588.24z"
   id="path113" />
	<path
   fill="#200E7D"
   d="M600.978,600.451l-0.234-1.977c0.461,0.125,0.863,0.188,1.207,0.188c0.471,0,0.846-0.078,1.127-0.234   s0.512-0.375,0.691-0.656c0.133-0.212,0.348-0.735,0.646-1.571c0.039-0.117,0.102-0.29,0.188-0.517l-4.734-12.475h2.254   l2.602,7.197c0.338,0.913,0.639,1.873,0.906,2.879c0.249-0.955,0.543-1.895,0.879-2.815l2.656-7.261h2.108l-4.717,12.67   c-0.509,1.365-0.905,2.304-1.187,2.818c-0.375,0.694-0.807,1.203-1.292,1.526s-1.065,0.485-1.739,0.485   C601.933,600.709,601.478,600.623,600.978,600.451z"
   id="path115" />
</g>
<g
   id="g117">
	<path
   fill="#200E7D"
   d="M641.13,548.803l2.047-0.281c0.055,1.307,0.301,2.201,0.738,2.684c0.438,0.481,1.043,0.723,1.818,0.723   c0.57,0,1.062-0.131,1.477-0.393c0.415-0.262,0.701-0.617,0.857-1.067c0.156-0.449,0.234-1.166,0.234-2.151v-11.842h2.281v11.715   c0,1.438-0.174,2.553-0.522,3.342c-0.349,0.79-0.899,1.393-1.653,1.807c-0.755,0.414-1.641,0.621-2.656,0.621   c-1.51,0-2.665-0.433-3.467-1.298C641.483,551.796,641.099,550.51,641.13,548.803z"
   id="path119" />
	<path
   fill="#200E7D"
   d="M662.528,549.646l2.188,0.281c-0.344,1.272-0.98,2.26-1.91,2.962s-2.117,1.054-3.561,1.054   c-1.82,0-3.264-0.561-4.33-1.683c-1.064-1.122-1.598-2.694-1.598-4.72c0-2.095,0.539-3.721,1.615-4.878   c1.078-1.157,2.477-1.735,4.195-1.735c1.662,0,3.021,0.566,4.076,1.7s1.582,2.729,1.582,4.784c0,0.125-0.004,0.312-0.012,0.562   h-9.285c0.078,1.369,0.465,2.416,1.158,3.144c0.695,0.728,1.562,1.091,2.602,1.091c0.771,0,1.432-0.203,1.979-0.611   C661.774,551.19,662.208,550.54,662.528,549.646z M655.614,546.24h6.938c-0.094-1.048-0.359-1.834-0.796-2.358   c-0.671-0.813-1.54-1.22-2.608-1.22c-0.968,0-1.781,0.324-2.439,0.974C656.048,544.285,655.685,545.153,655.614,546.24z"
   id="path121" />
	<path
   fill="#200E7D"
   d="M667.353,553.662v-12.453h1.891v1.895c0.484-0.886,0.934-1.471,1.344-1.752   c0.412-0.283,0.863-0.424,1.357-0.424c0.713,0,1.438,0.228,2.174,0.682l-0.738,1.953c-0.515-0.299-1.029-0.447-1.543-0.447   c-0.461,0-0.873,0.139-1.24,0.416c-0.365,0.277-0.627,0.662-0.783,1.154c-0.234,0.75-0.352,1.57-0.352,2.461v6.516H667.353z"
   id="path123" />
	<path
   fill="#200E7D"
   d="M674.517,549.943l2.094-0.328c0.117,0.838,0.443,1.479,0.977,1.925c0.535,0.446,1.283,0.669,2.244,0.669   c0.967,0,1.686-0.197,2.154-0.592c0.469-0.396,0.703-0.859,0.703-1.391c0-0.477-0.207-0.853-0.619-1.126   c-0.287-0.188-1.004-0.427-2.151-0.716c-1.544-0.391-2.616-0.729-3.216-1.014s-1.053-0.681-1.363-1.185   c-0.309-0.504-0.463-1.062-0.463-1.671c0-0.555,0.127-1.068,0.381-1.542c0.254-0.473,0.6-0.865,1.037-1.179   c0.328-0.242,0.775-0.447,1.342-0.615s1.174-0.252,1.822-0.252c0.977,0,1.834,0.141,2.572,0.423s1.283,0.664,1.635,1.146   s0.594,1.125,0.727,1.932l-2.062,0.281c-0.094-0.643-0.365-1.145-0.814-1.506c-0.447-0.36-1.082-0.541-1.9-0.541   c-0.968,0-1.658,0.16-2.072,0.48c-0.413,0.321-0.619,0.696-0.619,1.127c0,0.273,0.086,0.52,0.258,0.738   c0.17,0.228,0.439,0.415,0.807,0.563c0.211,0.078,0.83,0.259,1.861,0.54c1.488,0.398,2.529,0.725,3.119,0.979   s1.053,0.624,1.389,1.108s0.504,1.087,0.504,1.806c0,0.703-0.205,1.366-0.616,1.987c-0.411,0.622-1.003,1.103-1.776,1.442   c-0.774,0.34-1.65,0.51-2.627,0.51c-1.619,0-2.852-0.336-3.701-1.009C675.292,552.262,674.751,551.266,674.517,549.943z"
   id="path125" />
	<path
   fill="#200E7D"
   d="M695.868,549.646l2.188,0.281c-0.344,1.272-0.98,2.26-1.91,2.962s-2.117,1.054-3.561,1.054   c-1.82,0-3.264-0.561-4.33-1.683c-1.064-1.122-1.598-2.694-1.598-4.72c0-2.095,0.539-3.721,1.615-4.878   c1.078-1.157,2.477-1.735,4.195-1.735c1.662,0,3.021,0.566,4.076,1.7s1.582,2.729,1.582,4.784c0,0.125-0.004,0.312-0.012,0.562   h-9.285c0.078,1.369,0.465,2.416,1.158,3.144c0.695,0.728,1.562,1.091,2.602,1.091c0.771,0,1.432-0.203,1.979-0.611   C695.114,551.19,695.548,550.54,695.868,549.646z M688.954,546.24h6.938c-0.094-1.048-0.359-1.834-0.796-2.358   c-0.671-0.813-1.54-1.22-2.608-1.22c-0.968,0-1.781,0.324-2.439,0.974C689.388,544.285,689.024,545.153,688.954,546.24z"
   id="path127" />
	<path
   fill="#200E7D"
   d="M700.614,558.451l-0.234-1.977c0.461,0.125,0.863,0.188,1.207,0.188c0.471,0,0.846-0.078,1.127-0.234   s0.512-0.375,0.691-0.656c0.133-0.212,0.348-0.735,0.646-1.571c0.039-0.117,0.102-0.29,0.188-0.517l-4.734-12.475h2.254   l2.602,7.197c0.338,0.913,0.639,1.873,0.906,2.879c0.249-0.955,0.543-1.895,0.879-2.815l2.656-7.261h2.108l-4.717,12.67   c-0.509,1.365-0.905,2.304-1.187,2.818c-0.375,0.694-0.807,1.203-1.292,1.526s-1.065,0.485-1.739,0.485   C701.569,558.709,701.114,558.623,700.614,558.451z"
   id="path129" />
</g>
<g
   id="g131">
	<path
   fill="#200E7D"
   d="M318.551,99.475h2.281v9.933c0,1.728-0.195,3.1-0.585,4.116c-0.39,1.016-1.095,1.843-2.114,2.48   c-1.019,0.637-2.355,0.955-4.01,0.955c-1.608,0-2.924-0.277-3.946-0.832c-1.022-0.556-1.752-1.359-2.189-2.41   c-0.437-1.052-0.655-2.488-0.655-4.31v-9.933h2.281v9.924c0,1.494,0.138,2.595,0.415,3.303c0.276,0.707,0.751,1.253,1.425,1.637   c0.674,0.383,1.498,0.574,2.471,0.574c1.667,0,2.854-0.379,3.563-1.138c0.709-0.759,1.063-2.217,1.063-4.376V99.475z"
   id="path133" />
	<path
   fill="#200E7D"
   d="M324.352,116.662v-12.453h1.891v1.77c0.915-1.367,2.235-2.051,3.963-2.051c0.75,0,1.44,0.135,2.069,0.404   c0.629,0.27,1.1,0.624,1.413,1.062s0.532,0.958,0.657,1.56c0.078,0.391,0.117,1.075,0.117,2.052v7.657h-2.109v-7.576   c0-0.859-0.082-1.502-0.246-1.929c-0.164-0.426-0.455-0.767-0.872-1.021c-0.418-0.254-0.908-0.381-1.47-0.381   c-0.898,0-1.673,0.285-2.325,0.856c-0.651,0.57-0.978,1.653-0.978,3.248v6.802H324.352z"
   id="path135" />
	<path
   fill="#200E7D"
   d="M337.715,101.896v-2.422h2.109v2.422H337.715z M337.715,116.662v-12.453h2.109v12.453H337.715z"
   id="path137" />
	<path
   fill="#200E7D"
   d="M347.641,114.783l0.312,1.863c-0.595,0.125-1.127,0.188-1.597,0.188c-0.767,0-1.361-0.121-1.784-0.363   c-0.423-0.243-0.72-0.562-0.892-0.957c-0.172-0.395-0.258-1.227-0.258-2.494v-7.17h-1.562v-1.641h1.562v-3.082l2.109-1.266v4.348   h2.109v1.641h-2.109v7.29c0,0.603,0.037,0.99,0.11,1.162c0.074,0.173,0.194,0.31,0.361,0.411s0.406,0.152,0.717,0.152   C346.954,114.865,347.26,114.838,347.641,114.783z"
   id="path139" />
	<path
   fill="#200E7D"
   d="M358.208,112.646l2.188,0.281c-0.344,1.272-0.98,2.26-1.91,2.962s-2.117,1.054-3.561,1.054   c-1.82,0-3.263-0.561-4.329-1.683c-1.065-1.122-1.599-2.694-1.599-4.72c0-2.095,0.539-3.721,1.616-4.878   c1.078-1.157,2.476-1.735,4.194-1.735c1.663,0,3.022,0.566,4.077,1.7s1.582,2.729,1.582,4.784c0,0.125-0.004,0.312-0.012,0.562   h-9.285c0.078,1.369,0.465,2.416,1.159,3.144c0.695,0.728,1.562,1.091,2.601,1.091c0.772,0,1.433-0.203,1.979-0.611   C357.454,114.19,357.887,113.54,358.208,112.646z M351.293,109.24h6.938c-0.094-1.048-0.359-1.834-0.795-2.358   c-0.671-0.813-1.541-1.22-2.609-1.22c-0.967,0-1.78,0.324-2.439,0.974S351.364,108.153,351.293,109.24z"
   id="path141" />
	<path
   fill="#200E7D"
   d="M371.125,116.662v-1.57c-0.79,1.234-1.951,1.852-3.483,1.852c-0.993,0-1.906-0.273-2.739-0.82   c-0.833-0.548-1.478-1.312-1.935-2.293c-0.458-0.98-0.686-2.108-0.686-3.383c0-1.243,0.207-2.371,0.62-3.383   c0.414-1.012,1.034-1.788,1.862-2.328c0.828-0.539,1.752-0.809,2.775-0.809c0.749,0,1.417,0.158,2.002,0.476   c0.586,0.317,1.062,0.73,1.429,1.239v-6.168h2.109v17.188H371.125z M364.454,110.449c0,1.595,0.336,2.786,1.008,3.576   c0.672,0.789,1.465,1.184,2.379,1.184c0.922,0,1.705-0.377,2.35-1.131c0.645-0.755,0.967-1.905,0.967-3.453   c0-1.703-0.328-2.954-0.984-3.752c-0.656-0.797-1.465-1.195-2.426-1.195c-0.938,0-1.721,0.383-2.35,1.148   C364.768,107.593,364.454,108.801,364.454,110.449z"
   id="path143" />
	<path
   fill="#200E7D"
   d="M383.25,116.662V99.475h2.281v8.515l8.529-8.515h3.081l-7.212,6.979l7.525,10.209h-3.001l-6.105-8.678   l-2.815,2.725v5.953H383.25z"
   id="path145" />
	<path
   fill="#200E7D"
   d="M399.087,101.896v-2.422h2.109v2.422H399.087z M399.087,116.662v-12.453h2.109v12.453H399.087z"
   id="path147" />
	<path
   fill="#200E7D"
   d="M404.403,116.662v-12.453h1.891v1.77c0.914-1.367,2.234-2.051,3.963-2.051c0.75,0,1.439,0.135,2.068,0.404   s1.101,0.624,1.413,1.062s0.532,0.958,0.657,1.56c0.078,0.391,0.117,1.075,0.117,2.052v7.657h-2.109v-7.576   c0-0.859-0.082-1.502-0.246-1.929c-0.164-0.426-0.455-0.767-0.873-1.021s-0.908-0.381-1.469-0.381   c-0.898,0-1.674,0.285-2.326,0.856c-0.65,0.57-0.977,1.653-0.977,3.248v6.802H404.403z"
   id="path149" />
	<path
   fill="#200E7D"
   d="M417.368,117.693l2.047,0.312c0.086,0.628,0.324,1.085,0.715,1.372c0.524,0.388,1.24,0.581,2.147,0.581   c0.978,0,1.733-0.195,2.265-0.584c0.531-0.391,0.892-0.936,1.08-1.637c0.109-0.43,0.16-1.329,0.152-2.701   c-0.923,1.084-2.072,1.625-3.447,1.625c-1.712,0-3.037-0.617-3.975-1.853s-1.406-2.717-1.406-4.444   c0-1.188,0.215-2.284,0.645-3.289c0.43-1.004,1.054-1.78,1.871-2.328c0.816-0.547,1.777-0.82,2.879-0.82   c1.471,0,2.682,0.594,3.637,1.781v-1.5h1.938v10.76c0,1.938-0.197,3.312-0.592,4.121c-0.395,0.809-1.02,1.447-1.875,1.916   s-1.908,0.703-3.158,0.703c-1.484,0-2.684-0.334-3.598-1.001S417.337,119.035,417.368,117.693z M419.118,110.213   c0,1.633,0.324,2.824,0.971,3.574c0.648,0.75,1.461,1.125,2.438,1.125c0.968,0,1.779-0.373,2.436-1.119s0.984-1.916,0.984-3.51   c0-1.523-0.338-2.672-1.014-3.445s-1.489-1.16-2.441-1.16c-0.938,0-1.734,0.381-2.391,1.143   C419.446,107.582,419.118,108.713,419.118,110.213z"
   id="path151" />
	<path
   fill="#200E7D"
   d="M439.177,116.662v-1.57c-0.791,1.234-1.951,1.852-3.484,1.852c-0.992,0-1.906-0.273-2.738-0.82   c-0.833-0.548-1.479-1.312-1.936-2.293c-0.457-0.98-0.686-2.108-0.686-3.383c0-1.243,0.207-2.371,0.619-3.383   c0.414-1.012,1.035-1.788,1.862-2.328c0.827-0.539,1.753-0.809,2.774-0.809c0.75,0,1.418,0.158,2.002,0.476   c0.586,0.317,1.062,0.73,1.43,1.239v-6.168h2.109v17.188H439.177z M432.505,110.449c0,1.595,0.336,2.786,1.008,3.576   c0.672,0.789,1.465,1.184,2.379,1.184c0.922,0,1.705-0.377,2.35-1.131c0.645-0.755,0.967-1.905,0.967-3.453   c0-1.703-0.328-2.954-0.984-3.752c-0.656-0.797-1.465-1.195-2.426-1.195c-0.938,0-1.721,0.383-2.35,1.148   C432.819,107.593,432.505,108.801,432.505,110.449z"
   id="path153" />
	<path
   fill="#200E7D"
   d="M443.665,110.436c0-2.307,0.641-4.014,1.92-5.124c1.07-0.923,2.375-1.384,3.914-1.384   c1.709,0,3.107,0.561,4.193,1.683s1.629,2.672,1.629,4.649c0,1.603-0.24,2.863-0.721,3.781c-0.48,0.919-1.18,1.632-2.098,2.141   c-0.918,0.508-1.919,0.762-3.004,0.762c-1.742,0-3.15-0.559-4.224-1.677S443.665,112.539,443.665,110.436z M445.837,110.438   c0,1.595,0.346,2.788,1.041,3.582c0.693,0.793,1.567,1.189,2.621,1.189c1.045,0,1.914-0.398,2.609-1.195   c0.693-0.798,1.041-2.013,1.041-3.646c0-1.539-0.35-2.706-1.047-3.5c-0.699-0.793-1.566-1.189-2.604-1.189   c-1.054,0-1.928,0.395-2.621,1.184C446.183,107.651,445.837,108.844,445.837,110.438z"
   id="path155" />
	<path
   fill="#200E7D"
   d="M457.798,116.662v-12.453h1.891v1.746c0.39-0.609,0.908-1.1,1.557-1.471   c0.647-0.371,1.385-0.557,2.213-0.557c0.92,0,1.676,0.191,2.264,0.574c0.59,0.383,1.006,0.918,1.248,1.605   c0.986-1.453,2.27-2.18,3.852-2.18c1.236,0,2.188,0.342,2.854,1.026c0.664,0.684,0.998,1.737,0.998,3.16v8.548h-2.109v-7.846   c0-0.844-0.068-1.452-0.205-1.823s-0.386-0.671-0.746-0.897c-0.359-0.227-0.781-0.34-1.266-0.34c-0.876,0-1.604,0.291-2.182,0.874   c-0.578,0.582-0.867,1.515-0.867,2.797v7.235h-2.109v-8.092c0-0.938-0.172-1.642-0.516-2.111c-0.344-0.469-0.906-0.703-1.686-0.703   c-0.594,0-1.143,0.156-1.646,0.469c-0.504,0.313-0.868,0.771-1.094,1.373c-0.227,0.602-0.34,1.469-0.34,2.603v6.462H457.798z"
   id="path157" />
</g>

<g
   id="g185">
	<path
   fill="#F8130D"
   d="M115.676,181.662v-17.188h2.281v17.188H115.676z"
   id="path187" />
	<path
   fill="#F8130D"
   d="M121.672,181.662v-12.453h1.891v1.895c0.485-0.886,0.934-1.471,1.345-1.752   c0.411-0.283,0.863-0.424,1.357-0.424c0.712,0,1.437,0.228,2.173,0.682l-0.738,1.953c-0.515-0.299-1.029-0.447-1.543-0.447   c-0.46,0-0.873,0.139-1.239,0.416s-0.628,0.662-0.784,1.154c-0.234,0.75-0.352,1.57-0.352,2.461v6.516H121.672z"
   id="path189" />
	<path
   fill="#F8130D"
   d="M138.188,177.646l2.188,0.281c-0.344,1.272-0.98,2.26-1.91,2.962s-2.117,1.054-3.561,1.054   c-1.82,0-3.263-0.561-4.329-1.683c-1.065-1.122-1.599-2.694-1.599-4.72c0-2.095,0.539-3.721,1.616-4.878   c1.078-1.157,2.476-1.735,4.194-1.735c1.663,0,3.022,0.566,4.077,1.7s1.582,2.729,1.582,4.784c0,0.125-0.004,0.312-0.012,0.562   h-9.285c0.078,1.369,0.465,2.416,1.159,3.144c0.695,0.728,1.562,1.091,2.601,1.091c0.772,0,1.433-0.203,1.979-0.611   C137.434,179.19,137.868,178.54,138.188,177.646z M131.274,174.24h6.938c-0.094-1.048-0.359-1.834-0.795-2.358   c-0.671-0.813-1.541-1.22-2.609-1.22c-0.967,0-1.78,0.324-2.439,0.974S131.344,173.153,131.274,174.24z"
   id="path191" />
	<path
   fill="#F8130D"
   d="M142.981,181.662v-17.188h2.109v17.188H142.981z"
   id="path193" />
	<path
   fill="#F8130D"
   d="M156.485,180.131c-0.785,0.662-1.538,1.131-2.26,1.403c-0.721,0.272-1.495,0.409-2.322,0.409   c-1.365,0-2.414-0.334-3.147-1.003c-0.733-0.669-1.1-1.522-1.1-2.563c0-0.609,0.139-1.166,0.415-1.671   c0.277-0.505,0.64-0.909,1.088-1.214s0.954-0.536,1.515-0.692c0.413-0.109,1.037-0.215,1.872-0.316   c1.7-0.203,2.952-0.446,3.755-0.728c0.008-0.289,0.012-0.472,0.012-0.55c0-0.858-0.199-1.463-0.597-1.814   c-0.538-0.476-1.337-0.714-2.397-0.714c-0.991,0-1.722,0.174-2.193,0.52c-0.472,0.347-0.821,0.96-1.047,1.84l-2.062-0.281   c0.188-0.882,0.496-1.594,0.925-2.137c0.43-0.542,1.05-0.96,1.862-1.252c0.812-0.293,1.752-0.439,2.822-0.439   c1.062,0,1.924,0.125,2.588,0.375c0.663,0.25,1.151,0.564,1.463,0.942c0.312,0.379,0.531,0.857,0.656,1.435   c0.07,0.359,0.105,1.008,0.105,1.946v2.814c0,1.962,0.045,3.204,0.136,3.725c0.09,0.521,0.269,1.02,0.536,1.497h-2.203   C156.688,181.226,156.547,180.715,156.485,180.131z M156.313,175.412c-0.765,0.312-1.913,0.578-3.443,0.797   c-0.866,0.125-1.479,0.266-1.839,0.422c-0.359,0.156-0.636,0.385-0.831,0.686s-0.293,0.635-0.293,1.002   c0,0.562,0.212,1.031,0.637,1.406s1.047,0.562,1.865,0.562c0.811,0,1.531-0.178,2.162-0.533c0.632-0.356,1.095-0.843,1.392-1.46   c0.226-0.477,0.339-1.179,0.339-2.108L156.313,175.412z"
   id="path195" />
	<path
   fill="#F8130D"
   d="M161.708,181.662v-12.453h1.891v1.77c0.915-1.367,2.235-2.051,3.963-2.051c0.75,0,1.44,0.135,2.069,0.404   c0.629,0.27,1.1,0.624,1.413,1.062s0.532,0.958,0.657,1.56c0.078,0.391,0.117,1.075,0.117,2.052v7.657h-2.109v-7.576   c0-0.859-0.082-1.502-0.246-1.929c-0.164-0.426-0.455-0.767-0.872-1.021c-0.418-0.254-0.908-0.381-1.47-0.381   c-0.898,0-1.673,0.285-2.325,0.856c-0.651,0.57-0.978,1.653-0.978,3.248v6.802H161.708z"
   id="path197" />
	<path
   fill="#F8130D"
   d="M183.133,181.662v-1.57c-0.79,1.234-1.951,1.852-3.483,1.852c-0.993,0-1.906-0.273-2.739-0.82   c-0.833-0.548-1.478-1.312-1.935-2.293c-0.458-0.98-0.686-2.108-0.686-3.383c0-1.243,0.207-2.371,0.62-3.383   c0.414-1.012,1.034-1.788,1.862-2.328c0.828-0.539,1.752-0.809,2.775-0.809c0.749,0,1.417,0.158,2.002,0.476   c0.586,0.317,1.062,0.73,1.429,1.239v-6.168h2.109v17.188H183.133z M176.461,175.449c0,1.595,0.336,2.786,1.008,3.576   c0.672,0.789,1.465,1.184,2.379,1.184c0.922,0,1.705-0.377,2.35-1.131c0.645-0.755,0.967-1.905,0.967-3.453   c0-1.703-0.328-2.954-0.984-3.752c-0.656-0.797-1.465-1.195-2.426-1.195c-0.938,0-1.721,0.383-2.35,1.148   C176.776,172.593,176.461,173.801,176.461,175.449z"
   id="path199" />
</g>
<g
   id="g201">
	<path
   fill="#F8130D"
   d="M373.333,175.928v-2.031h7.281v6.378c-1.117,0.891-2.27,1.562-3.457,2.011s-2.406,0.674-3.656,0.674   c-1.688,0-3.221-0.361-4.6-1.085s-2.42-1.769-3.123-3.138c-0.703-1.368-1.055-2.896-1.055-4.586c0-1.674,0.35-3.235,1.049-4.686   s1.705-2.527,3.017-3.231c1.312-0.704,2.824-1.056,4.535-1.056c1.242,0,2.365,0.202,3.369,0.604   c1.004,0.403,1.791,0.965,2.361,1.685s1.004,1.66,1.301,2.818l-2.058,0.562c-0.258-0.875-0.578-1.563-0.96-2.063   s-0.929-0.901-1.639-1.202c-0.711-0.301-1.499-0.451-2.366-0.451c-1.039,0-1.936,0.158-2.693,0.475s-1.369,0.733-1.833,1.25   c-0.465,0.516-0.826,1.082-1.083,1.7c-0.437,1.063-0.656,2.217-0.656,3.46c0,1.533,0.264,2.814,0.791,3.848   c0.527,1.031,1.294,1.798,2.301,2.299c1.007,0.5,2.076,0.75,3.208,0.75c0.984,0,1.944-0.189,2.881-0.568   c0.937-0.38,1.647-0.784,2.131-1.215v-3.201H373.333z"
   id="path203" />
	<path
   fill="#F8130D"
   d="M383.672,182.662v-12.453h1.891v1.895c0.485-0.886,0.934-1.471,1.345-1.752   c0.411-0.283,0.863-0.424,1.357-0.424c0.712,0,1.437,0.228,2.173,0.682l-0.738,1.953c-0.515-0.299-1.029-0.447-1.543-0.447   c-0.46,0-0.873,0.139-1.239,0.416s-0.628,0.662-0.784,1.154c-0.234,0.75-0.352,1.57-0.352,2.461v6.516H383.672z"
   id="path205" />
	<path
   fill="#F8130D"
   d="M400.188,178.646l2.188,0.281c-0.344,1.272-0.98,2.26-1.91,2.962s-2.117,1.054-3.561,1.054   c-1.821,0-3.263-0.561-4.33-1.683c-1.065-1.122-1.599-2.694-1.599-4.72c0-2.095,0.539-3.721,1.616-4.878   c1.078-1.157,2.476-1.735,4.195-1.735c1.662,0,3.021,0.566,4.076,1.7s1.582,2.729,1.582,4.784c0,0.125-0.004,0.312-0.012,0.562   h-9.286c0.078,1.369,0.465,2.416,1.159,3.144c0.695,0.728,1.562,1.091,2.601,1.091c0.771,0,1.432-0.203,1.979-0.611   C399.435,180.19,399.868,179.54,400.188,178.646z M393.274,175.24h6.938c-0.094-1.048-0.359-1.834-0.796-2.358   c-0.671-0.813-1.54-1.22-2.608-1.22c-0.968,0-1.781,0.324-2.44,0.974S393.344,174.153,393.274,175.24z"
   id="path207" />
	<path
   fill="#F8130D"
   d="M413.153,181.131c-0.785,0.662-1.539,1.131-2.26,1.403c-0.722,0.272-1.496,0.409-2.322,0.409   c-1.365,0-2.414-0.334-3.146-1.003c-0.734-0.669-1.1-1.522-1.1-2.563c0-0.609,0.139-1.166,0.414-1.671   c0.277-0.505,0.641-0.909,1.088-1.214c0.449-0.305,0.954-0.536,1.516-0.692c0.413-0.109,1.037-0.215,1.871-0.316   c1.701-0.203,2.952-0.446,3.756-0.728c0.008-0.289,0.012-0.472,0.012-0.55c0-0.858-0.199-1.463-0.598-1.814   c-0.537-0.476-1.336-0.714-2.396-0.714c-0.991,0-1.723,0.174-2.193,0.52c-0.473,0.347-0.821,0.96-1.047,1.84l-2.062-0.281   c0.188-0.882,0.495-1.594,0.924-2.137c0.43-0.542,1.051-0.96,1.863-1.252c0.811-0.293,1.752-0.439,2.822-0.439   c1.061,0,1.924,0.125,2.588,0.375c0.662,0.25,1.15,0.564,1.463,0.942c0.312,0.379,0.531,0.857,0.656,1.435   c0.07,0.359,0.105,1.008,0.105,1.946v2.814c0,1.962,0.045,3.204,0.135,3.725s0.27,1.02,0.537,1.497h-2.203   C413.356,182.226,413.216,181.715,413.153,181.131z M412.981,176.412c-0.766,0.312-1.914,0.578-3.443,0.797   c-0.867,0.125-1.48,0.266-1.84,0.422c-0.358,0.156-0.635,0.385-0.83,0.686s-0.293,0.635-0.293,1.002   c0,0.562,0.211,1.031,0.637,1.406c0.424,0.375,1.047,0.562,1.865,0.562c0.811,0,1.531-0.178,2.162-0.533   c0.631-0.356,1.095-0.843,1.391-1.46c0.227-0.477,0.34-1.179,0.34-2.108L412.981,176.412z"
   id="path209" />
	<path
   fill="#F8130D"
   d="M422.985,180.783l0.312,1.863c-0.596,0.125-1.127,0.188-1.598,0.188c-0.766,0-1.361-0.121-1.783-0.363   c-0.424-0.243-0.721-0.562-0.893-0.957c-0.172-0.395-0.258-1.227-0.258-2.494v-7.17h-1.562v-1.641h1.562v-3.082l2.109-1.266v4.348   h2.109v1.641h-2.109v7.29c0,0.603,0.037,0.99,0.109,1.162c0.074,0.173,0.195,0.31,0.361,0.411c0.168,0.102,0.406,0.152,0.717,0.152   C422.298,180.865,422.604,180.838,422.985,180.783z"
   id="path211" />
	<path
   fill="#F8130D"
   d="M431.899,182.662v-17.188h6.445c1.312,0,2.365,0.174,3.158,0.522s1.414,0.884,1.863,1.607   c0.449,0.724,0.674,1.48,0.674,2.27c0,0.735-0.199,1.428-0.598,2.076c-0.397,0.649-0.998,1.174-1.801,1.572   c1.036,0.305,1.833,0.824,2.391,1.559c0.557,0.734,0.836,1.602,0.836,2.602c0,0.805-0.17,1.553-0.51,2.244s-0.76,1.225-1.26,1.6   s-1.127,0.658-1.881,0.85s-1.677,0.287-2.77,0.287H431.899z M434.181,172.693h3.713c1.007,0,1.729-0.066,2.166-0.199   c0.578-0.172,1.014-0.457,1.307-0.854c0.293-0.398,0.439-0.897,0.439-1.499c0-0.57-0.137-1.071-0.41-1.505   c-0.273-0.433-0.664-0.729-1.172-0.89s-1.378-0.24-2.611-0.24h-3.432V172.693z M434.181,180.631h4.277   c0.734,0,1.25-0.027,1.547-0.082c0.523-0.094,0.961-0.25,1.312-0.469s0.641-0.537,0.867-0.955s0.34-0.9,0.34-1.447   c0-0.641-0.166-1.197-0.494-1.67c-0.33-0.473-0.785-0.805-1.367-0.996s-1.419-0.287-2.512-0.287h-3.971V180.631z"
   id="path213" />
	<path
   fill="#F8130D"
   d="M447.704,182.662v-12.453h1.891v1.895c0.484-0.886,0.934-1.471,1.344-1.752   c0.412-0.283,0.863-0.424,1.357-0.424c0.713,0,1.438,0.228,2.174,0.682l-0.738,1.953c-0.515-0.299-1.029-0.447-1.543-0.447   c-0.461,0-0.873,0.139-1.24,0.416c-0.365,0.277-0.627,0.662-0.783,1.154c-0.234,0.75-0.352,1.57-0.352,2.461v6.516H447.704z"
   id="path215" />
	<path
   fill="#F8130D"
   d="M455.728,167.896v-2.422h2.109v2.422H455.728z M455.728,182.662v-12.453h2.109v12.453H455.728z"
   id="path217" />
	<path
   fill="#F8130D"
   d="M465.653,180.783l0.312,1.863c-0.596,0.125-1.127,0.188-1.598,0.188c-0.766,0-1.361-0.121-1.783-0.363   c-0.424-0.243-0.721-0.562-0.893-0.957c-0.172-0.395-0.258-1.227-0.258-2.494v-7.17h-1.562v-1.641h1.562v-3.082l2.109-1.266v4.348   h2.109v1.641h-2.109v7.29c0,0.603,0.037,0.99,0.109,1.162c0.074,0.173,0.195,0.31,0.361,0.411c0.168,0.102,0.406,0.152,0.717,0.152   C464.966,180.865,465.272,180.838,465.653,180.783z"
   id="path219" />
	<path
   fill="#F8130D"
   d="M475.837,181.131c-0.785,0.662-1.539,1.131-2.26,1.403c-0.722,0.272-1.496,0.409-2.322,0.409   c-1.365,0-2.414-0.334-3.146-1.003c-0.734-0.669-1.1-1.522-1.1-2.563c0-0.609,0.139-1.166,0.414-1.671   c0.277-0.505,0.641-0.909,1.088-1.214c0.449-0.305,0.954-0.536,1.516-0.692c0.413-0.109,1.037-0.215,1.871-0.316   c1.701-0.203,2.952-0.446,3.756-0.728c0.008-0.289,0.012-0.472,0.012-0.55c0-0.858-0.199-1.463-0.598-1.814   c-0.537-0.476-1.336-0.714-2.396-0.714c-0.991,0-1.723,0.174-2.193,0.52c-0.473,0.347-0.821,0.96-1.047,1.84l-2.062-0.281   c0.188-0.882,0.495-1.594,0.924-2.137c0.43-0.542,1.051-0.96,1.863-1.252c0.811-0.293,1.752-0.439,2.822-0.439   c1.061,0,1.924,0.125,2.588,0.375c0.662,0.25,1.15,0.564,1.463,0.942c0.312,0.379,0.531,0.857,0.656,1.435   c0.07,0.359,0.105,1.008,0.105,1.946v2.814c0,1.962,0.045,3.204,0.135,3.725s0.27,1.02,0.537,1.497h-2.203   C476.04,182.226,475.899,181.715,475.837,181.131z M475.665,176.412c-0.766,0.312-1.914,0.578-3.443,0.797   c-0.867,0.125-1.48,0.266-1.84,0.422c-0.358,0.156-0.635,0.385-0.83,0.686s-0.293,0.635-0.293,1.002   c0,0.562,0.211,1.031,0.637,1.406c0.424,0.375,1.047,0.562,1.865,0.562c0.811,0,1.531-0.178,2.162-0.533   c0.631-0.356,1.095-0.843,1.391-1.46c0.227-0.477,0.34-1.179,0.34-2.108L475.665,176.412z"
   id="path221" />
	<path
   fill="#F8130D"
   d="M481.075,167.896v-2.422h2.109v2.422H481.075z M481.075,182.662v-12.453h2.109v12.453H481.075z"
   id="path223" />
	<path
   fill="#F8130D"
   d="M486.392,182.662v-12.453h1.891v1.77c0.914-1.367,2.234-2.051,3.963-2.051c0.75,0,1.439,0.135,2.068,0.404   s1.101,0.624,1.413,1.062s0.532,0.958,0.657,1.56c0.078,0.391,0.117,1.075,0.117,2.052v7.657h-2.109v-7.576   c0-0.859-0.082-1.502-0.246-1.929c-0.164-0.426-0.455-0.767-0.873-1.021s-0.908-0.381-1.469-0.381   c-0.898,0-1.674,0.285-2.326,0.856c-0.65,0.57-0.977,1.653-0.977,3.248v6.802H486.392z"
   id="path225" />
</g>
<g
   id="g227">
	<path
   fill="#F8130D"
   d="M536.536,464.635l2.281,0.574c-0.477,1.87-1.334,3.296-2.57,4.277c-1.236,0.982-2.749,1.473-4.536,1.473   c-1.85,0-3.354-0.377-4.513-1.132c-1.16-0.755-2.041-1.847-2.646-3.278c-0.604-1.431-0.906-2.967-0.906-4.609   c0-1.791,0.341-3.353,1.023-4.686c0.683-1.334,1.654-2.346,2.914-3.038s2.646-1.038,4.16-1.038c1.717,0,3.16,0.438,4.33,1.314   c1.172,0.877,1.986,2.109,2.447,3.697l-2.234,0.527c-0.398-1.25-0.976-2.16-1.732-2.73c-0.756-0.57-1.709-0.855-2.855-0.855   c-1.318,0-2.42,0.316-3.305,0.949c-0.886,0.633-1.508,1.482-1.867,2.549c-0.358,1.066-0.537,2.166-0.537,3.299   c0,1.461,0.212,2.736,0.637,3.826s1.086,1.904,1.982,2.443s1.867,0.809,2.911,0.809c1.271,0,2.347-0.367,3.228-1.102   S536.224,466.08,536.536,464.635z"
   id="path229" />
	<path
   fill="#F8130D"
   d="M541.353,470.662v-17.188h2.109v6.16c0.984-1.138,2.227-1.707,3.729-1.707c0.922,0,1.723,0.182,2.402,0.545   c0.68,0.364,1.167,0.866,1.461,1.508c0.293,0.641,0.439,1.57,0.439,2.79v7.892h-2.109v-7.896c0-1.056-0.229-1.824-0.687-2.305   c-0.458-0.481-1.104-0.722-1.94-0.722c-0.625,0-1.215,0.162-1.766,0.486c-0.551,0.325-0.943,0.766-1.178,1.32   s-0.352,1.322-0.352,2.299v6.816H541.353z"
   id="path231" />
	<path
   fill="#F8130D"
   d="M562.825,469.131c-0.785,0.662-1.539,1.131-2.26,1.403c-0.722,0.272-1.496,0.409-2.322,0.409   c-1.365,0-2.414-0.334-3.146-1.003c-0.734-0.669-1.1-1.522-1.1-2.563c0-0.609,0.139-1.166,0.414-1.671   c0.277-0.505,0.641-0.909,1.088-1.214c0.449-0.305,0.954-0.536,1.516-0.692c0.413-0.109,1.037-0.215,1.871-0.316   c1.701-0.203,2.952-0.446,3.756-0.728c0.008-0.289,0.012-0.472,0.012-0.55c0-0.858-0.199-1.463-0.598-1.814   c-0.537-0.476-1.336-0.714-2.396-0.714c-0.991,0-1.723,0.174-2.193,0.52c-0.473,0.347-0.821,0.96-1.047,1.84l-2.062-0.281   c0.188-0.882,0.495-1.594,0.924-2.137c0.43-0.542,1.051-0.96,1.863-1.252c0.811-0.293,1.752-0.439,2.822-0.439   c1.061,0,1.924,0.125,2.588,0.375c0.662,0.25,1.15,0.564,1.463,0.942c0.312,0.379,0.531,0.857,0.656,1.435   c0.07,0.359,0.105,1.008,0.105,1.946v2.814c0,1.962,0.045,3.204,0.135,3.725s0.27,1.02,0.537,1.497h-2.203   C563.028,470.226,562.888,469.715,562.825,469.131z M562.653,464.412c-0.766,0.312-1.914,0.578-3.443,0.797   c-0.867,0.125-1.48,0.266-1.84,0.422c-0.358,0.156-0.635,0.385-0.83,0.686s-0.293,0.635-0.293,1.002   c0,0.562,0.211,1.031,0.637,1.406c0.424,0.375,1.047,0.562,1.865,0.562c0.811,0,1.531-0.178,2.162-0.533   c0.631-0.356,1.095-0.843,1.391-1.46c0.227-0.477,0.34-1.179,0.34-2.108L562.653,464.412z"
   id="path233" />
	<path
   fill="#F8130D"
   d="M568.048,470.662v-12.453h1.891v1.77c0.914-1.367,2.234-2.051,3.963-2.051c0.75,0,1.439,0.135,2.068,0.404   s1.101,0.624,1.413,1.062s0.532,0.958,0.657,1.56c0.078,0.391,0.117,1.075,0.117,2.052v7.657h-2.109v-7.576   c0-0.859-0.082-1.502-0.246-1.929c-0.164-0.426-0.455-0.767-0.873-1.021s-0.908-0.381-1.469-0.381   c-0.898,0-1.674,0.285-2.326,0.856c-0.65,0.57-0.977,1.653-0.977,3.248v6.802H568.048z"
   id="path235" />
	<path
   fill="#F8130D"
   d="M581.396,470.662v-12.453h1.891v1.77c0.914-1.367,2.234-2.051,3.963-2.051c0.75,0,1.439,0.135,2.068,0.404   s1.101,0.624,1.413,1.062s0.532,0.958,0.657,1.56c0.078,0.391,0.117,1.075,0.117,2.052v7.657h-2.109v-7.576   c0-0.859-0.082-1.502-0.246-1.929c-0.164-0.426-0.455-0.767-0.873-1.021s-0.908-0.381-1.469-0.381   c-0.898,0-1.674,0.285-2.326,0.856c-0.65,0.57-0.977,1.653-0.977,3.248v6.802H581.396z"
   id="path237" />
	<path
   fill="#F8130D"
   d="M603.251,466.646l2.188,0.281c-0.344,1.272-0.98,2.26-1.91,2.962s-2.117,1.054-3.561,1.054   c-1.82,0-3.264-0.561-4.33-1.683c-1.064-1.122-1.598-2.694-1.598-4.72c0-2.095,0.539-3.721,1.615-4.878   c1.078-1.157,2.477-1.735,4.195-1.735c1.662,0,3.021,0.566,4.076,1.7s1.582,2.729,1.582,4.784c0,0.125-0.004,0.312-0.012,0.562   h-9.285c0.078,1.369,0.465,2.416,1.158,3.144c0.695,0.728,1.562,1.091,2.602,1.091c0.771,0,1.432-0.203,1.979-0.611   C602.497,468.19,602.931,467.54,603.251,466.646z M596.337,463.24h6.938c-0.094-1.048-0.359-1.834-0.796-2.358   c-0.671-0.813-1.54-1.22-2.608-1.22c-0.968,0-1.781,0.324-2.439,0.974C596.771,461.285,596.407,462.153,596.337,463.24z"
   id="path239" />
	<path
   fill="#F8130D"
   d="M608.044,470.662v-17.188h2.109v17.188H608.044z"
   id="path241" />
	<path
   fill="#F8130D"
   d="M620.747,470.662v-17.188h2.281v17.188H620.747z"
   id="path243" />
	<path
   fill="#F8130D"
   d="M625.915,466.943l2.094-0.328c0.117,0.838,0.443,1.479,0.977,1.925c0.535,0.446,1.283,0.669,2.244,0.669   c0.967,0,1.686-0.197,2.154-0.592c0.469-0.396,0.703-0.859,0.703-1.391c0-0.477-0.207-0.853-0.619-1.126   c-0.287-0.188-1.004-0.427-2.151-0.716c-1.544-0.391-2.616-0.729-3.216-1.014s-1.053-0.681-1.363-1.185   c-0.309-0.504-0.463-1.062-0.463-1.671c0-0.555,0.127-1.068,0.381-1.542c0.254-0.473,0.6-0.865,1.037-1.179   c0.328-0.242,0.775-0.447,1.342-0.615s1.174-0.252,1.822-0.252c0.977,0,1.834,0.141,2.572,0.423s1.283,0.664,1.635,1.146   s0.594,1.125,0.727,1.932l-2.062,0.281c-0.094-0.643-0.365-1.145-0.814-1.506c-0.447-0.36-1.082-0.541-1.9-0.541   c-0.968,0-1.658,0.16-2.072,0.48c-0.413,0.321-0.619,0.696-0.619,1.127c0,0.273,0.086,0.52,0.258,0.738   c0.17,0.228,0.439,0.415,0.807,0.563c0.211,0.078,0.83,0.259,1.861,0.54c1.488,0.398,2.529,0.725,3.119,0.979   s1.053,0.624,1.389,1.108s0.504,1.087,0.504,1.806c0,0.703-0.205,1.366-0.616,1.987c-0.411,0.622-1.003,1.103-1.776,1.442   c-0.774,0.34-1.65,0.51-2.627,0.51c-1.619,0-2.852-0.336-3.701-1.009C626.69,469.262,626.149,468.266,625.915,466.943z"
   id="path245" />
	<path
   fill="#F8130D"
   d="M638.712,470.662v-17.188h2.109v17.188H638.712z"
   id="path247" />
	<path
   fill="#F8130D"
   d="M652.216,469.131c-0.785,0.662-1.539,1.131-2.26,1.403c-0.722,0.272-1.496,0.409-2.322,0.409   c-1.365,0-2.414-0.334-3.146-1.003c-0.734-0.669-1.1-1.522-1.1-2.563c0-0.609,0.139-1.166,0.414-1.671   c0.277-0.505,0.641-0.909,1.088-1.214c0.449-0.305,0.954-0.536,1.516-0.692c0.413-0.109,1.037-0.215,1.871-0.316   c1.701-0.203,2.952-0.446,3.756-0.728c0.008-0.289,0.012-0.472,0.012-0.55c0-0.858-0.199-1.463-0.598-1.814   c-0.537-0.476-1.336-0.714-2.396-0.714c-0.991,0-1.723,0.174-2.193,0.52c-0.473,0.347-0.821,0.96-1.047,1.84l-2.062-0.281   c0.188-0.882,0.495-1.594,0.924-2.137c0.43-0.542,1.051-0.96,1.863-1.252c0.811-0.293,1.752-0.439,2.822-0.439   c1.061,0,1.924,0.125,2.588,0.375c0.662,0.25,1.15,0.564,1.463,0.942c0.312,0.379,0.531,0.857,0.656,1.435   c0.07,0.359,0.105,1.008,0.105,1.946v2.814c0,1.962,0.045,3.204,0.135,3.725s0.27,1.02,0.537,1.497h-2.203   C652.419,470.226,652.278,469.715,652.216,469.131z M652.044,464.412c-0.766,0.312-1.914,0.578-3.443,0.797   c-0.867,0.125-1.48,0.266-1.84,0.422c-0.358,0.156-0.635,0.385-0.83,0.686s-0.293,0.635-0.293,1.002   c0,0.562,0.211,1.031,0.637,1.406c0.424,0.375,1.047,0.562,1.865,0.562c0.811,0,1.531-0.178,2.162-0.533   c0.631-0.356,1.095-0.843,1.391-1.46c0.227-0.477,0.34-1.179,0.34-2.108L652.044,464.412z"
   id="path249" />
	<path
   fill="#F8130D"
   d="M657.438,470.662v-12.453h1.891v1.77c0.914-1.367,2.234-2.051,3.963-2.051c0.75,0,1.439,0.135,2.068,0.404   s1.101,0.624,1.413,1.062s0.532,0.958,0.657,1.56c0.078,0.391,0.117,1.075,0.117,2.052v7.657h-2.109v-7.576   c0-0.859-0.082-1.502-0.246-1.929c-0.164-0.426-0.455-0.767-0.873-1.021s-0.908-0.381-1.469-0.381   c-0.898,0-1.674,0.285-2.326,0.856c-0.65,0.57-0.977,1.653-0.977,3.248v6.802H657.438z"
   id="path251" />
	<path
   fill="#F8130D"
   d="M678.864,470.662v-1.57c-0.791,1.234-1.951,1.852-3.484,1.852c-0.992,0-1.906-0.273-2.738-0.82   c-0.833-0.548-1.479-1.312-1.936-2.293c-0.457-0.98-0.686-2.108-0.686-3.383c0-1.243,0.207-2.371,0.619-3.383   c0.414-1.012,1.035-1.788,1.862-2.328c0.827-0.539,1.753-0.809,2.774-0.809c0.75,0,1.418,0.158,2.002,0.476   c0.586,0.317,1.062,0.73,1.43,1.239v-6.168h2.109v17.188H678.864z M672.192,464.449c0,1.595,0.336,2.786,1.008,3.576   c0.672,0.789,1.465,1.184,2.379,1.184c0.922,0,1.705-0.377,2.35-1.131c0.645-0.755,0.967-1.905,0.967-3.453   c0-1.703-0.328-2.954-0.984-3.752c-0.656-0.797-1.465-1.195-2.426-1.195c-0.938,0-1.721,0.383-2.35,1.148   C672.507,461.593,672.192,462.801,672.192,464.449z"
   id="path253" />
	<path
   fill="#F8130D"
   d="M683.29,466.943l2.094-0.328c0.117,0.838,0.443,1.479,0.977,1.925c0.535,0.446,1.283,0.669,2.244,0.669   c0.967,0,1.686-0.197,2.154-0.592c0.469-0.396,0.703-0.859,0.703-1.391c0-0.477-0.207-0.853-0.619-1.126   c-0.287-0.188-1.004-0.427-2.151-0.716c-1.544-0.391-2.616-0.729-3.216-1.014s-1.053-0.681-1.363-1.185   c-0.309-0.504-0.463-1.062-0.463-1.671c0-0.555,0.127-1.068,0.381-1.542c0.254-0.473,0.6-0.865,1.037-1.179   c0.328-0.242,0.775-0.447,1.342-0.615s1.174-0.252,1.822-0.252c0.977,0,1.834,0.141,2.572,0.423s1.283,0.664,1.635,1.146   s0.594,1.125,0.727,1.932l-2.062,0.281c-0.094-0.643-0.365-1.145-0.814-1.506c-0.447-0.36-1.082-0.541-1.9-0.541   c-0.968,0-1.658,0.16-2.072,0.48c-0.413,0.321-0.619,0.696-0.619,1.127c0,0.273,0.086,0.52,0.258,0.738   c0.17,0.228,0.439,0.415,0.807,0.563c0.211,0.078,0.83,0.259,1.861,0.54c1.488,0.398,2.529,0.725,3.119,0.979   s1.053,0.624,1.389,1.108s0.504,1.087,0.504,1.806c0,0.703-0.205,1.366-0.616,1.987c-0.411,0.622-1.003,1.103-1.776,1.442   c-0.774,0.34-1.65,0.51-2.627,0.51c-1.619,0-2.852-0.336-3.701-1.009C684.065,469.262,683.524,468.266,683.29,466.943z"
   id="path255" />
</g>
<g
   id="g257">
	<path
   fill="#200E7D"
   d="M440.536,219.146l2.141-0.188c0.102,0.861,0.338,1.567,0.709,2.119c0.371,0.553,0.947,0.998,1.729,1.339   s1.662,0.511,2.639,0.511c0.867,0,1.633-0.129,2.297-0.388c0.664-0.258,1.159-0.612,1.484-1.062   c0.324-0.45,0.486-0.941,0.486-1.474c0-0.54-0.158-1.012-0.475-1.415c-0.317-0.403-0.836-0.741-1.555-1.016   c-0.461-0.18-1.482-0.46-3.062-0.839c-1.579-0.38-2.686-0.738-3.317-1.074c-0.82-0.431-1.432-0.964-1.833-1.602   s-0.603-1.352-0.603-2.141c0-0.869,0.246-1.68,0.738-2.435s1.213-1.328,2.158-1.719c0.947-0.392,1.998-0.587,3.156-0.587   c1.273,0,2.398,0.206,3.371,0.616c0.975,0.411,1.723,1.016,2.246,1.813c0.525,0.798,0.807,1.701,0.846,2.711l-2.188,0.172   c-0.117-1.092-0.516-1.917-1.191-2.476c-0.676-0.558-1.676-0.837-2.996-0.837c-1.377,0-2.381,0.253-3.01,0.758   s-0.943,1.113-0.943,1.825c0,0.619,0.223,1.128,0.668,1.526c0.438,0.399,1.582,0.809,3.432,1.228s3.118,0.784,3.807,1.097   c1.003,0.462,1.742,1.047,2.221,1.754c0.477,0.707,0.717,1.522,0.717,2.445c0,0.915-0.262,1.777-0.785,2.586   c-0.523,0.81-1.275,1.438-2.256,1.889c-0.98,0.449-2.084,0.674-3.309,0.674c-1.555,0-2.857-0.227-3.908-0.68   s-1.874-1.135-2.471-2.045C440.882,221.324,440.567,220.295,440.536,219.146z"
   id="path259" />
	<path
   fill="#200E7D"
   d="M465.153,220.1l2.078,0.281c-0.227,1.428-0.807,2.545-1.742,3.352c-0.934,0.808-2.08,1.211-3.439,1.211   c-1.704,0-3.074-0.557-4.109-1.671s-1.553-2.71-1.553-4.79c0-1.345,0.223-2.521,0.668-3.529s1.123-1.765,2.033-2.27   c0.91-0.504,1.9-0.756,2.971-0.756c1.352,0,2.457,0.342,3.316,1.025s1.41,1.654,1.652,2.912l-2.047,0.312   c-0.195-0.834-0.541-1.463-1.037-1.884s-1.096-0.632-1.799-0.632c-1.062,0-1.926,0.381-2.59,1.144s-0.996,1.969-0.996,3.618   c0,1.674,0.32,2.889,0.959,3.647c0.641,0.759,1.477,1.138,2.508,1.138c0.827,0,1.518-0.254,2.072-0.763   S465.005,221.156,465.153,220.1z"
   id="path261" />
	<path
   fill="#200E7D"
   d="M468.247,218.436c0-2.307,0.641-4.014,1.92-5.124c1.07-0.923,2.375-1.384,3.914-1.384   c1.709,0,3.107,0.561,4.193,1.683s1.629,2.672,1.629,4.649c0,1.603-0.24,2.863-0.721,3.781c-0.48,0.919-1.18,1.632-2.098,2.141   c-0.918,0.508-1.919,0.762-3.004,0.762c-1.742,0-3.15-0.559-4.224-1.677S468.247,220.539,468.247,218.436z M470.419,218.438   c0,1.595,0.346,2.788,1.041,3.582c0.693,0.793,1.567,1.189,2.621,1.189c1.045,0,1.914-0.398,2.609-1.195   c0.693-0.798,1.041-2.013,1.041-3.646c0-1.539-0.35-2.706-1.047-3.5c-0.699-0.793-1.566-1.189-2.604-1.189   c-1.054,0-1.928,0.395-2.621,1.184C470.765,215.651,470.419,216.844,470.419,218.438z"
   id="path263" />
	<path
   fill="#200E7D"
   d="M486.985,222.783l0.312,1.863c-0.596,0.125-1.127,0.188-1.598,0.188c-0.766,0-1.361-0.121-1.783-0.363   c-0.424-0.243-0.721-0.562-0.893-0.957c-0.172-0.395-0.258-1.227-0.258-2.494v-7.17h-1.562v-1.641h1.562v-3.082l2.109-1.266v4.348   h2.109v1.641h-2.109v7.29c0,0.603,0.037,0.99,0.109,1.162c0.074,0.173,0.195,0.31,0.361,0.411c0.168,0.102,0.406,0.152,0.717,0.152   C486.298,222.865,486.604,222.838,486.985,222.783z"
   id="path265" />
	<path
   fill="#200E7D"
   d="M488.997,224.662v-17.188h2.109v17.188H488.997z"
   id="path267" />
	<path
   fill="#200E7D"
   d="M502.501,223.131c-0.785,0.662-1.539,1.131-2.26,1.403c-0.722,0.272-1.496,0.409-2.322,0.409   c-1.365,0-2.414-0.334-3.146-1.003c-0.734-0.669-1.1-1.522-1.1-2.563c0-0.609,0.139-1.166,0.414-1.671   c0.277-0.505,0.641-0.909,1.088-1.214c0.449-0.305,0.954-0.536,1.516-0.692c0.413-0.109,1.037-0.215,1.871-0.316   c1.701-0.203,2.952-0.446,3.756-0.728c0.008-0.289,0.012-0.472,0.012-0.55c0-0.858-0.199-1.463-0.598-1.814   c-0.537-0.476-1.336-0.714-2.396-0.714c-0.991,0-1.723,0.174-2.193,0.52c-0.473,0.347-0.821,0.96-1.047,1.84l-2.062-0.281   c0.188-0.882,0.495-1.594,0.924-2.137c0.43-0.542,1.051-0.96,1.863-1.252c0.811-0.293,1.752-0.439,2.822-0.439   c1.061,0,1.924,0.125,2.588,0.375c0.662,0.25,1.15,0.564,1.463,0.942c0.312,0.379,0.531,0.857,0.656,1.435   c0.07,0.359,0.105,1.008,0.105,1.946v2.814c0,1.962,0.045,3.204,0.135,3.725s0.27,1.02,0.537,1.497h-2.203   C502.704,224.226,502.563,223.715,502.501,223.131z M502.329,218.412c-0.766,0.312-1.914,0.578-3.443,0.797   c-0.867,0.125-1.48,0.266-1.84,0.422c-0.358,0.156-0.635,0.385-0.83,0.686s-0.293,0.635-0.293,1.002   c0,0.562,0.211,1.031,0.637,1.406c0.424,0.375,1.047,0.562,1.865,0.562c0.811,0,1.531-0.178,2.162-0.533   c0.631-0.356,1.095-0.843,1.391-1.46c0.227-0.477,0.34-1.179,0.34-2.108L502.329,218.412z"
   id="path269" />
	<path
   fill="#200E7D"
   d="M507.724,224.662v-12.453h1.891v1.77c0.914-1.367,2.234-2.051,3.963-2.051c0.75,0,1.439,0.135,2.068,0.404   s1.101,0.624,1.413,1.062s0.532,0.958,0.657,1.56c0.078,0.391,0.117,1.075,0.117,2.052v7.657h-2.109v-7.576   c0-0.859-0.082-1.502-0.246-1.929c-0.164-0.426-0.455-0.767-0.873-1.021s-0.908-0.381-1.469-0.381   c-0.898,0-1.674,0.285-2.326,0.856c-0.65,0.57-0.977,1.653-0.977,3.248v6.802H507.724z"
   id="path271" />
	<path
   fill="#200E7D"
   d="M529.149,224.662v-1.57c-0.791,1.234-1.951,1.852-3.484,1.852c-0.992,0-1.906-0.273-2.738-0.82   c-0.833-0.548-1.479-1.312-1.936-2.293c-0.457-0.98-0.686-2.108-0.686-3.383c0-1.243,0.207-2.371,0.619-3.383   c0.414-1.012,1.035-1.788,1.862-2.328c0.827-0.539,1.753-0.809,2.774-0.809c0.75,0,1.418,0.158,2.002,0.476   c0.586,0.317,1.062,0.73,1.43,1.239v-6.168h2.109v17.188H529.149z M522.478,218.449c0,1.595,0.336,2.786,1.008,3.576   c0.672,0.789,1.465,1.184,2.379,1.184c0.922,0,1.705-0.377,2.35-1.131c0.645-0.755,0.967-1.905,0.967-3.453   c0-1.703-0.328-2.954-0.984-3.752c-0.656-0.797-1.465-1.195-2.426-1.195c-0.938,0-1.721,0.383-2.35,1.148   C522.792,215.593,522.478,216.801,522.478,218.449z"
   id="path273" />
</g>
<g
   id="g275">
	<path
   fill="#200E7D"
   d="M369.303,347.663l-4.564-17.188h2.333l2.615,11.268c0.288,1.179,0.532,2.351,0.732,3.517   c0.437-1.833,0.694-2.891,0.771-3.172l3.276-11.612h2.741l2.464,8.698c0.609,2.158,1.057,4.187,1.341,6.086   c0.227-1.079,0.51-2.324,0.849-3.733l2.702-11.051h2.285l-4.706,17.188h-2.2l-3.609-13.099c-0.312-1.092-0.496-1.763-0.555-2.014   c-0.186,0.795-0.354,1.471-0.506,2.026l-3.631,13.086H369.303z"
   id="path277" />
	<path
   fill="#200E7D"
   d="M395.907,346.132c-0.785,0.662-1.538,1.131-2.26,1.403c-0.721,0.272-1.495,0.409-2.322,0.409   c-1.365,0-2.414-0.334-3.147-1.003c-0.733-0.669-1.1-1.522-1.1-2.563c0-0.609,0.139-1.166,0.415-1.671   c0.277-0.505,0.64-0.909,1.088-1.214s0.954-0.536,1.515-0.692c0.413-0.109,1.037-0.215,1.872-0.316   c1.7-0.203,2.952-0.446,3.755-0.728c0.008-0.289,0.012-0.472,0.012-0.55c0-0.858-0.199-1.463-0.597-1.814   c-0.538-0.476-1.337-0.714-2.397-0.714c-0.991,0-1.722,0.174-2.193,0.52c-0.472,0.347-0.821,0.96-1.047,1.84l-2.062-0.281   c0.188-0.882,0.496-1.594,0.925-2.137c0.43-0.542,1.05-0.96,1.862-1.252c0.812-0.293,1.752-0.439,2.822-0.439   c1.062,0,1.924,0.125,2.588,0.375c0.663,0.25,1.151,0.564,1.463,0.942c0.312,0.379,0.531,0.857,0.656,1.435   c0.07,0.359,0.105,1.008,0.105,1.946v2.814c0,1.962,0.045,3.204,0.135,3.725s0.27,1.02,0.537,1.497h-2.204   C396.11,347.227,395.969,346.716,395.907,346.132z M395.735,341.413c-0.765,0.312-1.913,0.578-3.443,0.797   c-0.866,0.125-1.479,0.266-1.839,0.422c-0.359,0.156-0.636,0.385-0.831,0.686s-0.293,0.635-0.293,1.002   c0,0.562,0.212,1.031,0.637,1.406s1.047,0.562,1.865,0.562c0.811,0,1.531-0.178,2.162-0.533c0.632-0.356,1.095-0.843,1.392-1.46   c0.226-0.477,0.339-1.179,0.339-2.108L395.735,341.413z"
   id="path279" />
	<path
   fill="#200E7D"
   d="M401.083,347.663v-17.188h2.109v17.188H401.083z"
   id="path281" />
	<path
   fill="#200E7D"
   d="M414.97,343.647l2.188,0.281c-0.344,1.272-0.98,2.26-1.91,2.962s-2.117,1.054-3.561,1.054   c-1.82,0-3.264-0.561-4.33-1.683c-1.064-1.122-1.598-2.694-1.598-4.72c0-2.095,0.539-3.721,1.615-4.878   c1.078-1.157,2.477-1.735,4.195-1.735c1.662,0,3.021,0.566,4.076,1.7s1.582,2.729,1.582,4.784c0,0.125-0.004,0.312-0.012,0.562   h-9.285c0.078,1.369,0.465,2.416,1.158,3.144c0.695,0.728,1.562,1.091,2.602,1.091c0.771,0,1.432-0.203,1.979-0.611   C414.216,345.191,414.649,344.541,414.97,343.647z M408.056,340.241h6.938c-0.094-1.048-0.359-1.834-0.796-2.358   c-0.671-0.813-1.54-1.22-2.608-1.22c-0.968,0-1.781,0.324-2.439,0.974C408.489,338.286,408.126,339.154,408.056,340.241z"
   id="path283" />
	<path
   fill="#200E7D"
   d="M418.966,343.944l2.094-0.328c0.117,0.838,0.443,1.479,0.977,1.925c0.535,0.446,1.283,0.669,2.244,0.669   c0.967,0,1.686-0.197,2.154-0.592c0.469-0.396,0.703-0.859,0.703-1.391c0-0.477-0.207-0.853-0.619-1.126   c-0.287-0.188-1.004-0.427-2.151-0.716c-1.544-0.391-2.616-0.729-3.216-1.014s-1.053-0.681-1.363-1.185   c-0.309-0.504-0.463-1.062-0.463-1.671c0-0.555,0.127-1.068,0.381-1.542c0.254-0.473,0.6-0.865,1.037-1.179   c0.328-0.242,0.775-0.447,1.342-0.615s1.174-0.252,1.822-0.252c0.977,0,1.834,0.141,2.572,0.423s1.283,0.664,1.635,1.146   s0.594,1.125,0.727,1.932l-2.062,0.281c-0.094-0.643-0.365-1.145-0.814-1.506c-0.447-0.36-1.082-0.541-1.9-0.541   c-0.968,0-1.658,0.16-2.072,0.48c-0.413,0.321-0.619,0.696-0.619,1.127c0,0.273,0.086,0.52,0.258,0.738   c0.17,0.228,0.439,0.415,0.807,0.563c0.211,0.078,0.83,0.259,1.861,0.54c1.488,0.398,2.529,0.725,3.119,0.979   s1.053,0.624,1.389,1.108s0.504,1.087,0.504,1.806c0,0.703-0.205,1.366-0.616,1.987c-0.411,0.622-1.003,1.103-1.776,1.442   c-0.774,0.34-1.65,0.51-2.627,0.51c-1.619,0-2.852-0.336-3.701-1.009C419.741,346.263,419.2,345.267,418.966,343.944z"
   id="path285" />
</g>
<text
   xml:space="preserve"
   style="font-size:24px;font-style:normal;font-weight:normal;fill:#ff0000;fill-opacity:1;stroke:none;stroke-width:1px;stroke-linecap:butt;stroke-linejoin:miter;stroke-opacity:1;font-family:Bitstream Vera Sans"
   x="204.52399"
   y="50.5"
   id="text3463"><tspan
     sodipodi:role="line"
     id="tspan3465"
     x="204.52399"
     y="50.5">British Isles</tspan></text>
<text
   xml:space="preserve"
   style="font-size:11px;font-style:normal;font-weight:normal;fill:#000000;fill-opacity:1;stroke:none;stroke-width:1px;stroke-linecap:butt;stroke-linejoin:miter;stroke-opacity:1;font-family:Bitstream Vera Sans"
   x="-309.47601"
   y="227.5"
   id="text3467"><tspan
     sodipodi:role="line"
     id="tspan3469"
     x="-309.47601"
     y="227.5"></tspan></text>
<text
   xml:space="preserve"
   style="font-size:24px;font-style:normal;font-weight:normal;fill:#000080;fill-opacity:1;stroke:none;stroke-width:1px;stroke-linecap:butt;stroke-linejoin:miter;stroke-opacity:1;font-family:Bitstream Vera Sans"
   x="47.523987"
   y="269.5"
   id="text3471"><tspan
     sodipodi:role="line"
     id="tspan3473"
     x="47.523987"
     y="269.5"
     style="font-size:22">Republic of</tspan></text>
</svg>