<?xml version="1.0" encoding="UTF-8"?>
<!DOCTYPE svg  PUBLIC '-//W3C//DTD SVG 1.1//EN'  'http://www.w3.org/Graphics/SVG/1.1/DTD/svg11.dtd'>
<svg enable-background="new 0 0 570 200" version="1.1" viewBox="0 0 570 200" xmlns="http://www.w3.org/2000/svg">
 <style type="text/css">.st0{fill:#ABB1AA;} .st1{fill:#FFFFFF;} .st2{fill:#FFFFFF;stroke:#000000;stroke-width:14;stroke-miterlimit:10;}</style>
 <path class="st0" d="m560 197.5h-550c-4.2 0-7.5-3.4-7.5-7.5v-180c0-4.2 3.4-7.5 7.5-7.5h550c4.2 0 7.5 3.4 7.5 7.5v180c0 4.1-3.4 7.5-7.5 7.5z"/>
 <path d="M560,0H10C4.5,0,0,4.5,0,10v180c0,5.5,4.5,10,10,10h550c5.5,0,10-4.5,10-10V10C570,4.5,565.5,0,560,0z M10,6h550 c2.2,0,4,1.8,4,4v130H6V10C6,7.8,7.8,6,10,6z"/>
 <circle class="st0" cx="98" cy="93" r="86.5"/>
 <path d="m362.8 16.3h-1.4c-29.7 0.8-53.6 25.1-53.6 55 0 30.4 24.6 55 55 55s55-24.6 55-55-24.6-55-55-55zm0 100.5c-25.1 0-45.5-20.4-45.5-45.5 0-24.7 19.6-44.8 44.1-45.5h1.5c25.1 0 45.5 20.4 45.5 45.5s-20.5 45.5-45.6 45.5z"/>
 <path class="st1" d="m353 167.9c3.5-1.6 5.2-3.9 5.2-6.7 0-2.9-1.2-5.2-3.7-6.8-2.4-1.6-5.8-2.4-10.1-2.4-2.3 0-6.2 0.1-11.8 0.3v35.7h12.7c4.5 0 8.2-1 11.1-2.9s4.3-4.5 4.3-7.7c0-4.8-2.6-8-7.7-9.5zm-13-10.5c1.7-0.1 3.1-0.1 4.2-0.1 4.4 0 6.6 1.4 6.6 4.1 0 3.1-2.4 4.7-7.2 4.7-1.3 0-2.4 0-3.6-0.1v-8.6zm10.8 24c-1.5 1-3.9 1.4-7.2 1.4-0.9 0-2.1-0.1-3.6-0.2v-11.8c1.8 0 3-0.1 3.7-0.1 3.4 0 5.9 0.5 7.2 1.4 1.4 0.9 2.1 2.4 2.1 4.4 0 2.4-0.7 4-2.2 4.9z"/>
 <polygon class="st1" points="388.1 152.3 378.2 167.5 368.4 152.3 360.5 152.3 374.6 173.4 374.6 188 382 188 382 173.4 395.9 152.3"/>
 <circle class="st1" cx="362.8" cy="71.3" r="50"/>
 <path d="m362.8 26.3c24.8 0 45 20.2 45 45s-20.2 45-45 45-45-20.2-45-45 20.2-45 45-45m0-10c-30.4 0-55 24.6-55 55s24.6 55 55 55 55-24.6 55-55-24.6-55-55-55z"/>
 <circle cx="362.8" cy="43.6" r="7.9"/>
 <path d="m376 58.5c0-0.8 0.1-2.3-1.1-3.5-1.1-1.1-2.7-1.1-3.5-1.1h-17.3c-0.8 0-2.3-0.1-3.5 1.1-1.1 1.1-1.1 2.7-1.1 3.5v21.9h5v26.4h16.5v-26.4h5v-21.9z"/>
 <circle class="st2" cx="98" cy="93" r="68.5"/>
 <path d="m78.8 106.3c-6.9 0-10.1-5.7-10.1-13.3s2.7-13.3 10.1-13.3c2 0 6 1.1 8.3 6.1l10-5.2c-4.2-7.7-11.5-10.8-19.9-10.8-12.2 0-22 8.6-22 23.3 0 14.9 9.2 23.3 22.4 23.3 8.5 0 15.7-4.7 19.7-11.7l-9.3-4.7c-2 4.8-5.2 6.3-9.2 6.3z"/>
 <path d="m131.4 99.8c-2.1 5-5.2 6.5-9.2 6.5-6.9 0-10.1-5.7-10.1-13.3s2.7-13.3 10.1-13.3c2 0 6 1.1 8.3 6.1l10-5.2c-4.2-7.7-11.5-10.8-19.9-10.8-12.2 0-22 8.6-22 23.3 0 14.9 9.2 23.3 22.4 23.3 8.5 0 15.7-4.7 19.7-11.7l-9.3-4.9z"/>
</svg>
