<svg xmlns="http://www.w3.org/2000/svg" xlink="http://www.w3.org/1999/xlink" version="1.1" width="511px" height="252px" viewBox="-0.5 -0.5 511 252"><defs><pattern id="rough-4736705160510939" x="0" y="0" width="1" height="1" viewBox="0 0 100 100" patternUnits="objectBoundingBox"><path d="M6.702600005726329 0.014710149608679668 C4.255596694147214 2.5823224082732974, 4.056942731781147 3.5949648881301806, 0.3952459233487562 7.843544447606742 M7.105477778326165 0.16574686913148362 C4.226117325592701 2.191078463420579, 3.0428242500246636 5.274764642450846, -0.3645184289959868 7.498890883283038 M18.98892263540559 -0.09031967227710158 C12.140764650446547 7.4732059728678, 3.2982652039263183 12.327202925277655, 0.8466668814106022 20.18700879238133 M18.122666503992047 0.6761236385577263 C10.060012246490452 6.4129249234922625, 4.103744136956642 14.300045630726078, 0.532339238439631 19.609088052389197 M27.314339992774052 -0.8266181892801407 C20.34005599604223 8.638686919105634, 13.962173484285557 13.784427191371801, 0.9715795176378421 31.358109148493444 M27.41342622755009 -0.570314535408039 C21.485353151935932 7.148396779908127, 14.249205307042857 15.556556456660662, -0.8346539905985781 32.52726126019879 M39.261115735192966 -0.2807559048575694 C25.92112021092097 17.07289680944013, 10.533117810449733 32.94817972267529, 1.5044730962732524 45.62886792948804 M37.82398568236238 0.7090844266742322 C26.007014866749703 14.658584159264379, 13.323770649944034 30.685527165548088, -0.8304257312718639 44.31281374918518 M49.70420354653922 0.7326623020478671 C35.95914522163099 17.121063906427878, 17.46596632949569 34.50587384858898, 0.7578112182978805 55.23906132339391 M49.231746996547486 0.46858093693163116 C35.464450706852354 15.694621811275466, 20.59452205049204 31.794093945721382, -0.505804113238963 56.435379843049155 M61.134745671279006 -1.4522218775995208 C47.28992626705757 14.371998000956175, 33.9065965308994 29.183010313712796, -1.6295288847490133 70.78755194910175 M59.61314667615129 -0.3375677255824403 C36.46869605838978 27.17228832739165, 12.454855817152666 54.31714650750922, -0.2349026826347851 68.44568480705246 M72.32459212204525 0.5821327901903368 C44.61957570453766 31.93295672641143, 15.33695025856532 62.959946553821794, 0.19789730836583974 82.16483302432997 M71.17081432127122 -0.35505086365228733 C44.467637906868376 29.96379301998381, 20.681993444090963 59.22063892222483, 0.882421769615009 80.61859345933829 M80.15887016292731 1.0018943448193376 C57.86142252161195 25.590111047787293, 35.381191492041445 52.00874612890749, -0.16362434574534657 94.11753249898715 M81.14560095161397 0.5405769413036161 C61.503411253270194 22.553180303779712, 40.80301706988784 47.02179644205251, 0.5878765150588556 92.75482064546416 M90.34972793402585 0.740793211480038 C61.77731806447305 36.07341587690506, 29.855111246921258 69.30713392995523, 6.342902066238498 98.11168891701742 M91.95689811259386 0.7470932906785497 C65.66141932394923 28.689394040035758, 41.147817745462945 58.89959158302128, 5.615335587831241 99.83810756226345 M101.49982802092448 4.011443838852052 C67.6130870640973 41.57566203643845, 31.038966136955516 82.64728607810305, 13.954905768931852 99.10869966510361 M100.34674088826762 3.0067297133673714 C78.29074230266218 28.44582067861694, 58.09437743384231 52.31956407210609, 14.722157969211155 100.4541389203004 M99.80113447437687 14.075193506085128 C79.26252727771171 42.490540540380884, 55.71689960229134 68.73620504222325, 26.306918694276746 100.50037650161836 M99.01795366360528 14.480088435983319 C76.67968498554725 43.02427822701958, 52.42885795866886 71.04523370825454, 26.410959929661054 100.26222044902435 M99.7085409970256 27.214734553230805 C84.37891590704238 47.12809179314301, 67.79856645808111 63.282272558793515, 34.97191561656653 100.35544820907415 M100.4254989133849 26.3367929792991 C83.61681654949943 44.52642333876972, 68.39272355572396 62.225157333168255, 36.00397841071489 99.83135210423629 M99.17963504009911 40.831556331514726 C82.65042047283843 58.58464628661406, 65.84914765797718 77.9635246841838, 47.52497019334103 99.44665554715885 M100.01477966009915 38.85706937868307 C89.2767260974327 52.50494622125983, 79.55382471183098 63.99656827218752, 48.02879154007911 99.96989755472785 M101.60142531514435 51.14092697508959 C90.16188151970448 63.99756617838974, 83.0626436744268 70.99001896996475, 57.70044899028157 98.6776124595121 M100.61504055611545 52.07860268113177 C88.56607962887048 63.738381072375205, 78.20735035357617 75.24077121629932, 56.98833467275859 100.89520650940376 M98.61377769301242 63.84745362521908 C89.62613879019567 74.23133200485417, 80.24062874590986 87.08452004037655, 68.07405612420297 100.05392300969955 M100.96539001776452 63.79344985282031 C93.28036982417146 72.03864181245545, 83.7149862797742 80.35702868285333, 68.20564099113095 99.83901836082629 M98.62548488814078 74.15742758714237 C93.57484716021204 84.55369992607393, 83.23428791345448 93.68691409666634, 78.91194323422896 99.81851360963547 M100.34231185048345 76.08840449454503 C93.22173479579543 83.07465303717734, 86.46684059809968 91.02612975606232, 79.84383821461708 100.67718709346146 M98.42973482184216 88.10743390675354 C96.87161836793717 89.3827062806039, 94.12614737002338 92.58203333187814, 90.00302942318825 98.7117300154097 M99.65035872640259 88.2709822825501 C97.91074793938917 90.54950579178342, 95.05675804064369 93.6052631834531, 88.68854239066562 100.5716188371243" style="stroke: none; stroke-width: 1; fill: none;"/></pattern><pattern id="rough-6493774443793643" x="0" y="0" width="1" height="1" viewBox="0 0 100 100" patternUnits="objectBoundingBox"><path d="M6.853853598008049 -0.9816136526955433 C5.059372784584076 2.725776822356484, 2.028451166409661 6.950830901892249, 0.3830958449192483 7.159962509142849 M6.804799110622816 0.06453059276763573 C3.6981185663508804 3.2356575148587137, 1.527677784216265 6.2469874463294754, -0.4924445224392117 7.661183419831386 M15.659489530753218 -1.0289596629110092 C13.242005087404678 8.192353234644436, 7.382736450723871 11.800586131857369, -0.40707506379049985 18.845084864709982 M17.481948130627835 -0.09308962161288958 C13.68222560524448 4.505261902553892, 7.785950091121517 10.835982348583276, -0.12453819625276408 20.08672859763839 M27.306838670285693 -0.13697339695956412 C19.90531707746707 12.527998340403332, 7.827123649576724 23.730893425180312, -1.2588549957815864 30.63419169624579 M27.91872419112427 0.35307486899133167 C20.906933494733014 8.66000966887361, 13.038522235063482 17.2868260273167, 0.6497966547276435 31.870623160085422 M39.58112938869151 1.8611769254340667 C28.12926337376828 13.093622041122414, 14.803561023766399 25.07103592872101, 0.1078198174645113 44.15928837881871 M37.7007368893537 -0.011139406077296687 C25.29928580910222 14.6227711038207, 11.980115098360937 30.285677734463352, 0.035812010113588144 44.235406231828925 M49.36685149473418 0.43196317132863715 C33.923546871402486 16.273417897930056, 17.756736177299935 33.85836364868269, 1.9148741033041565 56.28667959034717 M49.55488208077187 0.04333969461237075 C36.92292234059896 15.353300285313669, 23.46298923228107 28.31794146036, -0.20048194476424452 56.285033178518376 M60.35351114184401 1.087477736155975 C43.148786466286055 18.900085501689848, 23.999361747284123 38.06193338980422, 0.784315466798092 67.51554640134688 M60.044491269157426 0.004759134596798553 C36.86201519430724 26.215417354175287, 13.027766136114503 54.36634934219518, 0.06335614953393565 67.95583331612092 M70.2402629249912 -1.8815860217588876 C44.44664867465745 32.71293015697634, 17.95450944574763 61.01347137977297, 0.720112010074665 82.72028690400265 M70.16545922711519 -0.190214829586274 C47.68594779402316 25.45751005161889, 24.30322301240277 54.07297836212503, 0.10369154021763327 80.66962327762542 M80.73407201207189 0.4637995475072172 C65.5650471916989 18.382970027151185, 45.79993942514406 38.57078925666208, 0.23606534782733313 91.21574774855534 M81.67140733950774 -0.18575479619769286 C57.383362652591195 25.956035113342754, 34.450278636971845 52.833354219325074, 0.6770484781136936 92.42634981641085 M89.79874531257524 0.7010076368785159 C61.33984799264414 33.232085124111016, 32.881462479969194 66.3460311193793, 4.747550241284656 101.28816579389473 M92.51155819620212 0.5300251569563521 C60.61596248692397 37.46057977777103, 28.63566377664446 71.68497580542899, 4.83318755410461 100.09024782283065 M101.50515390863363 4.001850306780299 C67.95195678541097 37.936665443710254, 39.18807151942158 76.43936568062823, 13.49427868608382 101.82961549796285 M99.32673684950127 2.7569349611985863 C66.84394803443314 39.40296057141574, 36.33359908008395 75.56569100597812, 14.934841307071219 100.70903466248475 M101.29099458873429 16.018341436523034 C76.56423317959297 43.78395594545346, 52.86089546567145 72.74483045023158, 25.49583278911174 100.44242222156507 M100.27912977664631 15.199238869011813 C72.54112955323176 46.438977270941734, 45.67605299859706 77.9074846320983, 25.001767026076845 100.77077441639894 M101.29838732703533 28.57266079463296 C78.04768327853591 54.87205861903892, 52.279329166156785 82.34292192008455, 36.56820121728291 98.60268644215482 M100.52018352180913 27.352494097570883 C77.69212580501454 52.084891804844275, 55.915573342332145 78.83458960579918, 35.77192918769469 100.45511682470892 M100.07559564492382 38.90259673587644 C81.19742822379133 65.52345586337489, 59.41980636769656 85.97236489697534, 47.124612823094026 99.38352542978785 M99.75742389360967 38.917867248628674 C84.26670218528132 56.555112305660394, 66.60236424707013 77.0219767254601, 47.87748585154945 99.00200866366347 M99.12457382513617 50.55219148972304 C83.56763019787145 68.12910391315681, 68.64175555303574 87.82943668282266, 56.94338375619812 98.4495608894856 M100.78672876466338 51.13748783322922 C84.07311566936868 68.51349473083785, 70.79010218851836 84.985511017535, 57.573693646012 100.58287332421114 M100.23647072825331 65.20302613039031 C87.22285111750215 77.32834027106747, 77.22608189833944 89.06017888475378, 66.51504759097071 99.13879719092735 M99.47881925350153 63.47987722995774 C92.52932776539097 72.37637409861593, 84.57737081918668 81.40326010525163, 68.17062452330782 100.70450387844583 M100.45952560204077 76.88685357089291 C95.51881267284702 82.91962617344417, 88.65099727506254 87.71574342737931, 79.97269526046253 98.1554069303729 M99.21273036926928 75.41111068631325 C94.21218593667507 81.06113078164259, 89.52207473543436 87.83714627589907, 78.5151896618705 99.080109942523 M100.68847354562428 88.07061650899382 C96.71822980659927 90.73240610359075, 94.2240603680604 93.89225834394506, 90.9356869451519 101.5937785587205 M100.33641720007363 87.92320308233101 C96.84482306330756 91.17071752535527, 93.24936499238444 96.09627078335868, 89.47322643491482 100.60338616643917" style="stroke: #000000; stroke-width: 1; fill: none;"/></pattern><pattern id="rough-6055751258228921" x="0" y="0" width="1" height="1" viewBox="0 0 100 100" patternUnits="objectBoundingBox"><path d="M6.938391143832498 0.2968553420429336 C3.7835981343455236 2.4428599975571643, 3.0387628107470372 3.5486819760079973, 0.33342422748734135 8.268988814446486 M6.664157394886858 -0.1486808514938956 C4.462666850820474 2.7671967882584454, 1.4000336365311843 6.241648530697832, -0.22359283128922447 7.808603873794227 M18.865155222852554 -1.6171996210238255 C13.005649116191663 5.288506840331573, 4.066686193239779 14.78852798030642, -0.8790498504729811 21.645719922669908 M17.290359980373577 -0.06830931956480679 C12.823135172313288 4.763855468116287, 8.423497001900042 10.826542618427823, -0.6602306236250488 19.20694308993689 M28.848990423906198 0.4841725599539366 C18.68387958827163 8.665304938764196, 12.69865695822623 18.463274731384697, 0.651458949522314 32.722133666837344 M27.03249697652768 0.7005161259127957 C19.501890864449344 8.995263164954213, 9.986998235211898 19.61067245634608, 0.8340875029709478 32.22474507061533 M37.43007305887646 -1.712391993346249 C25.786421473297878 13.187083197195776, 14.54509926856711 24.201122595633375, 1.2490072355003692 44.32259181550626 M39.30952083546367 0.6741283162069229 C23.46639719342777 16.73206174972381, 10.679551243414943 32.29002459406837, -0.802824095111665 45.01614249075923 M51.01444118593833 1.4076849319497216 C36.26672493466545 15.782597885458319, 21.033940600634985 31.236677551940172, -0.3762250492655195 56.02532049295602 M48.32174673995699 -0.3583437712285207 C39.42166669346463 11.466492552073998, 28.93204311153491 23.651262374019993, -0.9430682423273029 55.749293528394325 M60.40695797411837 0.5851568697027387 C37.960796151717545 24.09245919795323, 17.17641978899633 48.025954222209585, -1.3502569935212536 68.50902435447901 M60.263050967894536 0.23378504685628299 C45.19315129875182 17.061121371681267, 30.788966950406337 33.42573221973937, 0.5257347623910453 68.41660485001009 M71.27358313456315 -0.7006908924692237 C57.140854207533216 17.628337887978716, 40.734310825651406 36.36201759363605, -1.6103549273429625 82.95248235833664 M71.00572239744243 0.5993761065571941 C54.12319072214954 19.23065224562752, 38.38458917424567 36.06820070601768, -0.6148489855700863 81.63643501844683 M82.18261115268804 0.7687231115069411 C54.35136371839557 29.94556126641728, 25.663898226929444 64.08761121515735, -0.22603065457656335 93.63705588069888 M81.74930463843208 -0.3991453272216572 C51.19634272344237 34.37754355366874, 19.430944381698467 70.17396082306513, -0.33776684202978613 93.56266536688405 M90.43943130793238 1.9311875244494257 C70.12803145001645 20.50314098848597, 53.52623209442173 45.16615877964783, 4.32697117288457 101.2735814284928 M91.6523244598285 -0.25505599913613963 C70.2977854430937 26.391291679182274, 46.544310329086144 52.31312558686384, 5.623613152108433 100.29348072754628 M99.03204516501435 0.5409775079779404 C66.81401480098731 40.927094360847576, 36.76039853397883 77.32452435347206, 14.271189995446218 98.67124569120087 M100.1000267549954 2.536063919687171 C67.42122827424201 38.196602261869344, 38.317965366297024 74.89549623613682, 16.199113481920993 99.98556697822305 M99.13099001134226 13.282101157488196 C81.69016849794731 33.51845269970236, 65.34992089536752 56.14693990334829, 26.55177606108572 101.47080782285491 M99.0803848654615 14.485193843867746 C85.9593957215341 33.60426269110965, 69.81781602190598 50.45789145415479, 26.118277342848707 99.89436726414591 M98.8198895256266 26.915092585346212 C83.46342800376968 44.51871554263552, 69.38738434106502 63.0032728312306, 37.58240967478215 100.8111040984453 M100.87542135911306 25.96156726789779 C81.57446738196006 47.01861226599599, 63.64213213309944 68.59489057040692, 36.478928470319026 99.72417726421806 M100.9212530422379 37.68754765366059 C86.99624682981079 53.72241368839847, 74.89230849573468 66.77037827980979, 45.79319614608014 98.3127379226801 M100.68034382472621 40.05470199958653 C87.02249139380136 53.374608828010196, 75.29525319549774 66.28308919494671, 47.45586117059026 100.59606042862553 M99.82286280092028 52.764920835146405 C92.20421271880413 64.20665279883372, 80.801456545486 76.00947040374803, 57.37403027949984 100.20586815512624 M99.63704488473962 52.04413648136526 C88.70354955375103 64.03540537934269, 77.15312265780402 77.37033857605256, 57.43495419041374 99.18834627872955 M101.51189105201814 62.05007002217597 C87.82357124806805 77.99552883638133, 77.09005574368797 92.19486573066857, 67.76509550680478 98.72651874713746 M100.56002052389248 62.64701239674073 C93.06919131223951 72.63853695785724, 83.81943813877582 81.76525463784775, 69.25117790469615 100.32272091108504 M99.45003907162291 75.49485468279343 C92.44192190590283 84.06303569587743, 85.08306029123258 91.5468460300171, 78.44444978650859 98.66019283846924 M99.19542144865673 75.07586501353079 C92.34910943466146 83.65680383227144, 85.49795683885846 92.15994462068345, 79.72399625381463 99.16397257888792 M99.68302780785875 86.29477168015502 C95.48389348961992 91.99052661193082, 93.45395396405928 96.91813498382247, 87.88370793874213 100.28746705732429 M99.29817660568789 88.46883905200667 C96.55937631264985 90.79606607131062, 95.05940798345131 93.51527171704672, 89.8815053544852 100.51064527035469" style="stroke: #000000; stroke-width: 1; fill: none;"/></pattern><pattern id="rough-2787596593981305" x="0" y="0" width="1" height="1" viewBox="0 0 100 100" patternUnits="objectBoundingBox"><path d="M7.113337410084683 -0.26733152380389513 C3.7112922236183232 1.6985462026014686, 1.7896587880535098 6.211724552090665, -0.2222537200883048 7.491304133378478 M6.435137546056824 -0.14421303186067547 C4.954631011152615 2.2705428947929014, 3.7240498457031506 3.815243357140076, -0.14735930986494383 7.857659102348631 M16.361840322158166 -0.6992226048829044 C12.740870279577347 6.4337509079189, 7.104421903337659 11.915023525493567, -1.156957321741447 20.330078763818076 M17.59878653017377 0.01711076028335734 C12.845742163852035 6.135693822191716, 7.700657080686899 10.046558219992445, -0.5713855502407972 19.86535993297839 M26.421499880172174 1.5158674151075617 C19.307093723176475 7.795022857464047, 13.369875413007293 16.667734214511984, -0.09709886602400708 33.87307368927627 M28.03521394652907 -0.043071835102595823 C22.44851990235539 8.117203800742105, 14.686548480437173 15.829582935909912, 0.564747268806034 32.901105867784935 M38.865670688069436 1.133875612420577 C28.315077261535485 10.561869751798472, 19.06083765041665 21.998267284918953, -1.4515526370208836 43.293273808624754 M38.67239031145744 0.7960584529226091 C28.168035924734156 11.543094818934948, 18.303899033851128 21.86510887234264, 0.12248015741202911 43.496433411689516 M47.82959961787827 1.8074211193801952 C33.65734170647883 17.4411620161204, 18.599949419285473 33.21350425503539, 1.129242463633937 57.825131022635254 M49.13400371359187 -0.912678149857467 C34.04624117866094 15.07940077289902, 20.472378777227 33.1858805431246, 0.41938698414113285 57.049555833198994 M60.49963815797822 1.4645775527335 C41.87112695331655 20.47803295140117, 27.277432139943834 37.64410230741871, -0.4162223325788146 70.78085016731684 M59.80466167776762 -0.9957987588551118 C39.336790522037816 23.319642570952006, 18.49569963169245 47.54538388202665, -0.2576450810276323 68.05539686467586 M70.16994588928843 -1.2000359331637442 C56.75029140814845 18.17404880180446, 37.74816570394817 35.67522379803073, 1.2545756580510536 81.83159529773883 M69.70867409460433 -0.14468783341683844 C47.85092114206 26.72817742533007, 24.841232080136265 53.22719614940567, 0.825727662978736 81.10762668031688 M82.77643565666237 0.587214209154804 C50.61762844258307 39.076488286686214, 18.05965911920848 73.51136873226321, 1.1828548006815582 94.08283234690376 M81.48613825515068 -0.6917350124689201 C55.458303407849456 30.458793181600626, 30.83927898799708 58.519324152877076, -0.462733516451562 93.24418839942362 M92.79349000770317 -1.3383229009061681 C59.74573531903738 38.149372072625106, 25.742879126772014 76.96221161868078, 3.862342219039773 98.20260018756811 M92.24278328662771 -0.4151889603000165 C61.635176876348105 34.84960813001271, 29.479936895480954 70.4502424424326, 4.700640937419125 99.87311993861248 M100.68990806688527 2.956571830539188 C70.50373494969286 36.79772893647421, 45.491423937755556 67.8027177981934, 13.734225195282477 100.97748658120646 M99.32886717319964 2.593563656550624 C66.2496464759422 41.32517258007454, 32.60376340860317 81.02820324320565, 15.385494374046182 99.39804817755977 M98.94087300916942 16.540449859238542 C75.58362096468457 47.02713184571335, 47.68568898469598 76.14535751060184, 26.49781461812573 98.0639863717003 M100.67028382753568 14.240830773986959 C84.66222774762967 33.78563631921359, 67.67157509683798 51.17777214728716, 26.38112123109733 99.55792784479914 M98.80765918162018 27.27732033628832 C79.24791588983871 47.47905453897073, 61.66796048379181 71.44341390664408, 36.36629476641756 101.74389895255415 M100.44107095193145 27.232576378239894 C85.5543844598606 43.416020646009535, 71.10679382677934 59.37815977937014, 35.52050923494311 99.87037907287313 M100.84454642066521 38.80468556766167 C79.46122716452355 62.279635589810205, 60.49763696884491 85.21358216330145, 47.264699033449965 101.48453294398695 M99.78839306768506 39.74285529775879 C80.63700173221424 61.86123844974127, 61.036272397748654 84.4032389899277, 47.42528096588414 99.85052801918378 M99.36027962942354 49.580179605752846 C88.60937725380865 67.29951125128834, 74.19103547620958 81.9351091394775, 58.12096554066608 98.43184715998093 M99.165208363776 51.011462446511544 C85.30633853635265 68.04347158492799, 70.63613731301727 83.94640991665074, 57.16622943366696 99.47737642057861 M98.32832687865854 64.06078602854939 C91.13622610038061 73.26895990195892, 84.71886589386136 83.29260691009813, 67.67055045697771 100.46149586168222 M99.24281574726187 63.90806683459895 C90.45916159420345 73.86010379488864, 81.25270115352679 84.22258519629354, 68.60689733830881 99.66450861208062 M98.24823735169642 74.56061395741199 C94.1856264894853 83.67505145944168, 87.07740766532046 91.77003311924047, 80.87038804946634 99.04888348944216 M100.6227343577252 76.67316925960378 C94.40598192293402 83.217658368143, 87.90780441327134 90.23216456824717, 79.84216635403007 99.10781388545252 M99.26376888560951 87.01750492238162 C95.337600240458 92.55985446330746, 94.56635738692098 96.23623919447856, 90.19301656765563 101.02025035959667 M100.13313970707414 88.32340017747329 C97.03489620366949 90.96973961819648, 93.5492101007594 95.85839010244077, 88.74913059632715 100.16344513965656" style="stroke: none; stroke-width: 1; fill: none;"/></pattern><pattern id="rough-4804495407270635" x="0" y="0" width="1" height="1" viewBox="0 0 100 100" patternUnits="objectBoundingBox"><path d="M7.390227721386595 0.10137859953391115 C4.831375954940961 3.4181510783701654, 2.654293011474667 5.293101652995405, 0.6396513396204808 7.643374491795715 M6.474046646984419 -0.34331802411201584 C5.206502690712619 1.9048748333257106, 3.035212553506292 4.913419389483192, -0.32412575651155745 7.4701240769883634 M19.268629056085256 -1.3493428597181172 C12.045763604049458 5.612484636676557, 9.924969204872166 9.764138098790685, -1.9557137346096605 19.96336993198663 M17.36241363394637 -0.3552088700614946 C12.603256359815546 5.608182800816758, 8.65229654484663 9.271439897004534, -0.5465091788906071 20.49747470349207 M29.861126494455988 0.4623912980186624 C17.81529308316877 11.132839967596619, 8.35627967338186 25.56150728024476, 0.9812815441593834 30.461232034458263 M28.418625557841203 0.7960035979603979 C18.585380405798826 9.262778740711848, 9.582067371548359 19.73689009286681, 0.7856545653884655 32.93609033205482 M39.07809474172906 -1.8999704744106731 C24.575316669021234 15.020190696294113, 9.998817866205764 32.39134228052037, 1.2685738761421526 43.52340767013624 M39.1377665726185 -0.02676395741472115 C29.492970877418127 11.06893388745925, 20.181085491186366 21.32688085790013, 0.7691122902612086 45.034670945990975 M50.850488082103965 -0.9110431149023546 C34.649585783989586 16.93244036733646, 19.990118278609884 35.14454259729812, 0.09182156179565482 57.42658428625754 M49.39349209328384 -0.8074353099156206 C31.88341001709832 21.410138606590888, 13.146048402006256 40.137508505148155, -0.9370100266423513 55.90650769127731 M59.37764325753574 -1.3682909512892616 C38.83836320173421 23.502147611292703, 16.059764577471306 48.76718916952325, -1.5136182498639101 70.04144344957814 M60.672309397873796 0.2681807476329734 C43.7559500102199 17.666815760556453, 29.13290801759391 35.535447027913804, 0.4470209776049363 68.98708292339134 M69.15893800097254 1.7813880449340953 C44.173070288949525 27.6710607846407, 20.30795052713973 58.85267225427926, 1.8851431301022128 81.02288026526979 M69.9239382330041 0.811473736832804 C43.65723932611304 31.390111119581704, 15.8314195373397 63.324077673947116, 0.26473854857986945 80.5490019569727 M80.04846804367523 -0.5630500599597879 C50.22815552318902 37.30130251236098, 16.60148689315087 74.41096765344959, -0.1224818141325672 94.74562253235351 M81.92323085119583 0.19687042249207343 C61.586381835837514 21.024376784512377, 43.301078422990436 43.21465236877353, 0.7223494290173367 92.49059346666459 M92.37147062249255 0.40499727828946597 C72.97424098531829 24.06889981100179, 52.38858170121835 45.549286514925804, 3.3871934273584428 100.19716802385506 M91.91602658829603 0.9929837069251057 C68.32601683000489 28.45912776648162, 44.000824667996426 54.73253368519182, 3.8543937347637556 99.17661667406428 M100.80023544792702 2.635756515869774 C71.40957341366557 39.237303039742976, 42.4895916577938 72.49825385019477, 16.41634881792122 99.49462118513605 M99.99230088379278 3.5249178021116108 C80.14455996645037 24.646737113650666, 60.629827163192935 47.36065700002755, 16.07192523070423 100.09304658166775 M98.33085835118483 12.978460012787416 C76.42545124121159 46.79710204709415, 46.640036609404156 75.87369567006833, 26.743043538663784 101.29164539632428 M100.07818902601673 15.607042392325454 C77.25841144507713 42.11443241070513, 51.872317142361354 68.69904247640872, 25.841961597771274 99.45448206886121 M101.58629949793834 25.88123775852389 C80.62499809068427 50.6076670687019, 58.14843812478552 73.99565758965412, 35.53243151686054 100.16579244119457 M99.12982461914366 27.613310144157097 C80.52902277982048 49.10938900660867, 59.38060494674802 72.47011865655061, 35.82911082418581 99.2500433092135 M99.70718674077976 38.86560536048732 C87.10552749313055 54.701574342613284, 69.414927957739 70.969120266038, 46.87774826688933 101.46838403831399 M100.45768387982406 38.17854228545535 C85.1441435774117 55.93779163951282, 70.318178303367 74.24477165965295, 46.76971851212614 99.41215695327352 M99.51976769539445 50.756666725625465 C87.89355335600114 65.05775040007175, 72.92636926580582 83.0096078789489, 57.847817833645756 100.3345208554467 M99.8580262939339 50.903649837109526 C85.42380301991123 68.2122813539816, 71.61107618643943 84.40148968720978, 57.43985480241666 100.01292211959132 M99.19608167165549 64.26767329466414 C91.67901995793129 76.66665317509201, 80.11423631161384 83.93810150790159, 67.11414392330983 100.5318536794947 M100.29888595954753 62.6795738688256 C93.82655721360237 71.35816453669405, 85.4763654076942 80.42956239975067, 69.07179844585355 100.35092010020135 M100.52251791932625 76.09738042062015 C93.16479069425291 84.43538054843768, 85.04374198910162 91.27501751313687, 78.91020850976602 101.37690998189633 M100.87067231776435 74.93903474538845 C95.41181330071652 82.1668947433528, 90.10792235093905 85.90969705956756, 79.65299400327164 100.13357174942642 M101.39531743991633 86.9524371129442 C96.20211209043072 91.7470285218953, 92.28395604896342 96.08286270824239, 87.9027166602714 101.01485734456293 M100.53985533848982 88.43179509755306 C97.56980858840264 90.74402391613692, 94.79850765637909 94.76685967268651, 89.14849745289457 100.49431610481899" style="stroke: #000000; stroke-width: 1; fill: none;"/></pattern><pattern id="rough-2951846756315815" x="0" y="0" width="1" height="1" viewBox="0 0 100 100" patternUnits="objectBoundingBox"><path d="M6.727781646538645 0.890529901556941 C5.807925900673621 1.5860906794370262, 3.706026309069161 4.314953248709017, 0.7178098350241624 7.51279514641577 M6.987044789730502 -0.49463629865622 C4.898802164092646 2.445875406239302, 2.321317012272145 4.812731424406034, -0.42510177949198064 7.61247189762932 M17.57845667342761 0.4880201440583143 C12.161028331867119 7.082530771850096, 2.3185478578129777 17.20675014714337, 1.6329627022821178 20.27687770372248 M18.1135988897405 0.638284111844099 C12.21170959411449 6.603405351053896, 5.553128804162693 12.04617970423372, -0.9389893906932576 20.96073710580587 M26.464339082727424 -0.2211837925473521 C19.612287614532043 7.451313615597878, 10.982728880955774 18.281788004056317, 1.2498700112713976 34.08983808276665 M28.895922438010313 -0.6773891558631799 C17.827533653974665 12.061992727752076, 8.341483255306358 22.765043818282553, -0.19868965927859472 31.389071293274522 M37.59701762179932 1.085767933283031 C28.93367538584449 15.19717569077987, 13.36565094868061 25.65517597158213, -0.4111175701109788 44.350142031211 M38.635576187937076 -0.18811257605323162 C24.09596923448113 16.192872218821865, 9.237179342254631 33.58858139163273, -0.7363166224473687 43.647129645528 M47.86442486809494 -1.5616975972807605 C34.433530913146626 18.69134184921586, 17.1910233512193 36.78567119127432, 1.436579863631649 54.878692238105096 M49.25439884267854 0.2441290453715519 C37.04350264932906 13.729091951408508, 26.512546650642378 28.669688901079514, -0.866685149121023 57.59100895702567 M60.09099776047789 -1.1964597207558185 C46.4745044549112 16.790022640208456, 30.08484635464677 33.18352703510412, -1.212535313299476 68.30735966820116 M60.51848110457623 0.13873714340590437 C39.41852273249258 23.1951152804385, 20.086123373733802 47.01338336854626, -0.7049049837468657 69.11190706560338 M70.29850016320377 1.008789504961026 C51.26741641373688 22.128187703928617, 34.28241453022652 39.24180546268477, -1.506615362011984 80.2870254937842 M69.84661620041705 -0.340659420642516 C49.31647815688857 25.058006847136266, 28.604250452993682 49.774365828948895, -0.1838212899313154 81.59904746890071 M81.04212767267195 -1.7665274090776872 C58.411493460451794 28.301399367190875, 34.972358146687306 56.603510819894524, -1.0250961720875589 91.96915047784793 M80.63471958195325 -0.6671278727112822 C51.19627511104558 34.62002542221274, 22.684373298743353 67.78211497583638, -0.6225386180067876 92.54041131283508 M92.25203926257119 -1.0177439071904626 C72.96152947266157 20.629645227607718, 54.88043781445403 42.25540335217171, 4.100668710356095 101.98637244522978 M92.24250204141659 -0.26565387071798563 C64.61146876177231 30.095834182121084, 38.85888252208492 62.32824825116249, 5.5937605338549465 100.86128362698062 M101.65572560799937 2.772999523038753 C84.97452711347219 22.263669432169188, 66.66077475593522 41.53774918940628, 14.776957038305584 99.91665961626336 M100.18638948218607 2.742519097909201 C80.41170138145112 24.989126975463634, 61.6134584656821 45.60050960080317, 14.673926954444708 100.26249278324897 M99.34118331430183 15.372269424399988 C75.9766381067955 39.547288765435475, 54.667954871169485 64.4339106729176, 27.532300938244006 99.9848294418104 M100.87062538532341 14.301644548234245 C84.99679427808728 31.2748567995425, 70.35561442398443 48.8680621648314, 26.584243566264778 100.79910434584451 M101.36648003562362 25.019665583306402 C74.49774519989322 57.264011708230456, 49.29926392243045 84.43068268609481, 37.28540457645343 100.97910130005232 M100.61007955196523 27.762831037175918 C84.8800365765264 45.527607716684145, 67.73197024578752 63.09750555373726, 36.19368855527992 100.11511610672471 M100.75150006961795 39.044414046968825 C90.87966256135452 54.18006224982584, 77.10760996777425 64.28306198674076, 45.66431468669498 98.07273102040728 M100.81094313844098 39.87641628266292 C87.92145416024294 51.97660785904278, 75.80924825191121 66.72549450847764, 47.150887653165555 99.75662080057292 M101.34000997794769 49.40893679422885 C93.27901285171117 62.55864186008117, 80.5009075259149 73.36528426938375, 59.548031608140846 100.57880904727169 M100.4658926017676 50.4126307135604 C88.06034615918581 65.2231175753607, 73.52057808200391 79.99177296047965, 57.5203372391337 100.30463753004756 M99.49662184519622 65.45449212582344 C90.93313178422174 71.1335611525578, 85.34498251778224 81.31731713158239, 67.76706541004333 100.51217045529074 M99.56151382811541 63.2873801551338 C91.36753095978271 72.66070987752649, 85.45875273216762 79.6805607265895, 68.0990899264955 100.1864029538481 M98.57438546469025 74.21533535252833 C92.1052947984609 82.85044233261623, 84.28146053499204 95.04936774755258, 77.4464924476398 100.4472126785423 M99.83770188718955 76.25152820628624 C95.0392186641011 82.89570484727878, 88.58820680259491 89.06977681549975, 79.22185857563663 99.13631965207924 M98.89342202233652 88.63224065414947 C98.91352994938312 90.39320348785863, 94.86529964252344 92.15201732266662, 89.04899832334863 99.84148976607673 M100.21294451185706 87.76297011110579 C96.09831598144557 92.17981075238414, 93.3732119210356 95.3187427636476, 89.1154102706263 100.71917676172993" style="stroke: #000000; stroke-width: 1; fill: none;"/></pattern></defs><defs/><g><g transform="translate(229.5,3.5)"><text xmlns="http://www.w3.org/2000/svg" x="31.5" y="-3" style="font-size: 14px;font-family: Helvetica;" fill="rgb(0, 0, 0)"><tspan xmlns="http://www.w3.org/2000/svg" x="31.5" dx="0" dy="14" text-anchor="middle">went well</tspan></text></g><g transform="translate(205.5,233.5)"><text xmlns="http://www.w3.org/2000/svg" x="55.5" y="-3" style="font-size: 14px;font-family: Helvetica;" fill="rgb(0, 0, 0)"><tspan xmlns="http://www.w3.org/2000/svg" x="55.5" dx="0" dy="14" text-anchor="middle">can be improved</tspan></text></g><g stroke-miterlimit="10" pointer-events="none"><path d="M 269 223.63 L 269 36.37" style="stroke: none; stroke-width: 0; fill: url(#rough-4736705160510939);"/><path d="M267.6688199277164 225.10911807304885 M266.05162512299864 225.20524158116274 C266.0680858530719 179.35690329944424, 268.4226858582316 134.7320354673486, 268.33112523583173 34.693760070562206 M268.03209345065954 225.9086213507707 C268.0542209408267 150.91255213147795, 268.1183870696183 78.58056880490624, 269.48468773816586 37.06798161238328" style="stroke: #000000; stroke-width: 2; fill: none;"/></g><g stroke-miterlimit="10" pointer-events="none"><path d="M 269 228.88 L 265.5 221.88 L 269 223.63 L 272.5 221.88 Z" style="stroke: none; stroke-width: 0; fill: url(#rough-6493774443793643);"/><path d="M269.75856586241434 230.11969316034748 M269.13058778220153 230.39920962328844 C267.8230953575272 226.93909335972296, 266.84660042208867 225.36455431057016, 265.6776443772511 221.1865520784347 M270.1860280594156 230.40774556570028 C269.056504498696 228.39176610841017, 267.6409973628271 225.73310802560044, 265.45454766213516 222.30162006880877 M265.4967692358586 221.66329166553487 C267.06093376621334 222.49829922501738, 267.5786947809223 223.3880100532862, 269.3022949593829 223.6866093987612 M265.58132904816665 221.75600619680787 C266.17983695376876 222.16752688760224, 266.88381660623725 222.7411434262882, 268.84552593741216 223.80375058401899 M268.7436960897578 223.27333672589154 C269.66775437901833 223.4304460461324, 270.58621868620355 222.5030908304796, 272.88847339447364 221.7310200913105 M269.1157474581104 223.8136606627976 C269.92052795311605 223.01340317598712, 270.879713327576 222.6628239645557, 272.5010988774669 222.05684513300622 M272.7116714646977 221.06896856961455 C270.78385475559395 225.12973309050153, 270.5309928200063 228.3304740066847, 269.33473453973505 230.5612451474253 M272.91207472486116 221.7208310799813 C271.78842809094385 223.2765487623003, 271.0981100639856 225.03545695203888, 269.5383513593385 229.88349010245366" style="stroke: #000000; stroke-width: 2; fill: none;"/></g><g stroke-miterlimit="10" pointer-events="none"><path d="M 269 31.12 L 272.5 38.12 L 269 36.37 L 265.5 38.12 Z" style="stroke: none; stroke-width: 0; fill: url(#rough-6055751258228921);"/><path d="M267.1556219581617 32.41860464240333 M267.42596425366014 32.121542445542225 C269.4857457109198 34.78442733462332, 270.45755171992903 37.02310185174921, 272.25726304145826 37.8112295038713 M266.87553648871807 32.42184271002796 C267.90446915469175 34.0431889405551, 269.14863907101847 35.130999730393796, 272.52152946105946 38.319711665550436 M272.6570155827175 37.822167048185676 C271.0141912492583 37.51359565127274, 269.53363839167986 36.51260556091069, 269.20105436491843 36.372578132625335 M272.3863261203217 38.13564368523209 C271.68274176168893 37.790411717486904, 270.4852571572001 37.13772649587622, 269.0858935660134 36.24005156011513 M268.77421279033655 36.07345121611316 C267.54603203789213 37.338946662539605, 266.71655320571614 37.734321530638255, 265.16851744312095 38.08915107930139 M269.14541113020744 36.53466643538682 C268.2391624351096 36.83607436964366, 267.77868847186664 36.93583421158907, 265.6022573266797 38.0789999306689 M265.3761118557995 37.54210750636359 C265.7779472719061 36.09425410115836, 266.3467233167359 35.137943530936894, 267.19442286391876 32.330831089094104 M265.7372258209358 38.079753448183766 C265.80583427067126 36.319526770609855, 266.7186525854116 34.09729305375378, 266.9432430134019 32.15509536308614" style="stroke: #000000; stroke-width: 2; fill: none;"/></g><g stroke-miterlimit="10" pointer-events="none"><path d="M 94.37 114 L 422.63 114" style="stroke: none; stroke-width: 0; fill: url(#rough-2787596593981305);"/><path d="M95.34110758500081 115.27240221623624 M94.32277878294953 115.83785748145048 C183.1512131302237 113.45553177902023, 272.76997596728984 110.76206003357534, 422.7889093335121 112.57059622823995 M94.4000218905651 114.582287806028 C215.3020397931728 115.1777439941849, 335.9931072493812 113.56375826980869, 421.7981302007675 114.54832771804307" style="stroke: #000000; stroke-width: 2; fill: none;"/></g><g stroke-miterlimit="10" pointer-events="none"><path d="M 89.12 114 L 96.12 110.5 L 94.37 114 L 96.12 117.5 Z" style="stroke: none; stroke-width: 0; fill: url(#rough-4804495407270635);"/><path d="M90.84611985271944 114.63497660643192 M91.11579461407409 114.63917287783116 C92.17501572714605 113.42208733433498, 93.95713161416826 112.02950417146572, 95.69738016709975 110.96572842558476 M90.72745539426232 114.35102676591202 C91.74109603812407 113.7998343097152, 93.30600281543461 112.4528472466126, 95.83691728631564 110.29922166228558 M95.99685500079958 110.1469534393164 C95.89369095545078 111.64241623217113, 95.47056314332048 112.56604005677443, 94.67505607663774 113.6306634567777 M96.00545659372014 110.55271250293136 C95.71998268635701 111.19631344985126, 95.3196617191486 112.12531684202766, 94.48172125853941 114.05603601514873 M94.35443130421818 114.07831595508956 C94.35148418599309 114.79533921356195, 95.11980176117089 115.11191956722764, 95.85176334775291 117.65459316039414 M94.29356389493269 113.88278200317869 C94.75120065968918 114.83431646849718, 95.18301753331905 115.74163209691727, 96.28887939400086 117.5349137207638 M95.81703006263572 116.90077295887446 C93.9533866335579 116.11688157718872, 93.18626975334196 115.78013045346388, 90.73727924595389 115.0700262014449 M96.32741738725392 117.6643553317802 C94.02078039702202 116.20108574866329, 91.96563808671578 115.40101560819417, 90.65356879618973 114.78099597433084" style="stroke: #000000; stroke-width: 2; fill: none;"/></g><g stroke-miterlimit="10" pointer-events="none"><path d="M 427.88 114 L 420.88 117.5 L 422.63 114 L 420.88 110.5 Z" style="stroke: none; stroke-width: 0; fill: url(#rough-2951846756315815);"/><path d="M428.13972460611325 114.53284697862242 M428.8572528957785 115.22457766970193 C426.3991647353762 115.27958169116697, 424.13032785843035 115.96162367990311, 420.4003153887683 116.8365378252779 M428.34081589241725 114.84691029753554 C425.45945850877604 115.8922128150131, 422.7765049929266 117.02596394066593, 420.61765705919055 117.4077675102346 M420.65365440570474 117.8668211350971 C421.3026476802973 116.13388669090503, 422.3667064116226 114.93394235271333, 422.6019471486552 114.08194415859444 M420.7795320948781 117.30542203737674 C421.37905831340635 116.67245508744082, 421.91299368103955 115.68873286031975, 422.7128366036491 114.1763166486216 M422.5994458781681 113.65277865217587 C422.36701976135834 113.55777117623526, 422.08405703031616 112.4102950046954, 421.22130369469266 110.75100164456485 M422.7361282955549 113.8719797815658 C422.17284773178505 113.10576265291886, 421.8014705775991 112.4847680369148, 420.9988928804813 110.61292867747987 M421.22384472873233 110.51857095271112 C423.1634742897057 111.43314492253623, 424.2048074698996 113.15595772965202, 427.47392342791676 114.88900902729819 M420.93564847054444 110.19101000003242 C423.33875729900444 111.74662668889795, 425.84813738987657 112.86528419854959, 427.8050761487702 114.89257786327467" style="stroke: #000000; stroke-width: 2; fill: none;"/></g><g transform="translate(280.5,61.5)"><text xmlns="http://www.w3.org/2000/svg" x="0" y="-3" style="font-size: 14px;font-family: Helvetica;" fill="rgb(0, 0, 0)"><tspan xmlns="http://www.w3.org/2000/svg" x="0" dx="0" dy="14" text-anchor="start">real-world example</tspan></text></g><g transform="translate(145.5,126.5)"><text xmlns="http://www.w3.org/2000/svg" x="0" y="-3" style="font-size: 14px;font-family: Helvetica;" fill="rgb(0, 0, 0)"><tspan xmlns="http://www.w3.org/2000/svg" x="0" dx="0" dy="14" text-anchor="start">spoke too quickly</tspan></text></g><g transform="translate(141.5,63.5)"><text xmlns="http://www.w3.org/2000/svg" x="0" y="-3" style="font-size: 14px;font-family: Helvetica;" fill="rgb(0, 0, 0)"><tspan xmlns="http://www.w3.org/2000/svg" x="0" dx="0" dy="14" text-anchor="start">good eye contact</tspan></text></g><g transform="translate(300.5,141.5)"><text xmlns="http://www.w3.org/2000/svg" x="0" y="-3" style="font-size: 14px;font-family: Helvetica;" fill="rgb(0, 0, 0)"><tspan xmlns="http://www.w3.org/2000/svg" x="0" dx="0" dy="14" text-anchor="start">didn't motivate lesson</tspan></text></g><g transform="translate(120.5,28.5)"><text xmlns="http://www.w3.org/2000/svg" x="0" y="-3" style="font-size: 14px;font-family: Helvetica;" fill="rgb(0, 0, 0)"><tspan xmlns="http://www.w3.org/2000/svg" x="0" dx="0" dy="14" text-anchor="start">clear voice</tspan></text></g><g transform="translate(330.5,31.5)"><text xmlns="http://www.w3.org/2000/svg" x="0" y="-3" style="font-size: 14px;font-family: Helvetica;" fill="rgb(0, 0, 0)"><tspan xmlns="http://www.w3.org/2000/svg" x="0" dx="0" dy="14" text-anchor="start">logical order</tspan></text></g><g transform="translate(103.5,177.5)"><text xmlns="http://www.w3.org/2000/svg" x="0" y="-3" style="font-size: 14px;font-family: Helvetica;" fill="rgb(0, 0, 0)"><tspan xmlns="http://www.w3.org/2000/svg" x="0" dx="0" dy="14" text-anchor="start">hand gestures</tspan></text></g><g transform="translate(190.5,155.5)"><text xmlns="http://www.w3.org/2000/svg" x="0" y="-3" style="font-size: 14px;font-family: Helvetica;" fill="rgb(0, 0, 0)"><tspan xmlns="http://www.w3.org/2000/svg" x="0" dx="0" dy="14" text-anchor="start">jargon</tspan></text></g><g transform="translate(454.5,91.5)"><text xmlns="http://www.w3.org/2000/svg" x="0" y="-3" style="font-size: 14px;font-family: Helvetica;" fill="rgb(0, 0, 0)"><tspan xmlns="http://www.w3.org/2000/svg" x="0" dx="0" dy="14" text-anchor="start">content</tspan></text></g><g transform="translate(5.5,126.5)"><text xmlns="http://www.w3.org/2000/svg" x="0" y="-3" style="font-size: 14px;font-family: Helvetica;" fill="rgb(0, 0, 0)"><tspan xmlns="http://www.w3.org/2000/svg" x="0" dx="0" dy="14" text-anchor="start">presentation</tspan></text></g></g></svg>