<svg xmlns="http://www.w3.org/2000/svg" xlink="http://www.w3.org/1999/xlink" version="1.1" width="131px" height="121px" viewBox="-0.5 -0.5 131 121"><defs><pattern id="rough-265013746396677" x="0" y="0" width="1" height="1" viewBox="0 0 100 100" patternUnits="objectBoundingBox"><path d="M6.219692142945918 -0.389709370164946 C5.202505010604289 2.413324079193937, 2.675697306131972 5.351647079820083, -0.9772866975220373 8.004213839373113 M7.210767864621326 -0.27205607087254474 C5.372926136765134 1.8100948452706938, 2.9930861579481545 3.68419843712277, 0.1190676781371992 7.98110583409893 M16.740425046027113 0.17505314686738593 C12.883580570057308 4.818202835397739, 6.79963971545036 12.335501566896625, 0.19374377743764093 19.686968705597483 M17.503709706264175 0.7427575819407704 C13.253058717004432 5.698025554730968, 9.626776637966259 10.491721366714923, -0.3065749290390225 20.666841170208194 M29.32409412338924 -0.9257136101012824 C24.05483113578201 8.450536951953815, 15.250280128746814 13.806722842320275, 1.0790984332110432 32.50509245686152 M28.83693930075881 -0.934418210111708 C19.359437729006338 7.419676807548732, 13.166958247447527 17.356873002479997, 0.07312857559568364 32.45422820833734 M40.08074423405569 -0.4989435811297147 C26.09624519752898 13.854598641177434, 15.483577118087725 27.237168199303838, 1.3147757355092988 42.885405337806155 M38.74463692020083 0.3864535849055928 C24.402066155316447 15.263151928647002, 11.040016435500927 31.145389576243954, -0.7937484331449403 44.04453602531226 M48.433225076449794 0.9244917400208834 C34.65844361484649 16.053749915297978, 19.20330743785336 34.93909287532643, -1.8274370048194717 56.92813666332044 M48.50278016788058 -0.8085735839862029 C36.80956012486258 14.640501998919436, 24.938009898377757 28.565897116789248, 0.3794919065332558 56.207537569638745 M58.557479457080625 -0.5890845150529955 C48.019371303779685 15.530403711999027, 33.61122068876554 28.238200850973396, 1.6511841866876553 69.76115474864389 M59.77906614043303 0.9375523515671706 C47.2798818697515 13.659040622078233, 34.35758177780446 27.130107192665616, -0.2928669672808808 69.13842969150174 M69.04323480545128 -1.9615229663088734 C53.127368474318345 19.508284129357797, 33.86223234913197 39.39581435269841, -0.2683943495611967 82.45210804588193 M70.54644699882155 0.183154802813561 C49.67270480556315 24.85333520792581, 27.368358229806645 50.56080531256145, -0.36816828141650415 81.03628146365627 M81.23776292450232 1.6394426431704119 C63.337375298902344 20.923618158964096, 43.765862341923835 40.31613080794461, 0.6247496160860502 94.45580581363194 M80.4128556743746 -0.021793008985410367 C56.67003157887891 28.277683331111504, 32.06007126118583 56.137082103474334, -0.7786383656146847 93.18315442086679 M90.30846058161319 0.8337763115608592 C65.64747475270822 26.497216863515852, 40.455412452179715 55.85827043481422, 5.332135257459419 99.09448866990562 M91.85436760175503 0.9606194735597966 C66.70843253679429 27.964981511716015, 42.934176827302124 57.16629584896123, 4.071394094225275 100.70542896958554 M101.92412743649774 2.0743434876808067 C66.9653282961624 40.05482391301315, 34.50914226400073 76.72377208286106, 13.568594730945247 101.15394679773584 M100.65883362815089 1.6190945013368232 C77.1560665092934 30.695890764538788, 53.260743859051956 56.07816649770142, 14.300673367026087 100.13729721616966 M99.87335454604235 13.874347612798907 C81.19590414867109 39.5166132757883, 60.972013646029595 60.502047006342046, 26.395050792372317 98.4537292367965 M100.80101650236516 14.5357477336003 C84.11675938469068 33.922576503355295, 68.31358933757392 52.185111956341, 25.810117041903396 99.80750319188718 M100.0476797407176 27.535358524122096 C77.83252121387366 56.44672515751914, 51.883209891561584 81.28668068847556, 36.068627023496234 101.32182810523034 M99.02496257660225 27.319903980073832 C75.79945890683199 54.85194138159741, 50.87920876881397 83.90381320863914, 37.22410978341932 99.38751789215166 M100.50327815625334 38.08341596679796 C88.14203329182153 50.7744018021907, 77.46685298076805 67.91871388680785, 48.76886282853047 99.70317707646305 M100.80494391296803 39.93107298641809 C88.46272680201892 53.04278552115512, 76.41347796369817 68.63116729991259, 47.078011345297725 99.43367799540809 M98.7068624173275 53.115487689872865 C90.93097672480943 63.017200050725165, 82.73110922917252 73.05010777931774, 56.31405361219011 98.33657496876367 M100.51934103363568 51.06508716116539 C83.80764297837672 69.73260806775212, 68.41853680963342 87.88756113889039, 57.74829223177132 100.1393082135862 M100.5486019781325 61.92857633178413 C93.04355872127034 73.21750793748416, 85.25855847581492 80.15359469311986, 67.01207518560126 101.42220877116267 M99.32801162945292 63.5699517036879 C89.59238303403232 75.6499037055675, 78.25018376741151 89.78264937595615, 68.7262785712932 99.83812082966112 M101.38855581857538 77.3944283283799 C93.8076717329742 84.11791368374692, 85.33206898888612 91.23385427808306, 79.52291391418032 98.88264717020868 M100.07882322785699 76.37603893465707 C94.21686824591755 83.24632139164044, 88.14774332733926 89.09661991053436, 77.96244142154829 99.2890557605078 M98.90645657602798 89.0741770291858 C98.70240279408264 91.01944926172644, 95.44956381611195 95.02444914126988, 88.62989046779875 98.39918875719957 M100.37516601107657 88.21811005883562 C97.16027453977482 91.12214988637648, 93.54170122969826 95.5795349728918, 89.18984652240903 100.22017930666448" style="stroke: none; stroke-width: 1; fill: none;"/></pattern><pattern id="rough-2417999314804191" x="0" y="0" width="1" height="1" viewBox="0 0 100 100" patternUnits="objectBoundingBox"><path d="M7.125785480079248 -0.9833968312937383 C4.5398718532965106 3.0860920261677616, 3.646925939918021 3.376070323990664, -0.8544464181625329 6.932168008464986 M7.029922965880364 -0.33937438675581977 C3.9611055896519525 2.7371641395424158, 1.981401654302772 5.9513596748567235, 0.037582279823405895 7.354700064184344 M18.36660638112591 1.0498811296625368 C13.142657310486626 4.848852371795526, 10.455644803238272 8.545047108288228, -0.9689384936601071 21.461845661581123 M17.361377415977692 -0.3488891735668007 C13.038323615707077 4.473833199558175, 8.807850687003826 9.01620446940691, -0.272541489363594 20.686592816814837 M28.713499449898286 0.8420237966934501 C22.101395671097833 6.876543036794764, 14.018524465749088 16.436882467472504, -0.17498722051724336 34.16780134841217 M27.17366513886763 -0.1572449597842529 C19.68626541674262 9.960770178340955, 10.995230283247906 18.924604975004534, -0.551941436512895 32.46541631146843 M38.88938071828062 -1.8189285078398827 C28.030621228144327 11.599688246412352, 19.909497494259966 23.566892378182825, -0.6161398342422961 43.13365808165021 M38.34903383457346 -0.036039610934704314 C29.26120957813119 12.108629086863996, 19.78119693462218 21.93388864187698, -0.4981080290712794 44.26348569797141 M49.13538045238805 1.730415875096556 C31.829919361202847 19.811327411989005, 17.44339488250577 36.554487644785766, 1.5552789717226165 56.91334672707207 M48.60595167243157 -0.3305432339986254 C30.646698051061488 21.370387261384828, 14.069183387313782 41.84874065303012, 0.48362626849628576 55.89017628917006 M58.4045375483561 1.2690995046674995 C47.29568951743105 15.217579318798137, 37.10338489085591 29.00488969519035, -1.253801644277459 70.40548253708012 M59.538509159441794 0.5095540568811034 C41.80467688138131 22.207806369101007, 22.639121755560716 43.786128462313535, 0.11777879258153412 68.65372832077747 M69.22576335666096 -1.215898960127845 C50.759342546234016 23.7849327213938, 28.232691511341564 48.43043277470922, 1.5737100848621184 82.69881048652931 M71.38186754848951 0.8790244220959611 C44.50918943729295 31.510117907553468, 16.267709608619406 61.30456099100776, 0.9444910582322605 81.28802567179221 M80.22023110673355 1.4909045830860315 C51.18702872580577 36.769707888348236, 18.87577708951054 70.64691741872024, -1.7883737475863297 92.21532111929926 M81.21348571455808 -0.7410184461815841 C54.62241949471435 32.39959805285193, 28.64251678438784 62.63315705264109, -0.8890197722847364 94.06066040537954 M90.69662368889374 -0.2841660674179387 C58.57312024490707 39.09776245587723, 23.998864155678774 79.5870241284641, 5.816338380232816 99.7562061743593 M90.91543463744824 0.055867610608140605 C68.21763924265542 27.081719050612563, 45.0119329722738 55.608371560427436, 4.39804583863544 100.24656678826548 M99.80268568521568 4.450788181691133 C68.72377582577548 37.85976572640976, 37.91571931036123 72.27179702160622, 15.185893687535973 101.09202122272428 M99.667535009286 2.143621388607562 C80.02994395109354 28.340139832949585, 58.04382561042891 50.692812545252, 16.03048052622641 100.31800005504414 M98.9911452048432 15.840851209723244 C80.81226370455056 34.92711518981835, 64.49031417459584 53.78562058275243, 25.33942806121634 100.41975482955083 M99.00019560303271 14.908765653264846 C75.82016907992315 40.46323974882329, 52.986583804489406 68.1822608987548, 26.001637745134225 100.87947340210971 M99.91135982105641 26.399239491748418 C82.03435965301246 46.70231424851773, 65.60451658433256 68.24449920290391, 35.61987929750632 101.57042530099076 M100.72632532249307 26.68497054952478 C81.58952675810038 48.06564703379431, 63.183746128372974 68.75274162655805, 36.3756557330832 100.67436913146388 M100.87733887394195 39.24779719581436 C87.18144173196752 51.9111966494867, 75.80291330079108 67.2539708606351, 45.71787489647568 101.46703746530578 M99.03803104295636 39.63537624023107 C86.86758678294684 55.28706438831877, 71.36489655155806 70.61703516820805, 47.88080675344989 100.29798744655955 M99.32621787498013 49.69772476524385 C84.83772692856442 69.28663503019294, 68.09920694837747 88.57227722994631, 59.28567862087726 98.06939389672837 M99.15395732888007 51.51266072934942 C87.71435403112534 65.97330549731183, 75.31341120735763 78.65686136325778, 58.44903785634368 100.93740344649858 M101.6126945234072 63.48867782716668 C90.84630062529715 75.54691873110812, 80.98303363009572 87.486718562206, 69.08713794007879 98.40002715995382 M100.88037138040353 63.583967030005304 C90.79202845185523 73.77314841434136, 81.5345072757958 82.74274505953022, 67.65350015872899 99.9489880665064 M99.58095452083485 74.16436836872735 C91.05715648081552 85.59044078428082, 83.69426879235914 91.03027366819984, 80.61161980342197 101.46325097323306 M100.91048678978711 75.7142021179153 C95.27649471196324 80.96910703606775, 91.77043881741095 87.16257315059045, 78.81208449839721 99.11599340925507 M100.36302803575873 87.53523760391379 C96.12274871361133 90.9831103943771, 96.5027926358042 93.44416503180165, 90.40343703808198 100.90149197278083 M99.50644016812603 88.00872538663839 C96.02967028501044 92.53755838913436, 92.27794419930684 96.27986424941683, 89.28700166243242 100.49750177550787" style="stroke: none; stroke-width: 1; fill: none;"/></pattern><pattern id="rough-889698522002347" x="0" y="0" width="1" height="1" viewBox="0 0 100 100" patternUnits="objectBoundingBox"><path d="M7.288299391197871 0.11658072491797067 C4.524399190978366 1.8618837897555438, 3.870011204464167 4.7102308829924535, -0.04392178136254388 6.955216544982168 M6.611477333541119 -0.3130971907131098 C5.155443297740594 2.1199657847644264, 3.602807834218054 3.9183886786024025, -0.2761797072620499 7.598355084824003 M17.517367367820356 0.885848364211796 C11.665763192853841 5.149663952893942, 6.097990685886835 13.110706821031421, -0.3777072286119356 20.72127889155077 M17.73477522608311 0.04405437018520342 C11.251700196266835 8.290622655250836, 2.6758876312385937 16.224433097742665, 0.22376084653755246 19.50606494823611 M29.926091468075185 0.2865897075129684 C20.974445123821635 8.197616431648557, 18.2722415558165 14.883728282076603, -0.9706270910086445 34.109014035904195 M27.661385634510605 0.11840324396186386 C19.476778065811825 10.438842546558385, 11.798934569458428 18.559282712281163, -0.36318185115954593 32.35300652356729 M39.09925828621217 -1.843141232266718 C23.63313775694201 15.678016167010068, 9.82287147233081 29.912520753297894, -1.8586854928851695 43.13286359872752 M38.875573339308964 0.2131119539203823 C30.17937183245489 8.75074832018047, 22.458443908811272 17.917582874088723, 0.4172816476025476 45.338378788739355 M48.9667370345982 -1.0089327961282475 C38.52784658531585 11.976773735547372, 24.489522331354596 28.21469367655319, -0.5507203297044265 56.182665901506624 M49.83499562430604 0.19934932676234007 C34.67353653092898 16.949475678702516, 21.051823999164 31.37030249788458, 0.3246251612966744 57.57287064554856 M59.254518432121216 -0.7566842919945946 C43.224806459192465 20.344234924917913, 21.375543525444336 44.674112804270415, -1.1328316229643818 66.79679582902898 M59.54563130627279 0.24844011492166596 C41.16345244129535 21.83398955699912, 20.93594993433351 44.815909140895926, -0.8563443774515482 68.26974089155199 M68.78203953922663 -0.7291114306519457 C50.35359694750956 23.087780234890225, 32.09844028310289 44.1604042802264, -1.0127907381764096 79.87342227959243 M70.44874785080943 0.29111197453749815 C43.48186238894974 32.67896564473289, 14.818184502208476 64.52069239597378, -0.22155400861507601 80.50451580478364 M82.41001592688445 -0.31930656440121474 C50.0320376947104 33.76255686313442, 22.013922232443704 68.02060095599779, 1.7978050595849346 91.74768221977712 M81.52238806464425 0.5970093601859419 C53.73516925514557 31.910867140349225, 24.099392022159535 65.86454448216462, 0.3657326584617713 93.3411166766432 M90.92310116117919 1.14795850247918 C55.045958969903346 41.02754115313365, 22.716111079814375 80.66962002135607, 6.153144686353602 100.13569472267723 M90.85780350679138 -0.60180637319149 C63.14090749182951 32.43116885240836, 34.23908840709343 65.43352296504509, 5.275691770569303 99.72676475511071 M98.73696784888128 2.7308148994110635 C75.3627502390392 27.975200289604853, 53.628928861449424 54.960741765152775, 15.421672316722649 99.7629430625386 M99.64247762419623 1.6166874425212354 C82.71482776295775 23.16589105320259, 65.02504473249464 42.01931663186646, 16.17042914723198 100.20565669580672 M101.43351517064032 13.195092531924628 C79.96708181053116 37.179199614534475, 64.84536544529601 56.964844444283095, 27.466439397105084 100.91133573262145 M100.34502904969665 14.400150142671311 C77.09346580546685 39.11554541715816, 54.70098271011558 66.00358411909913, 25.4548524530475 99.63228607348115 M100.16675676551998 25.309991596633566 C84.83736254426111 41.40048196234311, 71.36569880634869 60.47989916160844, 37.930171863346445 100.69580426317009 M100.45079211952998 27.718602431258763 C77.40036360366773 53.304260505478, 54.44026600508756 80.94295429754128, 36.24461095364438 100.16967658796267 M99.31016442915084 39.019099301765465 C81.56404718994014 60.86852185246416, 61.178686386272176 84.45761222466975, 45.86211916487601 101.52224145995076 M99.53279688235497 38.61019870817366 C79.85212892168738 62.150772357479816, 60.20472557176311 84.85500807261144, 46.90237495698526 99.27793797104987 M99.6057939297812 50.66097688974786 C88.94243403444544 62.48577957636898, 80.20660515927456 71.86848445071625, 56.62594017827309 101.4576546549315 M99.1497119621877 51.95625701321113 C87.7020409014424 65.89717227439786, 74.00167562085618 80.3130891480279, 58.61632704062832 99.60238799742477 M100.92711765912911 61.8583805368141 C91.51978535908884 74.45693540171082, 81.73710059290022 81.69623024291275, 67.12738104888248 101.04300500400296 M100.95333458400333 64.39450167768665 C90.30776071286724 74.92362219632012, 79.590987333142 85.09564048249229, 68.11400967333869 100.34979926847929 M99.512852548952 74.06172319239278 C95.40690290423517 84.0470175255245, 89.04451753309806 88.4367515382949, 78.03015204188992 101.78124093413736 M99.02373738745442 74.84227615490455 C94.17976889635754 82.00199935439133, 90.18634399405396 86.48387034373528, 79.2353129623355 100.56247531006461 M99.10069222112195 86.82503675370978 C95.84587190071161 89.70385343269851, 96.24542699960595 92.68348543820215, 90.89925842458074 100.07128506212872 M100.24053853054967 87.49629436021316 C97.33270170913877 90.11497895125828, 95.59097190390833 92.90621575902648, 90.22860733661206 99.48684829503107" style="stroke: none; stroke-width: 1; fill: none;"/></pattern><pattern id="rough-266776839399921" x="0" y="0" width="1" height="1" viewBox="0 0 100 100" patternUnits="objectBoundingBox"><path d="M7.259324602896587 0.4405598044274508 C3.387447457681824 2.911579079775567, 2.0557764157788334 6.05759654585997, -0.7574484308211376 6.892261771194996 M7.194924118645068 -0.010195929499663081 C4.452768370884644 2.1632874731600182, 2.4122849013429617 4.60158458214182, 0.41046218038947657 7.732563167407768 M17.335724973705577 -0.48269291342758436 C14.014808521047586 6.4003257299563145, 7.943593640670931 13.900320227913484, -1.6431397772382708 21.74341273955841 M17.93822424752752 -0.2686776706489744 C12.265613972182173 5.80328694678046, 8.432334788287154 8.85725263095808, 0.7045178352827035 20.491890399450043 M28.735694044831952 1.0280420773978864 C18.545046741563254 13.655916211126288, 7.048959622386247 25.23078691521286, -1.6467015670031824 33.04641423753983 M28.534744587730007 -0.7620169170492002 C23.074361176664024 5.823449631406305, 15.693694838536919 13.906954600326642, 0.7428750262068902 31.324759019799835 M38.78648488643723 1.9084918145815593 C23.40003307092879 16.824722738867273, 7.1261555215612455 31.612403160364284, -0.04359319840869169 43.29252720248993 M39.51766462821687 0.0078979527190568 C29.282598703433298 11.208287213538116, 19.46018624569048 23.879387968181153, -0.9283784969282194 44.08421886582053 M49.427139100785844 1.616636683564309 C37.989181722750814 12.84751417173496, 26.538877306428873 27.18787958817144, -1.3891326367469752 55.012826659739495 M49.83707461994326 0.18904899567476896 C29.52128652567313 21.95466242944204, 10.794457204805802 42.883773323967745, -0.22328346159136414 56.145576321087695 M58.2376145475272 -0.48705935885909124 C47.284718027748276 13.43110563898247, 34.91646110850802 31.7404790236224, 0.6581596993218657 70.45979036073189 M60.56830334447353 0.5566299294716037 C42.64015724169384 19.54189449406543, 26.66319567007033 37.35248160180068, 0.5848751501582132 68.46708211451079 M71.06906745231869 1.3099557518677436 C53.93331135722813 16.733659139815032, 40.11548404633761 34.58443370127679, -1.2680152146089396 81.65705643342184 M70.42566817382668 0.1963763981069815 C44.080588995899305 30.96442399013467, 15.519922824424096 63.10651963174946, -0.9351491426592173 80.85301839264004 M79.80211074617698 0.9202963638846509 C58.62757208252703 24.51985640736292, 38.901683903221645 49.10045666462306, -1.8394065726122104 94.74440525326206 M80.20062052623668 0.5336029276671006 C57.56431339000688 28.783858512192026, 33.39500711978354 54.912654005542024, -0.047544959835333245 92.67737791180154 M91.32844921782528 1.2947340856997034 C63.36286855753656 34.548814406542746, 35.18058462573245 62.89647340074449, 5.693845080190795 99.89995515208085 M92.572401867503 0.4839587814872037 C60.09855322142743 36.880876016364574, 27.82847792367544 73.7627768699836, 5.131632160423682 99.5807652583265 M100.36718828996946 1.6991123177416965 C71.94827617385062 34.83736457258372, 40.912781954449265 66.8591760295902, 13.85309115917981 100.5481822873825 M100.91034491151568 2.8463127805729105 C68.47997447522 36.91550933803003, 38.24153122371857 73.35821921915812, 15.019452341287334 100.86243720824763 M99.97280800550588 13.06252072090556 C76.62245521192293 41.71911576052815, 53.78755588915249 69.26022616029506, 25.654345533313904 99.86723555974996 M100.69026230545182 15.112319288149836 C81.76760372710554 33.619638307766266, 66.22480849353975 53.697984172818984, 25.426692663668007 99.21452196041292 M101.19695356861185 27.823247118052954 C86.42236109111329 41.35733937590992, 73.25442660203495 54.87074563489418, 37.907351881107104 100.65918669340952 M99.01616546564193 26.341270159448502 C79.65388366768407 49.83995804168118, 61.269428350519256 72.61355413361687, 37.453632991962664 100.64855866911569 M100.08100490145097 37.237529784784144 C87.2361432764107 54.46881778469836, 72.1691324845481 70.45801771704798, 48.48922386917981 98.32416777237616 M99.78236892135727 39.63552630124231 C83.13076912367374 57.31125562994984, 67.97999696357422 76.56356626486722, 47.06704686054692 100.77136590878165 M100.66939079941018 50.06504958713581 C88.45358918595367 65.77739391493459, 78.81994868927585 78.12201793273292, 57.32827830976491 99.6054416114262 M99.56392191029333 51.01733926260614 C86.19151106310017 67.257740204489, 72.3995668766324 82.96400120828152, 57.88333347749599 100.6034734218015 M98.53140658969923 62.48035949901208 C90.17311616533861 74.89547724467012, 81.64259380645167 87.52061991045544, 67.38672695967536 100.81387805270231 M100.7852812805357 63.74959880294828 C91.68988560207669 71.66093701672884, 85.65162471623762 80.67514749271396, 67.79884611956199 99.7223469196331 M101.55164952063242 76.8789087520056 C93.28438529993514 85.14571275613763, 85.02622043566383 91.34517045416244, 79.58495789102749 99.77159265275134 M99.065500890246 75.2466538139733 C94.68260562726437 80.50545236902823, 90.58229417924485 86.41982315952289, 79.06470602074225 100.50700769697053 M99.92929607453046 88.53982815232344 C97.02096268954493 89.0253429940842, 94.92838643873694 92.40686617085619, 90.92020615652716 98.65591774568254 M100.30960306679582 87.92586829611076 C96.44531344208802 90.67280055779011, 94.98591382819531 94.73922415775915, 89.33976147358715 100.05403946970985" style="stroke: none; stroke-width: 1; fill: none;"/></pattern></defs><defs/><g><g transform="translate(15.5,17.5)"><text xmlns="http://www.w3.org/2000/svg" x="4" y="-3" style="font-size: 14px;font-family: Helvetica;" fill="rgb(0, 0, 0)"><tspan xmlns="http://www.w3.org/2000/svg" x="4" dx="0" dy="14" text-anchor="middle">1</tspan></text></g><g transform="translate(15.5,57.5)"><text xmlns="http://www.w3.org/2000/svg" x="4" y="-3" style="font-size: 14px;font-family: Helvetica;" fill="rgb(0, 0, 0)"><tspan xmlns="http://www.w3.org/2000/svg" x="4" dx="0" dy="14" text-anchor="middle">4</tspan></text></g><g transform="translate(15.5,97.5)"><text xmlns="http://www.w3.org/2000/svg" x="4" y="-3" style="font-size: 14px;font-family: Helvetica;" fill="rgb(0, 0, 0)"><tspan xmlns="http://www.w3.org/2000/svg" x="4" dx="0" dy="14" text-anchor="middle">7</tspan></text></g><g transform="translate(60.5,17.5)"><text xmlns="http://www.w3.org/2000/svg" x="4" y="-3" style="font-size: 14px;font-family: Helvetica;" fill="rgb(0, 0, 0)"><tspan xmlns="http://www.w3.org/2000/svg" x="4" dx="0" dy="14" text-anchor="middle">2</tspan></text></g><g transform="translate(60.5,57.5)"><text xmlns="http://www.w3.org/2000/svg" x="4" y="-3" style="font-size: 14px;font-family: Helvetica;" fill="rgb(0, 0, 0)"><tspan xmlns="http://www.w3.org/2000/svg" x="4" dx="0" dy="14" text-anchor="middle">5</tspan></text></g><g transform="translate(60.5,97.5)"><text xmlns="http://www.w3.org/2000/svg" x="4" y="-3" style="font-size: 14px;font-family: Helvetica;" fill="rgb(0, 0, 0)"><tspan xmlns="http://www.w3.org/2000/svg" x="4" dx="0" dy="14" text-anchor="middle">8</tspan></text></g><g transform="translate(105.5,17.5)"><text xmlns="http://www.w3.org/2000/svg" x="4" y="-3" style="font-size: 14px;font-family: Helvetica;" fill="rgb(0, 0, 0)"><tspan xmlns="http://www.w3.org/2000/svg" x="4" dx="0" dy="14" text-anchor="middle">3</tspan></text></g><g transform="translate(105.5,57.5)"><text xmlns="http://www.w3.org/2000/svg" x="4" y="-3" style="font-size: 14px;font-family: Helvetica;" fill="rgb(0, 0, 0)"><tspan xmlns="http://www.w3.org/2000/svg" x="4" dx="0" dy="14" text-anchor="middle">6</tspan></text></g><g transform="translate(105.5,97.5)"><text xmlns="http://www.w3.org/2000/svg" x="4" y="-3" style="font-size: 14px;font-family: Helvetica;" fill="rgb(0, 0, 0)"><tspan xmlns="http://www.w3.org/2000/svg" x="4" dx="0" dy="14" text-anchor="middle">9</tspan></text></g><g stroke-miterlimit="10" pointer-events="none"><path d="M 45 115 L 45 5" style="stroke: none; stroke-width: 0; fill: url(#rough-265013746396677);"/><path d="M45.993275912128404 116.50790964991275 M46.545034035515364 114.61247046985244 C45.44949542184542 78.21625127712322, 43.66283835237601 38.42733599707988, 44.91300647375337 5.173668195821149 M46.18068574807326 115.85586283206611 C44.46542596047401 92.50737763756638, 44.32559017455272 68.86060798568349, 45.20727498353301 5.666779731828387" style="stroke: #000000; stroke-width: 2; fill: none;"/></g><g stroke-miterlimit="10" pointer-events="none"><path d="M 85 115 L 85 5" style="stroke: none; stroke-width: 0; fill: url(#rough-2417999314804191);"/><path d="M84.16265965992095 115.5378309723069 M86.01574652091557 114.80196836559354 C83.3185802615222 74.25326634096487, 86.30340182101938 27.798741903008008, 83.51340149557583 4.572916420321557 M83.47056557371228 116.34943492613635 C83.93290944080117 87.65756644984071, 83.99828897287101 58.73279735590362, 85.91593414883859 4.642780268639484" style="stroke: #000000; stroke-width: 2; fill: none;"/></g><g stroke-miterlimit="10" pointer-events="none"><path d="M 125 45 L 5 45" style="stroke: none; stroke-width: 0; fill: url(#rough-889698522002347);"/><path d="M124.1655624456441 44.07038065117034 M122.54970173981849 45.130643371743815 C101.80578145189128 44.711965354209894, 77.54164541904397 41.781364137183544, 5.601935584335525 45.22834873679513 M123.76457184372941 44.56137044494407 C82.38953769488833 44.76846633968585, 38.936469703281915 46.378812402658156, 4.366350038288971 44.41723824823116" style="stroke: #000000; stroke-width: 2; fill: none;"/></g><g stroke-miterlimit="10" pointer-events="none"><path d="M 125 85 L 5 85" style="stroke: none; stroke-width: 0; fill: url(#rough-266776839399921);"/><path d="M126.17408481908669 85.14287628635253 M127.89224259415033 86.63339619932903 C81.96736112276042 87.62672222386925, 37.262461889092705 87.28255515912797, 5.781695646692355 83.52889502158474 M125.75488870229167 85.04973503186213 C99.27607418557697 84.18581373017433, 70.60109843518178 83.10213954516414, 4.774608400544205 85.62653024432096" style="stroke: #000000; stroke-width: 2; fill: none;"/></g></g></svg>
