<svg xmlns="http://www.w3.org/2000/svg" xlink="http://www.w3.org/1999/xlink" version="1.1" width="509px" height="99px" viewBox="-0.5 -0.5 509 99"><defs/><g><g pointer-events="none"><path d="M96.20791820242303 4.545242967341824 C95.77566988271464 6.525711846278562, 93.8380731681329 7.471154922254694, 91.6218236539801 9.665326658841188 M96.70307352357068 3.7387034745699683 C95.27939630956261 6.659305082393772, 93.20976209744329 8.552594814505715, 91.15330924892753 10.561348704235595 M109.2337063014572 5.178361486265619 C104.01297700770908 9.993754354949708, 98.67222942148636 15.17325735888559, 93.42207367607959 24.110644791963956 M108.24550644341805 4.530685357717802 C104.68903493647673 8.9397833537735, 101.28500084254222 12.877472116598621, 90.58631402749855 22.7277587697241 M118.8851649081727 2.4977266822428925 C111.38062431866825 9.865920575990064, 105.63552920587118 17.96164830891162, 91.021117214157 34.13118368829655 M117.25036363945355 4.3806107191205825 C108.88033400115093 14.904782109283609, 98.50975788668951 25.727779368311996, 92.63929905016788 33.59644313109246 M122.26886900207248 10.64506281483883 C115.9755616046214 16.37627263896473, 113.761511102421 23.080799838099495, 100.93092464630827 32.126373068087226 M122.00850693956613 12.036839725887363 C114.31714013402389 20.64965896637068, 107.47367748629958 28.443504386969334, 102.42333470099058 34.473178768796394 M120.5571217336998 25.045204706083002 C119.19656135222942 26.841198589567952, 115.19137500505659 30.707365471875907, 113.6532842187009 34.2308539187687 M121.14032808268985 24.327950629028965 C118.86333229889286 26.434351867109363, 116.7239594383525 29.156392132273112, 112.97953569983561 34.471723220111" style="stroke: #ffffff; stroke-width: 1; fill: none;"/><path d="M92.59399009326926 5.963684645730652 C99.79228807070376 5.284707102321503, 109.60407422817596 5.149174663388775, 122.40095419135447 2.9301115863120337 M91.40550342470816 4.459024954494617 C102.18544852399161 4.0139065360845985, 114.35217438746695 3.072481953222334, 120.53709225689721 3.4787775624569575 M120.68382378564404 2.8361707139545125 C123.79233042883571 11.573981274852711, 122.11822068285123 22.232316334164743, 120.79460764785134 34.24704429497193 M122.33593925209537 3.5061350823100206 C120.75485106139175 11.300126823003808, 121.78710579218695 18.4842438101267, 121.08896516371338 33.81423690051673 M120.01660156128005 35.33027920135022 C113.36927683754953 33.48952287330523, 105.08258505754083 33.901162320921514, 90.30052631216218 33.40448013347016 M122.34450680171864 34.25777330923129 C113.54940427966557 33.34645005769775, 106.42785051576807 34.53458997371754, 90.82957026401839 34.54167805949433 M92.62571199871155 32.06710576079303 C91.68384533538956 22.898509761954067, 89.71466681807034 11.943943068589569, 90.76183995687488 4.33069658682164 M90.84755636099291 34.242795994959906 C91.61628065871393 22.639745801416755, 91.77558859009665 11.584454153091949, 91.5902779284746 3.2213469162585544" style="stroke: #000000; stroke-width: 2; fill: none;"/></g><g transform="translate(102.5,11.5)"><text xmlns="http://www.w3.org/2000/svg" x="4" y="-3" style="font-size: 14px;font-family: Helvetica;" fill="rgb(0, 0, 0)"><tspan xmlns="http://www.w3.org/2000/svg" x="4" dx="0" dy="14" text-anchor="middle">?</tspan></text></g><g pointer-events="none"><path d="M183.96346860199753 3.740611213460952 C182.84534109282592 6.451076441152226, 182.02195056775324 7.1758016545144825, 179.24063623990253 9.953313531520978 M184.2087294320293 3.791981447986164 C182.42583298003882 6.570997672422541, 180.26148961189122 9.081025473055112, 178.81410851514798 10.628885736691874 M195.27648094199745 4.602130290480982 C190.4618043224057 11.652790521648864, 182.87073942414747 15.77373970931368, 177.22132331158164 22.185689015290748 M195.2334621288103 3.8766490270877116 C191.3370347287601 9.645809663055605, 185.89107259929077 13.349978027526117, 178.7101164326111 22.660688480396693 M203.73756818619503 2.340935146820258 C197.79488875871132 12.566810369702113, 185.76331125588837 23.423553362565002, 179.8645011121188 33.80018574912165 M205.88746457443406 3.831345071002996 C196.05001542254746 15.967047539891961, 186.16347737322056 26.673315049683712, 180.0974958129625 34.555028217101295 M207.24049273286906 10.85005403139441 C203.15054912034435 19.299362994008536, 198.20060319432375 27.97415665259726, 189.8979523983616 34.840124052534065 M209.90408701721984 13.25956375737089 C203.52295822024664 17.588102723825227, 200.18591308493103 23.210476233283774, 189.93279533351392 33.35290037254995 M209.42597482312578 25.125211146465897 C207.1093472916135 26.99688166211441, 205.7264719669344 29.141033677236706, 199.8292556438075 34.908500263557364 M208.47177806686184 24.33608220608617 C205.5807557107184 28.128354323260584, 202.73215364708219 30.867612831351508, 200.67808127224524 33.44118201074398" style="stroke: #ffffff; stroke-width: 1; fill: none;"/><path d="M178.08264780401484 2.1625959120091833 C191.4553632845037 3.0516367713019044, 200.54576689591687 3.8792197008895757, 208.50780518952098 3.4614269915285982 M178.77142432459073 4.238332713957435 C188.44334536055555 4.574531421250633, 197.1108615410009 3.9509054092820524, 208.5966498181298 4.26491751402941 M210.97272797332212 4.642155668916178 C208.83134889786902 15.498838683043228, 210.37506604020626 23.093067256523298, 209.94901903120464 34.09879971088448 M209.97859644842788 3.794063558238941 C209.6863628571392 14.496496681568019, 208.90066404915876 26.238723160491656, 208.77465008475295 33.80607765755643 M207.4756736572345 35.58933734005745 C201.46513556497123 31.926976186740177, 191.69359771574796 35.63925518226753, 178.17800741017257 33.22587539977938 M209.03521287131974 34.140171217601754 C201.28878662287622 34.65980970907972, 192.8348945172919 34.10095803810827, 178.67263125082135 33.983573559684665 M179.67008916435682 35.96067514725938 C178.5669111558832 21.870124812359204, 177.4649123481796 13.353105117817154, 179.91308389892816 2.588928734908034 M179.5920401672305 34.826392465276136 C177.97821677013152 23.455940079325508, 179.4692388494761 13.112166711995213, 178.34245749303938 3.7926469475335702" style="stroke: #000000; stroke-width: 2; fill: none;"/></g><g transform="translate(190.5,11.5)"><text xmlns="http://www.w3.org/2000/svg" x="3" y="-3" style="font-size: 14px;font-family: Helvetica;" fill="rgb(0, 0, 0)"><tspan xmlns="http://www.w3.org/2000/svg" x="3" dx="0" dy="14" text-anchor="middle">*</tspan></text></g><g pointer-events="none"><path d="M269.0825338982887 3.42258308956223 C268.0247634642525 6.465579147569462, 266.31493136528024 7.280749614107674, 264.4085728670061 9.815557053013611 M269.79044164552283 3.865330951938101 C268.2195278699835 5.644876461037363, 266.38360356522423 7.659022914909443, 263.89515569377426 9.950647206493564 M278.1806958213487 4.162986097728231 C275.4451298181944 11.051504802401663, 269.56132355451194 16.48347357485276, 265.2936368163579 23.807263789584493 M280.04912260033166 3.25588384117176 C274.43438191931904 11.551917949835385, 268.71258308918306 16.548933757957844, 263.26789722528264 22.680151310778797 M289.21743394041164 5.057721592849854 C285.2991204342584 9.890205950599283, 280.0120672847226 15.358246375587473, 264.41598519883763 33.61012790195464 M291.5231886867283 4.673010085092766 C282.52313881309306 13.68756907622516, 273.4839476794906 24.113008674445158, 263.5443782165561 33.198904054838316 M292.27486756093 13.634849073721611 C286.10120038841285 20.259991655239837, 277.80145442541027 27.612072068392024, 274.12930775544686 32.20592784979167 M294.78449388235157 13.137404750776328 C287.42611064173224 21.058967552618306, 280.3337308741351 29.67333129492094, 274.8348799971641 34.76617845694672 M294.0804430435065 24.485260599508987 C291.1559638730639 26.643701499220498, 290.537180086226 29.130874402643006, 285.3713575619016 34.733202726756794 M293.66958251053995 24.47389636224707 C291.22504009673503 26.438470488118387, 290.110458357919 29.921448207830984, 285.41961981813 33.98352750387526" style="stroke: #ffffff; stroke-width: 1; fill: none;"/><path d="M264.7710510600876 3.7834948811594495 C275.1650382846593 4.777129997639455, 284.0174968974265 4.564924694127164, 294.3853075875775 5.764567877186538 M263.8293555425545 3.4796960137899466 C276.214853051714 3.297709068118198, 287.0736099923405 3.5284041108425224, 294.4828923128947 3.2036329406960857 M293.02790400727497 4.262838078854666 C295.06219768984994 13.311548465190654, 292.5791274369169 17.63934796421404, 295.63844726002134 33.4428160256905 M293.2558083000494 4.6044680420011375 C293.052096165706 11.060564823888052, 294.6617153812394 19.28274998878535, 294.1324804994525 33.34461342728207 M295.51372875635604 33.697515010562334 C289.0616379908719 33.10818894491286, 279.8663070673291 35.23541738631344, 263.10150595123906 32.29443376756876 M293.1334575505983 33.81399232808762 C283.3690234028156 34.70062968673544, 274.61714287778415 33.12011357798871, 264.69454099594907 34.58303900618262 M265.60516218062384 33.78764490258228 C265.33526892228616 26.475785155028426, 263.7132943181098 16.68000291942688, 265.55511056698947 2.415294986107705 M263.3038662113434 33.24134354669636 C263.7292222860053 24.959491159453354, 264.6442716156143 15.080686240311637, 264.53986793661505 4.666192392198649" style="stroke: #000000; stroke-width: 2; fill: none;"/></g><g transform="translate(274.5,11.5)"><text xmlns="http://www.w3.org/2000/svg" x="4" y="-3" style="font-size: 14px;font-family: Helvetica;" fill="rgb(0, 0, 0)"><tspan xmlns="http://www.w3.org/2000/svg" x="4" dx="0" dy="14" text-anchor="middle">+</tspan></text></g><g pointer-events="none"><path d="M355.202079144292 4.814048067244177 C353.3091864508162 6.1421105032715, 351.6355919469832 6.8771346955255845, 348.6606516158842 10.090756853562382 M354.4203079277131 3.7873937010112844 C353.4700240206332 5.431808391502182, 352.3625854700549 6.178297666717941, 348.6962879886792 10.274355950107074 M363.1752718208001 4.28985243235186 C361.6698502201247 11.195382710404965, 354.360365066533 13.84828044783076, 348.6074469840656 24.41972758139145 M364.5470597016596 4.834863111242109 C360.5746750689006 11.229890488715448, 355.0845803783218 15.735375484777688, 348.06514356797555 22.66188099684279 M375.2732624602659 3.2287287467403356 C368.0333000129538 11.210675842482601, 360.0559764934602 21.654066662020135, 348.72312090096756 35.053906320328934 M376.58532681085353 3.0744145467723993 C369.3697373141936 10.626845007191402, 362.86155625488954 18.28949700129972, 349.6482866528819 33.120940533975734 M379.99208007680676 12.794423778256895 C371.549542102889 21.555970118164673, 364.8656974085282 30.887717822570238, 359.42118988071707 32.433051228351914 M378.9585547925624 13.121549250574626 C371.82027981657166 19.212543865455984, 366.29994955897257 27.63930743322345, 360.83318489466166 33.011701652279314 M379.3421269530364 25.147583186971676 C375.52372263922547 27.81817658730607, 373.0671103570504 29.106721013455633, 369.9060311153224 34.127897979738606 M378.42974612088346 24.757688244671986 C376.87721623352314 26.607662782938938, 373.85559172263385 29.855367658835796, 371.2295483568714 33.95913528415739" style="stroke: #ffffff; stroke-width: 1; fill: none;"/><path d="M350.525124726318 4.772700658217843 C358.4964143516645 3.577053683134507, 368.32234412520063 2.310766801576572, 379.89827199963673 5.369006753474116 M348.1406592409329 3.16530469277195 C357.9748913061513 3.019291205892794, 367.92513775571547 4.096994091299363, 378.68196615194745 3.8574656718706626 M377.8271537265092 2.445518296930243 C379.3408575228593 10.799038290297892, 377.0978079072365 16.709981842950675, 378.67373056866086 34.195063568156385 M379.17090484692886 3.2023788501186816 C379.7752282703176 15.042512626406186, 378.3915779960026 24.188917372919896, 378.4783325485081 33.77996976172776 M377.2391143638753 34.05024883247921 C371.0901471387626 34.617075345893824, 359.37974392852493 33.377125592140175, 347.867151556301 32.727223085108534 M379.03980505035645 33.404032906221616 C372.97952481383146 34.38794602456127, 366.11605543242104 34.84516014250754, 349.7809948545085 34.79289408976019 M350.18227523207094 35.07542775429957 C347.04633333233835 26.459918144078017, 346.8552633609074 17.878424809611587, 347.8960284120097 3.276426235258933 M348.13806390181344 34.46618934179979 C349.4264903373575 26.988804909656064, 348.77064248760627 18.512883446497447, 348.95610696079785 3.5552520493731103" style="stroke: #000000; stroke-width: 2; fill: none;"/></g><g transform="translate(359.5,11.5)"><text xmlns="http://www.w3.org/2000/svg" x="4" y="-3" style="font-size: 14px;font-family: Helvetica;" fill="rgb(0, 0, 0)"><tspan xmlns="http://www.w3.org/2000/svg" x="4" dx="0" dy="14" text-anchor="middle">$</tspan></text></g><g pointer-events="none"><path d="M444.8320101007934 3.9020669176054867 C442.7453339276373 5.325481370208517, 440.7794097627025 7.571756267706196, 438.94395222657477 10.970930379937652 M444.5070329303135 4.171380659732737 C442.24662363740117 6.759398831325166, 440.3368864685576 8.893489981382357, 438.5871677104405 10.528844395921308 M453.290796060372 3.3521625002427493 C447.9324412776011 10.697312096822955, 441.6658940674018 20.460682044935577, 439.70910071308754 20.905085488753436 M455.7730803262708 3.725211015454661 C449.9648004178718 9.825495854219959, 445.5928921781585 14.686776023104358, 439.64853672389603 22.011987867038773 M465.2473917657459 2.7942004625881838 C460.07384903297157 12.276457088370572, 451.34845551025944 19.059482422969598, 438.83393902717086 35.49071105985405 M466.18585745396604 4.628273784516086 C456.3553022566732 15.844074024400985, 447.1110666825423 25.63156148629761, 439.9977661038829 33.16252075958183 M468.9024605340378 10.323633042898221 C465.4599457589029 15.274290858461402, 459.85373945890643 22.233545003006533, 451.2401282632613 34.401242348604306 M468.63431614813453 12.243923790515218 C461.1521987921292 20.31373350267753, 453.3290487436494 30.038003067294074, 450.10299048309867 34.377302427004786 M469.0171222280963 24.989117870274747 C467.06682386894573 26.16221822018405, 465.0325135922497 30.865322701935618, 459.6121282766891 33.4454094387498 M468.9018761793684 24.187638653862564 C466.1614002357071 27.657369251421446, 463.42243799511203 30.871376226735574, 460.98764687725696 34.43016400512813" style="stroke: #ffffff; stroke-width: 1; fill: none;"/><path d="M438.95584120852345 3.5772976047413136 C447.3565226454795 3.6504923439801438, 456.27933082470315 5.500587741020245, 467.69616752880654 5.387848624188667 M439.1188755652364 3.4722475905705577 C447.35590985715635 3.871059147675759, 456.03608154109776 3.4471953997533094, 468.9738553875547 4.23438637796497 M470.62247869712075 3.5879375667050386 C469.88898184580876 12.964819037285043, 468.73475605357504 26.013919181397245, 467.26418768600297 32.715191877804806 M468.8824257726396 4.750561653393039 C468.2096540512851 12.685040288831914, 469.58484733683673 20.366533438601483, 469.0478074234674 33.2352854417232 M469.7553675183542 33.75585268422195 C461.4016690359429 35.964941696550085, 457.0603416026722 35.788339761857486, 437.49280632443345 34.46308129534952 M468.56854745674053 33.11086937249519 C459.7800445027609 34.96031825366814, 450.43833374040184 33.95398889912669, 438.48719044590456 34.14130753767174 M439.5136655801278 33.21441352863368 C437.78618433975817 28.95823105562379, 440.6760962863173 20.212410346232772, 437.44920715065234 3.556089706524583 M439.8063725601733 33.55412152486688 C439.92542245917997 24.3878159322184, 439.8040063044369 12.759495675198608, 439.14674784317765 3.0575265744463045" style="stroke: #000000; stroke-width: 2; fill: none;"/></g><g transform="translate(449.5,11.5)"><text xmlns="http://www.w3.org/2000/svg" x="4" y="-3" style="font-size: 14px;font-family: Helvetica;" fill="rgb(0, 0, 0)"><tspan xmlns="http://www.w3.org/2000/svg" x="4" dx="0" dy="14" text-anchor="middle">^</tspan></text></g><g pointer-events="none"><path d="M75.1225327289002 64.23519600920385 C72.1932611861144 66.76420863550008, 71.31765987911952 67.43559898560231, 68.92295222053272 69.6955400826185 M74.05107272536569 63.93235915272984 C72.96063204361398 65.8128828345378, 71.25439304578248 67.5960172157903, 68.73626805613195 70.14450849114935 M84.4342696357609 62.76177978203253 C82.95419518451114 67.32395127677036, 77.38204524508484 73.45431727185908, 70.52260324757509 82.28310720361472 M84.14650688529797 63.812492777930466 C80.49837688959504 67.74888559786439, 78.58791251640639 71.83496282877344, 69.88994257656437 82.20502098697796 M95.20468535312224 63.373669164020484 C89.6520653993446 71.70848867906444, 81.53816580949835 77.20089453338596, 71.37357319322767 95.52150829115483 M95.0699400020421 63.741413076014325 C86.92582505374712 73.40077131149272, 78.48554905761435 84.42929871825822, 69.98711770203857 93.93230755340444 M108.16028742547599 64.9526539657801 C97.7571136563023 72.70538340026565, 92.89071750532182 80.08843901431402, 79.57048848950883 93.93546602118607 M105.54558963676372 64.96009541075522 C100.07230430063005 70.42583558705898, 95.09335245906736 78.60485412395644, 79.6700442285195 93.6194743918742 M116.26333681547268 64.44724724193154 C107.97903304141596 71.43619025364677, 102.61970348817107 82.79600860335084, 90.79737010497809 93.68146903068089 M116.47442231404193 63.798327827414944 C111.38596971228412 69.21871898137573, 105.62945056134414 76.53031390627126, 89.82135513766592 94.54224144765699 M126.68722016631862 65.48273707138794 C117.23121169401787 74.98957124032401, 110.159501784392 85.27068491173416, 102.26906745407794 92.7538647067547 M127.92797039598648 64.86337128907425 C117.4397643452115 75.64745004350972, 109.06162844294417 85.4411899918232, 101.67957129195852 94.5463971374952 M137.111080440472 65.2999535830004 C131.16519074803668 69.67422258740223, 126.20658723917138 77.32425562921358, 112.16513723981198 94.450831710454 M137.59757512396095 63.488992365975854 C128.20966188711435 74.93209698078654, 119.8375593038002 84.56968097310238, 112.69656859443853 94.53037121545938 M145.74336587804498 68.39060675280035 C138.83335406312312 75.22062701647778, 132.45768328728937 82.88185198190881, 123.48187355343438 93.4255672397057 M144.76002702328236 69.39585372607826 C135.551325186212 78.58790237965496, 128.32987194230813 86.60161702688869, 122.85903579788453 93.1696210360021 M145.28297277521523 80.94316987325057 C140.24885287394684 85.57259394939283, 137.54420213627583 92.19416902284668, 132.33040757974558 94.27130011163946 M144.2015231371949 80.84448560882704 C141.50997660091244 83.62829394853766, 139.6922817850363 86.50825106789999, 132.68904032353316 93.99809762787872 M143.9786620096362 93.72233088744093 C143.95835263079988 93.80623994768752, 143.90185529111665 93.88149058323214, 143.72215979897155 94.01639001940414 M144.01586695595645 93.69116676379157 C143.9199511847483 93.79147716967445, 143.88304764252888 93.86188188264045, 143.73241864366497 94.01459096843196" style="stroke: #ffffff; stroke-width: 1; fill: none;"/><path d="M70.0615484769219 62.79576904616537 C88.91386352375665 62.9690563833356, 108.8290733848756 64.64766614467446, 142.216024266659 64.60057794282017 M69.20175388375239 63.454847233028374 C93.11906667631415 64.70977530883239, 116.0948746740942 64.72297922090833, 144.15299221414546 63.86365733292004 M142.60527754333015 62.65813981841394 C143.77593738657507 72.94453312442181, 143.52319896860604 81.01015006467088, 144.89178163372347 92.23343594967696 M144.34534165337075 63.74472223352145 C144.31735667023946 75.0916359418277, 143.0029320663211 87.23885732762486, 144.2662684626334 94.53399801980791 M142.34316424340886 95.53102799542135 C116.12672903451626 93.12039044804084, 92.79964879047478 92.71737059177983, 70.04790147232622 95.09594625695541 M144.37703379411138 94.0618763630829 C125.08517301499606 94.50521040721411, 108.4526745038966 93.26474064405033, 68.15163603076196 94.20929415793472 M69.75748075121535 94.62146016294925 C71.01079476615598 87.96033091526984, 70.14685050573945 78.38314705273883, 68.476548165191 62.0193398980471 M68.65487276563097 94.31233276627066 C70.23561906020248 83.6583516714921, 69.99702363144122 71.10847809010674, 68.15241829747825 63.70742598929168" style="stroke: #000000; stroke-width: 2; fill: none;"/></g><g transform="translate(71.5,71.5)"><text xmlns="http://www.w3.org/2000/svg" x="34.5" y="-3" style="font-size: 14px;font-family: Helvetica;" fill="rgb(0, 0, 0)"><tspan xmlns="http://www.w3.org/2000/svg" x="34.5" dx="0" dy="14" text-anchor="middle">start of line</tspan></text></g><g pointer-events="none"><path d="M158.77643296468597 64.01841390113803 C158.79257416482065 65.49428753087103, 157.27534698446837 67.12823042267237, 153.62764232310627 70.00364929361045 M159.73473158980877 63.85571048267952 C157.20985400938642 66.45123494683006, 155.38223538730435 68.38034944471724, 154.2560956216344 70.14822730921334 M170.42012584641037 64.79808262700466 C165.2779728680768 67.75403662810311, 162.84966652140625 72.92334031975815, 153.197144062853 80.49569265235273 M169.9946612709614 63.319710315462565 C166.77631294437109 68.59171438121412, 162.39316491885242 72.30040321967617, 154.97759562918912 82.27288375147384 M179.55371177272622 62.201141577777705 C173.02803411695294 72.51754567953036, 168.832692160069 79.84227054448158, 156.53496676769169 95.42006561580784 M180.35029525965786 63.66016299438178 C172.3306115213723 72.1137532305449, 165.37019690280422 82.09631650861309, 155.3979302593527 93.05688332056721 M190.61265284932256 63.19328800398541 C181.47846054135553 73.81811375044532, 171.68823624643701 86.66722354289954, 164.9594361820294 94.19537057110304 M192.0212277340934 64.5349231105715 C180.37366544059236 76.01678100645233, 172.53962522962567 85.97059908639184, 165.90283043182768 94.00495919755305 M203.28159750677614 63.18708082880986 C193.57644361612793 71.25515317524187, 188.6199018987292 77.73450782448327, 174.92837671420702 92.29100123027442 M201.70030249936747 64.09234011476138 C193.0927624891121 74.2666594814991, 185.1357387064473 84.46265390676203, 175.14111676882592 94.29488137339895 M214.303696257453 62.24923314398605 C205.33605075372859 72.40204872149434, 200.0019463908941 78.60134549594758, 185.38856199309237 94.41630864605062 M212.2099831405705 63.046173769503326 C205.39863952762195 74.11421188719474, 196.18641911670073 82.04279641963322, 186.6934673975785 93.86167213022043 M224.85739440256876 63.88711268522996 C215.7018382703708 73.16967761338948, 208.43459785949898 81.36072659126454, 195.35791015195798 93.1420040413927 M223.435926408616 63.133421410010435 C214.19176663641747 74.47315501594717, 206.4202523488815 84.57140789653702, 197.03227589011573 94.13086442556549 M233.0958688220037 64.86578057423142 C222.02238918934313 74.47168325392549, 213.54490656774962 87.40874738699782, 208.00411198511767 95.19718511843014 M232.71037115583877 64.67746396140329 C225.40207936400768 74.36077916861157, 215.9810055254665 83.90722104035702, 206.76694632963705 93.92695906868781 M233.83550413841172 76.18148302505749 C230.46360191330433 81.3922886202184, 227.99267944294854 85.12704850370838, 217.17291243691432 92.05046864623344 M234.90753239308077 76.18451415833061 C229.65024503752682 81.532800590886, 222.80907128316235 88.31044414142075, 217.33564356756418 94.74850283933318 M233.86142075966262 88.58081320420102 C233.23703829441308 89.58291588459063, 231.28906738060638 90.27455643428227, 228.69729388872946 94.38608118915535 M233.71481347053236 88.17017689094402 C232.58981182873902 89.78731829747183, 230.73965737121577 91.96446817189975, 228.81613499008574 94.1451540740983" style="stroke: #ffffff; stroke-width: 1; fill: none;"/><path d="M155.72817231212983 62.298325976066025 C180.61064661311048 64.14604793755369, 208.37388533767088 64.38468439739886, 235.98646328923653 62.135550595338145 M153.29370844956546 64.6108714833267 C176.03772007677728 65.4990732094076, 199.78858776189142 64.22278842535147, 234.85141481828725 64.10889485783903 M232.6993045564569 65.80286702007702 C232.9117168217547 71.6367672601285, 232.59330623957308 80.1173937819858, 235.28531622215598 93.7753703425325 M234.10080622697433 64.93178756346673 C234.15208248446473 74.90745114688387, 233.5277542344191 87.6294255606863, 234.73378616114843 93.43417498181022 M235.94517241473892 94.75438825087413 C216.99552562758822 95.57503353929172, 201.7853741423294 94.92533889728806, 154.3801430202191 92.81035083309702 M234.9678234174938 93.47302812799774 C203.38963173299427 93.59263357944677, 172.4762277422907 93.37999869815873, 153.93089128123364 94.20622307070373 M155.56672809273135 93.94070773556027 C153.30112037185665 87.55386526682474, 152.72438566309577 80.47570918441453, 154.25849271816742 62.56652306362492 M153.40310015668368 93.36950090809793 C153.09362016268935 85.28332590327079, 154.85930041663977 77.19044468736595, 154.13241893672128 63.19237529139928" style="stroke: #000000; stroke-width: 2; fill: none;"/></g><g transform="translate(158.5,71.5)"><text xmlns="http://www.w3.org/2000/svg" x="35" y="-3" style="font-size: 14px;font-family: Helvetica;" fill="rgb(0, 0, 0)"><tspan xmlns="http://www.w3.org/2000/svg" x="35" dx="0" dy="14" text-anchor="middle">zero or one</tspan></text></g><g pointer-events="none"><path d="M249.12854164808215 63.713164734265305 C246.63795680795576 66.41478379274498, 246.1381614685117 67.95368947033144, 244.2775800237022 70.28016228433427 M249.41218876579774 64.08336300077892 C247.63086588527426 66.2315736641853, 245.99337053544346 68.36076327054064, 243.67140580830963 69.85595186304683 M258.22872496495296 65.48835761693697 C254.83525273735 71.11892976601719, 246.40661530865762 77.60611144167581, 245.04878118963364 81.50899533679981 M260.7440816236498 63.44774876250151 C256.9274851140943 67.42305097160246, 254.13283253844685 71.85232562122538, 244.9543728368301 82.21586934635447 M269.8787945357142 63.476241955651574 C263.39169935366215 73.01104191521566, 255.95375845336596 79.04497785922695, 244.2462968722316 95.51424788845462 M271.1896221538358 64.99201937244621 C263.52390829618435 71.53206682893615, 257.2207162568132 79.35423391751785, 243.55531931431366 94.09116497194891 M280.58576113929234 65.72304807314983 C275.918073969462 70.01725959314182, 269.22540717168766 78.85012930688343, 253.15342323317574 95.1804997685652 M280.25522077606684 63.584031059771156 C275.95865470271497 71.06929997736142, 268.69359170800556 78.79347567698329, 254.3730280588143 93.19602604880947 M290.4160992258883 65.67765029338373 C283.57345773491556 73.01928641279964, 277.449022035855 80.62477635550373, 265.7520719978691 95.7181671939529 M290.870742900374 64.66439406622445 C282.3089811811381 74.7310957971169, 270.6165273701835 87.53996043042629, 265.81191318963187 94.05473146038501 M301.5956518913521 63.276685586129844 C294.3406675439136 75.30146287609853, 281.3976954621339 87.58843242593811, 276.85998469582387 92.91323292772204 M301.5276386289014 63.589974828360894 C295.88653909472146 71.23033307040936, 290.0469715021931 79.44885929688019, 276.9195902290528 93.46618922269084 M311.5841209840804 64.81432555924006 C301.2965135268714 76.62995628593411, 292.36763108686154 88.76571730776763, 287.75190014787273 93.76638931226488 M313.69107496600867 63.37390322802066 C304.4641368809017 74.8817432242635, 296.36651495281217 84.48110809944363, 286.1644393142317 93.81675496526441 M315.68811182024183 73.92869961473367 C311.3208666229581 80.1866268547835, 305.2476269760152 85.9838098975474, 297.9649580048128 94.0520680600109 M314.8307019511918 75.86207772688223 C309.00493069206493 82.60847178376744, 302.79031393373117 88.47512777838476, 298.2670747727275 93.51931404805192 M314.00078027233735 86.40422617758342 C312.63230128045194 89.34759455931355, 309.2704052002051 92.00257491292963, 307.9653284282057 94.37179613400808 M313.8206414038467 87.41536680514012 C311.54937370413035 89.59656267934194, 310.2934228243178 91.79331101859874, 308.1075668789156 93.83333964211127" style="stroke: #ffffff; stroke-width: 1; fill: none;"/><path d="M243.2683813831223 63.02609657655737 C260.67789473730966 63.985576685870036, 280.32205088049 64.06029264747472, 313.8259903487384 63.21480598459128 M244.7510710043512 64.77948660189729 C265.34105683526155 63.98374717680674, 285.50804249368355 64.11348983413903, 314.9911794382606 63.05441191253632 M315.5560932199424 63.21736326773915 C314.4438683216721 71.43398328170883, 313.2926230694758 76.85117193887122, 313.8078665058922 92.25699420544447 M314.71494968708294 63.57818397361845 C314.21072203078603 72.50671401372566, 313.06147263493443 79.7407328643148, 314.69423156605507 94.79157610585534 M312.07791120585136 93.33066175896636 C295.7125743189726 93.75373055668446, 280.730620908268 95.58974482133951, 245.72686965162436 94.88501458662552 M313.3843742286111 93.37183185360914 C289.0713454923786 94.28921544497845, 264.88845716683034 94.35429088812636, 244.99590932367823 93.21308803265227 M242.53408728682885 93.06806637844598 C241.94734978652403 83.41257876030058, 243.92217592865194 71.47524353085291, 244.58200725883236 64.8175510968301 M243.02236946440658 94.17998041317941 C244.58737472078792 82.12043722087445, 243.79611469760553 70.54710304259645, 243.88403411390797 64.94027668881981" style="stroke: #000000; stroke-width: 2; fill: none;"/></g><g transform="translate(246.5,71.5)"><text xmlns="http://www.w3.org/2000/svg" x="32" y="-3" style="font-size: 14px;font-family: Helvetica;" fill="rgb(0, 0, 0)"><tspan xmlns="http://www.w3.org/2000/svg" x="32" dx="0" dy="14" text-anchor="middle">end of line</tspan></text></g><g pointer-events="none"><path d="M328.6895629011973 64.30155415262921 C326.6324814027316 66.02788875501122, 325.5275993810103 67.84348990248968, 323.7734472266183 70.7998459451898 M329.61688961257914 64.0952504018688 C328.18443355149657 65.93823411808822, 326.28112535210585 67.46989749566228, 323.8410504594627 70.15070702841697 M340.5864160801906 62.472650964646895 C334.84102067577 67.45651200237707, 329.5871781547683 72.489113125779, 322.7361941199925 84.05856037394952 M340.9579475047566 64.43554707512791 C336.3872436254491 69.14766272061999, 332.19690128073614 74.15636806949081, 323.25704517735204 83.26835019781126 M348.8926197723055 64.40596875050915 C344.637604508327 70.80654367967583, 338.8699377093896 78.92735745868106, 326.19687692867444 94.33783843238652 M350.6069500342452 64.52607259465967 C343.5432738971744 73.63511615360551, 334.7999288114925 81.75863755850469, 325.412279130689 94.92542854738726 M359.8333296476669 62.63162461183694 C351.44210633118354 72.80659414351732, 344.75454931516623 80.35314947672177, 335.3794493362519 92.2088806911892 M360.67012624200635 64.81184063829372 C355.5389415713657 70.11810278682859, 351.032058679321 75.62829704794072, 334.14863863369516 94.09510859839631 M372.070496919526 63.525408183112674 C363.7919986523599 73.46362895015108, 359.28415623264243 81.12924682271702, 346.4583901682987 94.06506074204636 M371.4299968001785 64.07066788983414 C363.3248181937124 73.67816003836415, 356.84393912255854 82.4667420870598, 344.82503868345367 93.15811296274848 M381.86867979502904 65.37936829750929 C373.89634340910027 76.12285677605767, 364.0821063613517 84.08723276596842, 355.8201575870784 95.56960189957809 M382.94180978865035 64.46197839168832 C373.87771341719224 74.01435087966144, 364.7449469439298 85.82060223647129, 357.25299463022014 93.62763203555758 M392.0703945015628 62.35985520443183 C385.82617224583333 72.65527153253271, 378.7190105020433 79.37071540435232, 368.0497341808204 92.61896697264358 M392.2990571221605 63.83853971344428 C385.3051541195344 72.06729018610488, 377.8685181749233 81.71148969823165, 367.73437696318075 94.5373052475849 M402.91264301494925 63.111080719126996 C397.9689136130781 70.51863779148971, 391.5945640608233 77.49795188267646, 379.42719754106986 94.03243342160678 M403.513942197435 63.2234930663365 C395.2031274743236 72.36117636513988, 388.73190983056014 82.43825162284762, 376.8938150435554 94.8903604671874 M403.54254383904754 76.20954953972391 C401.0513075232364 81.36414120094769, 397.64709724477933 83.40556218825031, 387.7321314688289 92.81436269955049 M404.71877538211845 75.82215286799317 C398.54678756290156 83.11105627815495, 392.5078955289624 89.38339626429223, 387.40758835463527 93.29585464495352 M403.3617689810314 87.25538808573042 C402.9706613080448 89.1632216911801, 400.88988754652024 91.9095144088307, 398.734776825107 94.06359468432493 M403.7481289514706 87.92264320073518 C402.46425487367355 89.6010573297228, 400.80744708286335 91.94632731766788, 398.98983828993573 93.93772017435526" style="stroke: #ffffff; stroke-width: 1; fill: none;"/><path d="M324.19577605981425 65.13428026585072 C346.53907514129895 64.7196600478605, 367.1010570549734 64.62416967351761, 402.3043511191744 64.18144265614113 M323.103739127528 64.53260792667076 C350.48227481514175 63.038266162060886, 375.1809888996716 64.64419832268541, 404.18391421162397 64.2326703266677 M404.10824030159176 64.5945708193137 C404.44795017383376 71.53389881920437, 404.15668263140896 79.48900900681643, 404.7956501190309 94.03313928830049 M403.78110579125774 64.47976370624707 C403.70315151663374 70.28665922113302, 403.30090130613644 77.205236102646, 404.17773860262594 93.32297011101677 M404.32579471229457 92.24864076492887 C386.57822411575177 93.21566804257529, 364.8078781080348 91.39721910633146, 322.25179564421416 94.89375932299056 M403.6525974258993 94.26158509673552 C379.66429435807066 94.16679437208515, 354.2960152582184 92.65557343040491, 323.9980821425148 93.57273364272544 M324.3921890346001 92.15321524485006 C322.49986598682483 85.34730330486312, 323.85481335699444 79.0541836291229, 323.7759346194258 65.54799765708931 M324.1987996267259 94.56901744452725 C324.69036357900103 85.88784296049502, 322.79275943801855 75.62742991444803, 324.2428830125567 63.77689126091834" style="stroke: #000000; stroke-width: 2; fill: none;"/></g><g transform="translate(325.5,71.5)"><text xmlns="http://www.w3.org/2000/svg" x="38" y="-3" style="font-size: 14px;font-family: Helvetica;" fill="rgb(0, 0, 0)"><tspan xmlns="http://www.w3.org/2000/svg" x="38" dx="0" dy="14" text-anchor="middle">one or more</tspan></text></g><g pointer-events="none"><path d="M418.7260606330318 64.63112968505969 C418.08715495867926 64.8189390057278, 417.3600409741063 67.51829972479179, 414.63424060382516 69.57394975413519 M419.77282366175797 63.64640839565517 C417.57533272440395 65.61289168186856, 416.492064080708 67.4024873540394, 414.16768553490147 69.9274665303017 M431.820682638606 63.16627237146052 C425.0246516461078 70.07101967891035, 422.05824675894485 71.56292090469627, 414.2359276395574 82.4557559916141 M430.43444173556156 63.35157443797761 C427.54021168602 66.91337450104358, 423.8541771270764 71.30865568526976, 413.0242022097424 81.66225538536744 M442.4290908095139 65.14544446450404 C433.2697527492138 74.04253255378914, 426.33694882344 82.00622476314177, 414.0101245291521 95.6123556262751 M439.6402338346995 64.72432945823026 C430.62574709627563 75.25812057330639, 422.4021990646631 85.51357853081251, 414.05112437277216 93.34766783204898 M452.7055549800191 65.73916282080924 C443.92148859526407 74.59660593852011, 434.6616525694954 81.86748206110443, 425.4373969490779 92.53244272566144 M450.49820265278964 63.80201442784386 C445.5542418487929 71.81283199796455, 437.71584582525895 78.87376167982406, 424.27552647441945 93.5006335495735 M460.64362476828694 65.27228692294787 C453.7323764936838 69.38340788081389, 448.2716554629437 80.2947961276426, 434.40948900313776 93.2365612147838 M462.4046708655156 63.86038976354193 C454.69379286246647 72.92791014871605, 447.9393116436469 79.94667015857962, 434.9181398591489 93.61944658146398 M471.140041503803 63.17153168711249 C464.84679861736316 71.79240268021806, 457.3678083786903 81.38341695814559, 448.33755682636337 92.12901598904044 M472.72654618559875 64.06715520779167 C464.28857982700924 74.03612763158387, 456.1547983688817 83.1936765006749, 446.6800939112264 93.78281791847849 M481.314448170645 65.0372215822261 C476.02941283120356 70.59523445909286, 474.24160227928684 75.39116087106581, 457.99739614250495 92.45703054784417 M482.3325926103763 64.57170640126729 C475.00998604855755 73.50331689260287, 467.5075549519456 81.77773615470619, 456.19787082789026 93.91707547305198 M493.40963939849183 64.75494722216445 C487.51856140610903 69.52432016795974, 483.22886430231756 77.92946211562594, 468.364746602102 95.48272173167462 M492.75892591172845 63.73688409356678 C484.30854028781 73.81617771633233, 475.97551642469153 83.68662994714587, 467.1412219951237 94.83082536328132 M505.1221633544401 63.28886415671767 C494.5652390092649 73.45958389661199, 487.6246331260948 80.66397093153077, 477.14730663230665 93.89099386231504 M503.35755394809314 64.76183127608077 C497.94315679470725 70.7678729307504, 491.21028499079904 78.56114454892526, 478.9692930891319 93.58422382138222 M505.3646679254349 78.34579511637534 C501.2156740858226 80.77211409956249, 494.99610401578803 86.42086101715361, 486.88656229471593 94.14319982688761 M503.19764586935145 76.49444108486435 C499.01887236195097 81.35422739758432, 494.77874979908955 86.96703151517949, 489.4943311779364 93.6257264186338 M504.1953341676538 88.68223480743737 C502.70246686475286 90.28954140457697, 501.6753725485833 91.9980445992418, 499.1240768882008 94.3889884533801 M504.31278551773664 88.93216460562483 C502.63235004839305 89.9315217643197, 501.73403365390254 91.52111650611506, 499.466219482685 94.09910645106078" style="stroke: #ffffff; stroke-width: 1; fill: none;"/><path d="M413.4260472679188 64.64045395580047 C443.6634322380394 66.72551137673805, 471.44993518780495 66.08965655755152, 503.08363755116574 64.33984847308392 M414.1191002415644 63.578469601416714 C450.35495751119123 62.50358211504218, 485.17952671000637 63.747459456939474, 503.1242337096547 63.70709820019169 M504.83981426768037 64.45529609732482 C504.1639004592323 73.28318925535368, 503.88740221911956 84.23961893862501, 503.3357197232344 95.15209562982527 M504.1559722345877 64.2191349261449 C503.5180082989856 74.2926424854427, 503.2686570314059 81.98391087936126, 504.3444689804454 93.12231028743751 M502.16257518068267 92.0544403457869 C471.85245520607486 92.11300784008084, 442.3656077174755 92.60308864306886, 412.0111144957132 92.71904400014323 M503.1458487728457 94.46316550129757 C477.17890690649216 93.41822849065888, 451.76394613103486 94.43790592609803, 413.4014148886849 93.30275908749125 M415.6584347826544 94.53984817915591 C413.3910395343297 84.94096165887944, 412.26125771513404 71.117160257919, 414.9406789001047 62.94628897273962 M413.0422667038841 93.64154762984543 C413.5605872174722 84.58246640747629, 413.63757835963736 73.79608011784161, 414.55423627699975 64.93522206232642" style="stroke: #000000; stroke-width: 2; fill: none;"/></g><g transform="translate(418.5,71.5)"><text xmlns="http://www.w3.org/2000/svg" x="40" y="-3" style="font-size: 14px;font-family: Helvetica;" fill="rgb(0, 0, 0)"><tspan xmlns="http://www.w3.org/2000/svg" x="40" dx="0" dy="14" text-anchor="middle">zero or more</tspan></text></g><g transform="translate(3.5,11.5)"><text xmlns="http://www.w3.org/2000/svg" x="30" y="-3" style="font-size: 14px;font-family: Helvetica;" fill="rgb(0, 0, 0)"><tspan xmlns="http://www.w3.org/2000/svg" x="30" dx="0" dy="14" text-anchor="middle">Operator</tspan></text></g><g transform="translate(11.5,71.5)"><text xmlns="http://www.w3.org/2000/svg" x="22" y="-3" style="font-size: 14px;font-family: Helvetica;" fill="rgb(0, 0, 0)"><tspan xmlns="http://www.w3.org/2000/svg" x="22" dx="0" dy="14" text-anchor="middle">Action</tspan></text></g></g></svg>