<svg xmlns="http://www.w3.org/2000/svg" xlink="http://www.w3.org/1999/xlink" version="1.1" width="218px" height="239px" viewBox="-0.5 -0.5 218 239"><defs><pattern id="rough-6634809659946837" x="0" y="0" width="1" height="1" viewBox="0 0 100 100" patternUnits="objectBoundingBox"><path d="M6.156567860666051 0.6788794928635993 C4.865220683875612 3.4217607467319846, 0.7325871627188387 5.069462422704785, 0.7717048107267099 7.012121467301185 M6.972773331494566 0.39017835290157976 C5.1425129121924265 2.538835461546057, 2.8620127825632187 4.8087139294820656, -0.06145899825120871 7.3998118716716705 M18.18531532541957 -1.5148215368598255 C13.345910518727695 3.5305732697360206, 10.33991530371344 7.797788359369945, -0.7788606090793744 21.549887550602612 M18.11606057559102 0.15784465502418277 C13.633270439773408 5.144787832427081, 8.477092933164036 10.447633660395052, -0.8932418503041317 20.75817172483474 M26.687456891754653 -0.23106507936734388 C18.911861156843997 10.370401466257679, 5.637080083527036 24.606088508380154, 0.19186042002318882 33.320420832978705 M28.22021425070194 0.14684014800807477 C17.821278860221103 10.691578639022225, 6.738142165134834 22.307117416322725, -0.6280926908312394 33.1908328631357 M36.77545333062601 -1.64486905820024 C25.404813033928573 15.228931527494442, 15.002937258922763 27.15034221361455, 1.80597408191022 44.37024891867258 M38.282032204958874 0.9579903783838892 C24.322596208577757 17.32504281407563, 10.53900293285847 32.04241008885195, 0.32519725321618864 44.51507104301808 M49.593493578128076 -0.7140774972660662 C31.485498559830265 22.841736417751985, 13.73798584473758 41.91589439292414, 1.4906004622600975 57.25407200377662 M49.143669165300444 0.2398468804220495 C28.90219081887223 21.306465504799025, 9.527604805773514 43.936796953847136, -0.1898520640263741 55.90264106858234 M58.9780829196886 0.173248191595885 C35.694509091835656 27.8166661420545, 15.165474550199415 52.888875353918074, 1.2178877778829262 70.26601935044171 M59.742373831429376 -0.5558428519422387 C42.33623413550462 20.48170362184181, 22.89184519632103 40.93099512408423, -0.3823057900794411 69.20510736567672 M72.14968370415302 -1.1215106337199625 C57.308631908701905 17.54058827059273, 43.47667022082063 32.37930664574181, 0.9870476304404567 80.53805827996388 M70.40738986964244 -0.69758852680599 C52.34473236557905 22.659448649662586, 32.66367349594196 43.66219635605902, -0.044432973990420344 80.76995422636266 M80.49760805196522 -1.5018233888070318 C61.31256653821132 17.5381180861096, 48.14643470564333 39.41118871796298, 0.43647768581704316 92.28608716856033 M80.9024146641725 0.5595120271793443 C64.25103563802924 19.61518473949662, 45.85063520914792 40.408574957833444, -0.9042972336442778 94.03701256713958 M89.63358393159375 1.395168097087578 C66.05922023135419 25.933979677615525, 41.861222978544475 54.101332978517114, 2.9042681741950105 100.56811680394964 M92.48815507089527 -0.8223627271610194 C67.32950389496432 28.041246497953306, 41.28778260291299 57.16793771510692, 4.142978390317529 100.30520020212285 M98.4615690713322 2.706845199576567 C75.16514590818467 32.84473934578731, 48.95933240417396 60.20479691259959, 14.467446360204995 101.18180075449723 M100.58719478966357 2.4931594526806857 C65.32717236612238 41.39793197195604, 32.52672241243375 78.00950776662683, 15.070241963799099 99.42369033430805 M99.18933493723968 15.872708862574136 C83.62112813880428 34.25305199946958, 69.91307095643202 50.66973202179922, 25.355175238403515 101.89438627153655 M100.04262744943368 15.125521919419445 C73.50967492745247 43.77109866434971, 48.384635940482916 70.9839584549437, 25.30255466120551 99.93959011687872 M98.29888881104348 25.660712885827472 C83.81323550877548 44.14917620431011, 70.5549800152935 60.094361494637965, 38.391410608448155 100.8293572195961 M100.57673309725698 26.319157594640043 C81.30189158736832 50.322922843233194, 61.14437010135337 72.06888405160785, 36.7501018711456 100.38439734123692 M100.91318394260642 38.78600258771402 C80.15353133126189 61.841581387997884, 63.72180444238373 80.45128069927003, 45.702408862924045 99.66774773350804 M99.23532185532864 38.5687422852923 C83.48899105541823 57.501560747356976, 67.29977444010821 74.63516652874772, 46.10178199465727 99.16450326446926 M100.5772314531931 52.26354976061693 C89.93694384619994 65.37448026413281, 74.64490227607529 80.16275044103837, 58.3502004856071 100.41271818332437 M100.52298489266688 52.009927037512895 C89.18859470069421 65.39336456740949, 76.51639178202056 77.57710954890419, 57.452176233356916 99.21289302732129 M100.55908417726191 63.07925351488625 C91.11412351326463 74.24151410834185, 84.18736413072993 85.54767603557444, 68.30347700074236 100.66984933016654 M100.1205018971558 63.12729535343712 C91.7692283288757 72.84426615566977, 84.48283401745834 81.31688916570444, 68.14195739449333 99.55848709387757 M99.39380695464266 73.89288960799024 C95.88295172645822 81.26819559059474, 86.5484975966977 88.30299632431584, 77.61145858357841 98.98024389333554 M100.23222905773918 75.19822217184651 C94.41907100159784 83.0023097643223, 86.61682017308351 91.38046907286649, 79.52596750183908 100.72916269989226 M99.89454971862249 89.35846836210695 C96.50489360675054 90.70324113556633, 91.38682508247055 96.5461470068567, 87.97924031000069 99.49320288155745 M100.44011722593635 87.38671988853837 C96.13469724137217 91.16515584950231, 92.88870037386151 96.24081114916316, 89.41837818388359 100.20599425542059" style="stroke: none; stroke-width: 1; fill: none;"/></pattern><pattern id="rough-8427927738690649" x="0" y="0" width="1" height="1" viewBox="0 0 100 100" patternUnits="objectBoundingBox"><path d="M6.508603908576546 -0.23044544734584615 C5.54897816543336 0.9286786288229036, 3.791406989240492 3.658776332564906, 0.24169625516185156 8.113378384721743 M6.321697986899334 -0.45150837031781643 C4.368407336351111 2.8755889287496994, 1.5764604516146319 5.771642440176166, -0.1030107268817792 7.467161389334514 M16.971209232520284 -1.3259313434060118 C13.358514317121028 7.4151933699750145, 6.019024865372868 13.162893702882208, -1.1057877516274752 20.188401314955577 M18.02583494128616 0.6679042329456188 C14.247835430674062 4.1084912045664055, 9.9555250816519 9.385795686915465, 0.2853187304074005 20.76970496417562 M29.280051799753632 1.1555981478717268 C18.370252455332178 11.525329002037655, 9.273558701748936 19.580593887952336, 1.0056589294261995 31.713080809413658 M27.412971323884904 0.7314083352799954 C18.987801632276547 9.60406444672297, 12.29755861106037 18.633315171127443, -0.1661488446421684 31.296709086925933 M37.140083323965925 -0.18196358914999422 C28.741709041445645 12.033765550434591, 19.624297178456644 23.645646385435963, 1.9450753585212306 43.25543882438723 M37.79303943855328 -0.42110016504463754 C24.974103729294093 15.475973391745299, 11.842047853248834 29.680386286617974, -0.04396569232623149 44.11031283934186 M49.26382818929408 -0.3108820852184442 C35.14310410509158 18.166068381712172, 18.41470265960437 34.75463712924116, 1.7820362759415653 58.42913187232612 M48.42400135337288 -0.7187219330359849 C38.059093182677266 14.049553263846287, 26.033607008085625 25.761780802090673, 0.11239761586927877 56.16653881146516 M59.58798800414898 0.3621640358058036 C39.89497623733567 27.10541165067879, 15.778694785704545 52.031620730786976, 1.7583636112246745 67.67306283334563 M60.78421311237085 0.7935231492571542 C39.38529280356513 24.28162074939597, 20.526057497762036 47.061713627428944, -0.3781019261938017 68.06264072101848 M69.23147455910109 -1.0348122247602127 C51.45294361067629 21.749048113926808, 35.25298588684861 41.479268583018126, -1.2454436822886272 82.58887350579508 M70.39613974308148 0.780260170246255 C48.38208046044886 24.692855358497177, 26.05382856591731 50.92421200415843, 0.10774819743108699 81.8135252540993 M82.11346312104217 -0.745122347777099 C57.969714171731795 24.129105947652434, 38.73070786042406 53.3984416582689, 0.6837226225127333 94.549473367251 M80.78954953563581 0.10484620846716863 C52.120718155939564 34.624117877884416, 22.65461746967355 66.90470156204519, 0.18179103509478178 92.25579912172148 M90.69364599478011 -1.2668267953438557 C59.96170066911692 37.3960860655908, 25.856245414519037 74.01332648572294, 2.765681460617487 99.47140069175808 M92.54769257360043 -0.07379347536006353 C62.86891208074112 32.609577773223116, 35.86064405577768 64.99050240447957, 4.412127729412501 99.92773924316487 M101.09422190369948 3.3467603994084323 C77.22442963058248 32.069280662574755, 52.100280845182795 61.11766467086259, 13.433299879919828 100.94789715011181 M100.30609113319663 3.409641898162237 C78.93656833347822 26.54612542931714, 57.32792745654342 50.29135531665285, 15.876952804622999 99.32891381633497 M98.99088674599227 16.41977368909545 C84.49272172753518 32.98574150826882, 65.63677164469696 56.503264640115916, 26.772585480802412 100.27176059216471 M99.58802845603887 14.135049515313545 C82.30010828195581 35.5135047008366, 64.74123080620981 55.96713299021224, 26.35874608504611 99.53920794019434 M99.90393923964753 28.68246107612635 C83.76995726198072 44.716071032522954, 71.50376840361162 62.1057924055417, 34.65532453975733 100.49435411178686 M99.35305845430086 26.891304094422892 C81.18753983394241 47.26712877267293, 62.538579380089864 69.99919325515948, 36.9934833972827 99.8150788592687 M98.3385187377588 37.142932420435436 C84.01926059744709 58.30215569482196, 64.57919693926924 78.35807088751086, 46.43833521856029 101.11396634829609 M100.50938734239712 38.45599550890617 C88.2693473438638 51.52270540145651, 77.38371123295049 65.55797410112582, 47.52582546018857 99.41329400720322 M98.90260984136091 49.39704982050831 C85.5829412117823 67.62585945092745, 66.51612238170296 87.44007298992778, 55.89412227369563 100.15905289186168 M100.52320471433721 52.2027414509828 C87.90846258655512 64.55769066497552, 75.7682618101916 78.41467560032166, 58.221823251256936 100.43829447569229 M99.05075125446845 63.68609927790263 C94.86036518974481 73.049488719313, 86.65239588507029 78.57716276959579, 69.1776524305706 99.26768821157394 M100.00005901531195 63.666551625602224 C92.0222647039056 73.95610481187622, 82.36970536946414 83.20203604281707, 67.38210687979024 100.05856875384885 M98.1486331034681 75.96931029038267 C95.09103072285696 83.12273798385759, 86.654647244683 92.58353707614567, 79.54420018512656 99.16785372275486 M99.10446635608722 75.7694794482319 C95.27520888430156 82.56485939498472, 88.44743143044377 88.55848144956781, 78.26794453921454 99.34585297092922 M99.56391445567104 88.72644389335743 C97.3300715201264 90.79154371633999, 92.72883789107675 97.38232917914593, 88.57395292832899 101.59029045941257 M99.86647220684598 88.4529498187393 C96.78067821979371 92.24694217345042, 93.24435937689056 95.1108623735132, 88.70568699622689 99.50419730230533" style="stroke: #000000; stroke-width: 1; fill: none;"/></pattern><pattern id="rough-5927885257908153" x="0" y="0" width="1" height="1" viewBox="0 0 100 100" patternUnits="objectBoundingBox"><path d="M6.196122196756806 -0.9975428885424221 C5.110495174881619 0.6880830461057661, 3.6065469515122137 2.924306476866105, -0.29170779251981804 7.3573050987828195 M6.99268401883976 0.28015447906897806 C4.471996602067638 3.545280628360311, 1.889271190277099 6.662726151139455, 0.1700941449205693 7.868805039965938 M17.661301377858486 0.5989176662452369 C12.124795236594155 4.677796421460171, 8.10195224773608 8.309683004114913, -0.8827081550899347 21.491604868128356 M16.535680687708194 0.8055500667646829 C12.921877987541865 5.543435952991695, 6.952729160592117 12.229327035758988, 0.41717705692757034 19.539796069636576 M28.86433111975899 -0.8508812558753736 C18.16403479367625 12.312428834235291, 7.82388601957347 23.186099637880574, 0.6286826565171699 32.11020937965681 M27.634208254766158 0.04652116267199968 C17.72323636651432 11.880260277690123, 8.315397253211815 22.73464829705375, -0.32165056247613144 31.804928202053723 M38.34813460771864 -0.8850619595254532 C28.336147670469995 9.027655562403087, 23.071826911566617 21.41742526379935, -0.3529946678354561 42.6168180586526 M38.25549876142527 0.6765128190125873 C24.167197156988053 16.04380735024359, 10.488762231684778 32.68498522932927, -0.3807751309994245 43.89880023291845 M49.01582287235102 -0.32343521188554014 C38.25975510758063 13.893156749878443, 26.244622601412498 25.44772634144661, -0.7829237143180965 58.07000486320867 M49.59174513468966 0.6914245619220178 C31.52998322210269 20.38796412341238, 13.087334875674777 39.99558007425867, 0.23082611556888555 57.06335740308228 M58.87430453877973 -0.9291633660584706 C44.65745409102488 17.20396436427794, 29.070189865771358 33.56805496507217, -0.6062615020606676 68.16675858644251 M58.86909085213502 0.8679448278787487 C38.31222846358572 23.742651269507263, 18.570833265882367 48.48568699712159, 0.15672114695201422 69.43917800384175 M69.59415904886626 -0.14982685350155656 C49.26305714870404 23.095221755959855, 30.17828892130602 48.420496019740575, -1.4524295697518559 81.6705155684709 M69.86826081451892 -0.3394093562117777 C52.12463577016861 20.608630833494693, 34.76659320477787 41.94008612822605, -0.3694735577904966 81.60336419147424 M82.97624663254459 1.3881668089905608 C58.8864339695572 26.644180618665203, 35.70784416891314 47.974784571410616, 1.6500649611741505 94.47428842011551 M80.5201864138118 -0.40829573630469573 C54.298098792831375 31.011777691407243, 29.701972238702734 60.95050225045861, -0.3001379980947041 93.22000699286754 M91.5131528164068 -0.8865705081171011 C60.094763635399694 37.030655714197, 25.97770699921757 74.32433657143872, 6.505355371278762 101.13501386203042 M91.11319268616937 -0.4255646377747033 C70.15436174909031 24.08400449731906, 48.08755411898856 48.9595188913232, 3.7888653847857108 99.57721795172566 M98.27718814226023 1.3404007853336148 C80.28110289427012 26.095901224179183, 57.8835926580289 52.97345222491315, 16.464098723241893 99.3403622954633 M99.23600664267089 1.986783359556171 C77.66701018641966 26.60490793177983, 58.6457040600672 50.21776407659242, 14.437703312655241 99.27457415680256 M99.7520331395999 16.69058300605986 C70.69158258108263 48.83805399221714, 45.28209504535509 80.65444384940415, 24.679288488967607 98.02484956721216 M100.50500985981094 13.731892167031342 C83.38465441938905 34.97657765873766, 64.67611975762948 54.9374420589206, 26.186095641099435 99.06633540804965 M100.85776199172508 27.676275463640053 C73.13594580274422 55.06634886844413, 51.161436614335585 81.29950395213034, 36.7030421120893 98.53447374285419 M99.25024840514857 26.422486052947313 C84.7965444180299 44.170782319801866, 72.53643422661754 59.967290673795965, 35.67858577904654 100.32997406310095 M98.79728925144921 39.718677023117635 C88.00392344310046 52.38970009596625, 74.97455115492907 67.63710667468403, 48.203250638484015 99.3080407272096 M99.17679146543504 38.99043483763869 C87.26590912375477 54.05579496852394, 73.80736502954863 69.65729096318731, 46.408746551277545 100.38153456150995 M98.17131649702813 49.917315231084785 C83.72920763427828 68.73076371998559, 67.74430811172627 88.1155363364199, 56.50597232066626 99.38170802480323 M99.69218818769716 52.1843253861078 C84.00622150506177 69.201389912707, 68.40578149235883 88.86327988275784, 58.17130455615434 100.6030200859271 M100.16982493220185 65.45731842800026 C92.07574567494456 71.25234023397256, 86.18013991899417 82.4518066737558, 69.2344930027409 101.50263454374489 M100.48205363160764 63.95253514692906 C93.78755486036478 70.61947726716481, 86.69562738532903 78.44892719071883, 69.12223895447241 99.1171338254868 M98.1795511029685 74.52515724246163 C94.37234503582229 82.03020838636151, 90.61813712637455 86.43789907682115, 79.51897532202321 99.16202489674481 M100.0766996829902 75.70016118762808 C94.08490272220988 82.61882103725749, 88.12892284265395 89.25744573414241, 79.19403651072565 99.28713606315858 M100.87970434799735 87.68307182501344 C96.7739562492964 90.88859386057305, 95.1735818289453 94.8111295866712, 90.52377971201352 100.37088111092022 M99.51079945184048 87.41517502686642 C96.51189445151024 91.25514028420017, 93.70465403682874 96.10198280528877, 88.67526675387019 100.04985036348907" style="stroke: none; stroke-width: 1; fill: none;"/></pattern><pattern id="rough-1462334161325631" x="0" y="0" width="1" height="1" viewBox="0 0 100 100" patternUnits="objectBoundingBox"><path d="M6.325571050175343 0.030914517129035923 C4.145506906603989 1.623166484598704, 2.2237911569333173 5.313580296219027, 0.48101719978752655 7.296952908456818 M6.62197281030868 0.5145924232054615 C4.937498381701323 2.318869183964863, 1.8835490862191198 5.358294284442512, 0.24518956186853014 7.96843163582087 M18.789488956613553 -1.5750577736916194 C10.28641894687857 4.257501354974318, 5.174124838074276 13.278085263638856, 0.8918165942338145 19.565558735240348 M17.195741067417902 -0.3307313838204262 C11.545620305227049 7.902232104183771, 4.826709044061053 13.675830669998499, -0.8035629889597256 20.758192255352043 M29.43350767399914 1.7107357986915908 C19.473489269796872 8.809576661039184, 11.153375265650133 17.595389180994644, 0.9688242808416989 32.356305885751816 M27.07211340617958 0.42109469278900225 C19.38536740277103 9.910569020933945, 9.399313203443734 19.75477186392294, 0.11178058745874475 31.521116720256515 M37.98242715640829 -0.12749979884767004 C24.31777457485493 14.064288767246685, 12.107296121016638 30.343493449634465, -1.8391525668299096 45.08418031537711 M39.36704528476024 -0.27144564317868536 C29.789265839576903 9.852076591280944, 19.91262323296271 21.599844983160622, -0.3994822332040835 45.247702303627044 M49.36361430445828 0.211099095788839 C36.25771836067177 11.498532455095622, 28.87204890026661 24.254740342278396, 1.66625581347248 56.958744229415295 M48.52128776830321 -0.15861765435782127 C36.9493064361742 13.593833756500905, 23.371383553864945 27.740358552058197, 0.6302295274576077 55.73433834210398 M58.556641069525355 -1.1741424911902518 C40.2935981196294 20.930567104020685, 23.75282041330834 44.522630961745485, -1.6447666409419206 67.51291860966232 M59.846640151470275 0.15324519059218078 C37.10676456035196 25.590421671207046, 14.182268557170069 51.96341821337104, -0.9333442341575084 69.13016587922999 M71.34529755243851 -1.953435711865068 C42.13947693080994 31.91875214561091, 17.665938349500557 62.038893564196385, -1.9244863933143357 82.23765206271119 M70.33055956413746 0.8332205730329334 C55.42287896452966 15.326689882812364, 41.54169215323199 32.23205189174009, -0.5835687047439047 81.78335184082728 M80.35393083531568 -1.6883616641565355 C59.578506736541826 27.172315832215006, 33.85352750124908 50.844655863028954, -1.257386791426513 91.77437091694067 M81.32754652790003 -0.8026013127267864 C51.581104762746115 36.30993914565164, 19.52520790492904 72.84216708772878, 0.4299571035728027 92.82381586406203 M93.15209624894335 -0.5140051389195293 C73.64097688744349 23.047344171061145, 55.24090471850821 44.205459450826886, 4.445445082053153 99.51466054482079 M90.79035319689997 -0.43225941769129417 C65.94735540114169 29.019970174636164, 41.983042920196034 59.19113335597077, 4.911285130662202 99.88940417203587 M98.61357611401068 3.9022591070119432 C72.0626811243687 33.07594925817359, 45.53616402777545 68.40899030183488, 16.056373681606775 101.43111914209051 M100.43654529834453 2.211054783462962 C74.87088115620814 33.75485748661121, 49.21603434685457 63.31042279286941, 16.126779804266775 99.02372493251607 M100.36053678618883 15.62357228405974 C81.33380176658702 35.741982241638276, 61.322706963183606 57.267338419002854, 24.621548519807245 100.66407557166715 M100.10799098374935 13.742944726566204 C82.82281762182201 34.13985337814559, 66.62219540063957 52.58451371969841, 26.746643983270538 100.26538372409026 M100.20551730239987 25.38246705925917 C74.8875189195871 55.08307780010354, 49.11017063148159 83.04918045680863, 37.342136396709094 98.94349977312339 M100.8268100841111 27.707799198993346 C74.08348120662654 55.572799924385436, 49.41095609648499 85.77824124985995, 36.296607087189095 99.72846967056752 M101.54919531356784 38.09813165497958 C82.49704135087961 59.841888221883885, 63.09913617265212 80.06264086539404, 45.70659339209497 99.41505349876138 M99.99556672385653 38.508374105665 C85.02757458727075 55.59007753148825, 69.0008685466342 73.7636025032706, 46.511418157398936 99.75671473355116 M99.95453587675097 52.92738243273818 C85.44188523216333 70.98361989072147, 69.35911263130252 88.95562745095917, 58.19241676431303 101.88157216012341 M100.93882694995311 51.635362918086095 C88.03042130185926 65.14506600652682, 75.21513737596328 79.25476086105385, 58.36703787892525 100.7221487875569 M98.79564607103593 63.89390920981223 C91.30963687639726 75.50810962100498, 78.57165036074481 87.39901681605245, 67.92590066663635 100.74163043415928 M100.98835921884742 63.56394835981533 C87.72305962517974 77.24128918458942, 76.47187494390745 90.38735594804777, 68.95927380181088 99.05421918067448 M99.54944907281076 73.81430190167221 C94.38887523226718 82.98142323093687, 88.60442341631314 87.10563686763315, 79.96810563419919 101.31911201387716 M100.03482072607855 75.98006042440036 C92.44901224182567 83.79406999121684, 85.34307193025285 93.02159082038877, 79.69821970169478 99.83338403951815 M98.73979921841803 86.49445003929843 C98.15304255840498 88.97005304844282, 94.70362186850059 92.16584823606718, 89.18213914487255 100.2252936827169 M99.41917685126096 87.80340370069148 C96.85960829945353 91.4751313255594, 94.85548985401536 94.10935179600945, 89.99937849788732 100.33566539922174" style="stroke: #000000; stroke-width: 1; fill: none;"/></pattern></defs><defs/><g><g transform="translate(67.5,49.5)"><text xmlns="http://www.w3.org/2000/svg" x="17" y="-3" style="font-size: 14px;font-family: Helvetica;" fill="rgb(0, 0, 0)"><tspan xmlns="http://www.w3.org/2000/svg" x="17" dx="0" dy="14" text-anchor="middle">teach</tspan><tspan xmlns="http://www.w3.org/2000/svg" x="17" dx="0" dy="14" text-anchor="middle">this</tspan><tspan xmlns="http://www.w3.org/2000/svg" x="17" dx="0" dy="14" text-anchor="middle">first</tspan></text></g><g transform="translate(30.5,160.5)rotate(270,10.5,7)"><text xmlns="http://www.w3.org/2000/svg" x="10.5" y="-3" style="font-size: 14px;font-family: Helvetica;" fill="rgb(0, 0, 0)"><tspan xmlns="http://www.w3.org/2000/svg" x="10.5" dx="0" dy="14" text-anchor="middle">low</tspan></text></g><g transform="translate(86.5,220.5)"><text xmlns="http://www.w3.org/2000/svg" x="44" y="-3" style="font-size: 14px;font-family: Helvetica;" fill="rgb(0, 0, 0)"><tspan xmlns="http://www.w3.org/2000/svg" x="44" dx="0" dy="14" text-anchor="middle">time to master</tspan></text></g><g transform="translate(92.5,106.5)rotate(315,27.5,23)"><text xmlns="http://www.w3.org/2000/svg" x="27.5" y="-3" style="font-size: 14px;font-family: Helvetica;" fill="rgb(0, 0, 0)"><tspan xmlns="http://www.w3.org/2000/svg" x="27.5" dx="0" dy="14" text-anchor="middle">think</tspan><tspan xmlns="http://www.w3.org/2000/svg" x="27.5" dx="0" dy="14" text-anchor="middle">about</tspan><tspan xmlns="http://www.w3.org/2000/svg" x="27.5" dx="0" dy="14" text-anchor="middle">tradeoffs</tspan></text></g><g transform="translate(151.5,145.5)"><text xmlns="http://www.w3.org/2000/svg" x="19.5" y="-3" style="font-size: 14px;font-family: Helvetica;" fill="rgb(0, 0, 0)"><tspan xmlns="http://www.w3.org/2000/svg" x="19.5" dx="0" dy="14" text-anchor="middle">don't</tspan><tspan xmlns="http://www.w3.org/2000/svg" x="19.5" dx="0" dy="14" text-anchor="middle">bother</tspan></text></g><g stroke-miterlimit="10" pointer-events="none"><path d="M 55 191 L 198.63 191" style="stroke: none; stroke-width: 0; fill: url(#rough-6634809659946837);"/><path d="M56.31741418799931 189.67246196366267 M54.820412796117 187.81197607902905 C112.88084793196629 188.15357051766708, 169.4294581175595 190.40765223946133, 199.30957550136483 190.74044952818895 M56.57765915098625 190.35139937618592 C104.21695741842535 190.53904219167833, 152.48580072498794 190.72399383303963, 198.01971417780686 191.8384933638397" style="stroke: #000000; stroke-width: 2; fill: none;"/></g><g stroke-miterlimit="10" pointer-events="none"><path d="M 203.88 191 L 196.88 194.5 L 198.63 191 L 196.88 187.5 Z" style="stroke: none; stroke-width: 0; fill: url(#rough-8427927738690649);"/><path d="M203.72608760592644 192.83529678868646 M203.55975900754385 193.0528227720399 C200.7313037240094 193.58374333428512, 199.06530421977067 194.09640365739986, 196.85091889168274 194.06891212977877 M204.00988887608213 192.87783148013187 C202.11830632117258 193.35955165477017, 200.04584675454453 193.34577765415187, 197.1075652959586 194.8214581169566 M196.70638546178253 194.34234640243767 C197.31600065423373 193.24366804039033, 198.13089470946122 192.26047926389603, 198.25215127465742 190.97974890628873 M196.68708638050092 194.64990153839068 C197.3807150236396 193.46472417412, 198.0355234401583 191.94518206344824, 198.7327343740036 191.13708748506832 M198.75278747026164 191.05149278661258 C198.34553434203772 189.77800697971185, 197.71747070418974 189.1745985382478, 197.24939593344595 187.52798240600723 M198.67485091372862 191.16056386655615 C198.17981176386584 190.069094337789, 197.6189920010914 188.76589020118888, 196.93580464856802 187.38474667272004 M196.69605179659126 187.77789501561807 C197.70772489745232 188.69440022305346, 199.645457489851 189.41157704047808, 204.29433710674942 193.70115732452223 M196.57542258149272 187.71716529222135 C198.87929251127326 189.1114765234263, 200.60604698324943 190.05408284130309, 203.34236988178043 192.51274467392543" style="stroke: #000000; stroke-width: 2; fill: none;"/></g><g stroke-miterlimit="10" pointer-events="none"><path d="M 55 191 L 55 17.37" style="stroke: none; stroke-width: 0; fill: url(#rough-5927885257908153);"/><path d="M55.613544412409404 189.5564751869142 M57.506266045380755 190.5629188634636 C53.12460136283679 140.0659805580938, 53.26411850798787 95.74434486470507, 55.16924046554812 19.000016396555125 M55.00524595436149 189.53600508380055 C56.737494850578486 137.5252460654409, 56.610289776614685 84.0674059887081, 54.56779494305644 16.52404754179089" style="stroke: #000000; stroke-width: 2; fill: none;"/></g><g stroke-miterlimit="10" pointer-events="none"><path d="M 55 12.12 L 58.5 19.12 L 55 17.37 L 51.5 19.12 Z" style="stroke: none; stroke-width: 0; fill: url(#rough-1462334161325631);"/><path d="M53.08055800295376 14.079820586490916 M53.39633976046152 14.150693419616578 C55.03804925705373 15.461619931779204, 55.16354202924542 15.916331009402485, 58.43308193333842 19.775078722028383 M53.00304968957616 14.402471343251246 C54.51642027200758 15.557975006011244, 55.87909287526069 16.1177160394373, 58.34335428744275 19.48196545060625 M58.59598176262747 19.46926508844046 C57.52581320276769 18.300738667517276, 55.79576542369637 18.094595130716993, 55.16634376756731 17.18264378674494 M58.38782711536195 19.30458223084876 C57.60724177187055 18.6727947608005, 56.68988362158129 18.286818624000148, 55.089727947296716 17.417145266252884 M54.63550530246912 17.10182450866183 C53.880403416839265 17.734168038184762, 53.36035029103403 18.306258753098977, 51.390712934727134 19.436671413144865 M54.82000015720072 17.54914378263357 C54.155870993276096 17.884868055912854, 53.37351769635116 17.972220554600163, 51.498291308275824 19.239763021707443 M51.69723976823355 19.479050336523912 C52.38945114885393 17.319964402637524, 52.29713369919527 16.339756891631644, 53.00598020554605 14.441075811602687 M51.39163819018676 19.24586218875047 C52.00339380512785 17.066814294472014, 52.5833973201319 15.239252061358563, 53.341184602849516 14.33490854660954" style="stroke: #000000; stroke-width: 2; fill: none;"/></g><g transform="translate(-71.5,93.5)rotate(270,82,7)"><text xmlns="http://www.w3.org/2000/svg" x="82" y="-3" style="font-size: 14px;font-family: Helvetica;" fill="rgb(0, 0, 0)"><tspan xmlns="http://www.w3.org/2000/svg" x="82" dx="0" dy="14" text-anchor="middle">usefulness once mastered</tspan></text></g><g transform="translate(16.5,101.5)rotate(270,24.5,7)"><text xmlns="http://www.w3.org/2000/svg" x="24.5" y="-3" style="font-size: 14px;font-family: Helvetica;" fill="rgb(0, 0, 0)"><tspan xmlns="http://www.w3.org/2000/svg" x="24.5" dx="0" dy="14" text-anchor="middle">medium</tspan></text></g><g transform="translate(27.5,39.5)rotate(270,13.5,7)"><text xmlns="http://www.w3.org/2000/svg" x="13.5" y="-3" style="font-size: 14px;font-family: Helvetica;" fill="rgb(0, 0, 0)"><tspan xmlns="http://www.w3.org/2000/svg" x="13.5" dx="0" dy="14" text-anchor="middle">high</tspan></text></g><g transform="translate(55.5,200.5)"><text xmlns="http://www.w3.org/2000/svg" x="25" y="-3" style="font-size: 14px;font-family: Helvetica;" fill="rgb(0, 0, 0)"><tspan xmlns="http://www.w3.org/2000/svg" x="25" dx="0" dy="14" text-anchor="middle">minutes</tspan></text></g><g transform="translate(118.5,200.5)"><text xmlns="http://www.w3.org/2000/svg" x="18" y="-3" style="font-size: 14px;font-family: Helvetica;" fill="rgb(0, 0, 0)"><tspan xmlns="http://www.w3.org/2000/svg" x="18" dx="0" dy="14" text-anchor="middle">hours</tspan></text></g><g transform="translate(172.5,200.5)"><text xmlns="http://www.w3.org/2000/svg" x="15" y="-3" style="font-size: 14px;font-family: Helvetica;" fill="rgb(0, 0, 0)"><tspan xmlns="http://www.w3.org/2000/svg" x="15" dx="0" dy="14" text-anchor="middle">days</tspan></text></g></g></svg>